999
FreeCAD v0.19 20943 (Git)
  0
SECTION
  2
HEADER
  9
$ACADVER
  1
AC1014
  9
$ACADMAINTVER
 70
     9
  9
$DWGCODEPAGE
  3
ANSI_1252
  9
$TEXTSTYLE
  7
STANDARD
  9
$DIMSTYLE
  2
STANDARD
  9
$DIMTXSTY
  7
STANDARD
  9
$CMLSTYLE
  2
STANDARD
  9
$PEXTMAX
 10
50
 20
50
 30
50
  9
$PEXTMIN
 10
0
 20
0
 30
0
  9
$HANDSEED
  5
FFFF
  0
ENDSEC
  0
SECTION
  2
CLASSES
  0
CLASS
  1
ACDBDICTIONARYWDFLT
  2
AcDbDictionaryWithDefault
  3
ObjectDBX Classes
 90
        0
280
     0
281
     0
  0
CLASS
  1
XRECORD
  2
AcDbXrecord
  3
ObjectDBX Classes
 90
        0
280
     0
281
     0
  0
CLASS
  1
LWPOLYLINE
  2
AcDbPolyline
  3
ObjectDBX Classes
 90
        0
280
     0
281
     1
  0
ENDSEC
  0
SECTION
  2
TABLES
  0
TABLE
  2
VPORT
  5
20
330
0
100
AcDbSymbolTable
 70
     1
  0
VPORT
  5
21
330
20
100
AcDbSymbolTableRecord
100
AcDbViewportTableRecord
  2
*ACTIVE
 70
     0
  0
ENDTAB
  0
TABLE
  2
LTYPE
  5
22
330
0
100
AcDbSymbolTable
 70
     1
  0
LTYPE
  5
23
330
21
100
AcDbSymbolTableRecord
100
AcDbLinetypeTableRecord
  2
BYBLOCK
 70
     0
  3

 72
    65
 73
     0
 40
0.0
  0
LTYPE
  5
24
330
21
100
AcDbSymbolTableRecord
100
AcDbLinetypeTableRecord
  2
BYLAYER
 70
     0
  3

 72
    65
 73
     0
 40
0.0
  0
LTYPE
  5
25
330
21
100
AcDbSymbolTableRecord
100
AcDbLinetypeTableRecord
  2
CONTINUOUS
 70
     0
  3
Solid line
 72
    65
 73
     0
 40
0.0
  0
ENDTAB
  0
TABLE
  2
LAYER
  5
C35
330
0
100
AcDbSymbolTable
 70
3
  0
LAYER
  5
C36
330
C35
100
AcDbSymbolTableRecord
100
AcDbLayerTableRecord
  2
0
 70
   0
 62
   7
  6
CONTINUOUS
  0
LAYER
  5
C37
330
C35
100
AcDbSymbolTableRecord
100
AcDbLayerTableRecord
  2
none
 70
    0
 62
    7
  6
CONTINUOUS
  0
LAYER
  5
C38
330
C35
100
AcDbSymbolTableRecord
100
AcDbLayerTableRecord
  2
Shape2DView001
 70
    0
 62
    7
  6
CONTINUOUS
  0
ENDTAB
  0
TABLE
  2
STYLE
  5
70
330
0
100
AcDbSymbolTable
 70
     2
  0
STYLE
  5
71
330
70
100
AcDbSymbolTableRecord
100
AcDbTextStyleTableRecord
  2
STANDARD
 70
     0
 40
0.0
 41
1.0
 50
0.0
 71
     0
 42
2.5
  3
arial.ttf
  4

  0
STYLE
  5
72
330
70
100
AcDbSymbolTableRecord
100
AcDbTextStyleTableRecord
  2
ANNOTATIVE
 70
     0
 40
0.0
 41
1.0
 50
0.0
 71
     0
 42
2.5
  3
arial.ttf
  4

  0
ENDTAB
  0
TABLE
  2
VIEW
  5
73
330
0
100
AcDbSymbolTable
 70
     0
  0
ENDTAB
  0
TABLE
  2
UCS
  5
74
330
0
100
AcDbSymbolTable
 70
     0
  0
ENDTAB
  0
TABLE
  2
APPID
  5
75
330
0
100
AcDbSymbolTable
 70
     2
  0
APPID
  5
76
330
75
100
AcDbSymbolTableRecord
100
AcDbRegAppTableRecord
  2
ACAD
 70
     0
  0
APPID
  5
77
330
75
100
AcDbSymbolTableRecord
100
AcDbRegAppTableRecord
  2
ACADANNOTATIVE
 70
     0
  0
ENDTAB
  0
TABLE
  2
DIMSTYLE
  5
78
330
0
100
AcDbSymbolTable
 70
     2
  0
DIMSTYLE
105
79
330
78
100
AcDbSymbolTableRecord
100
AcDbDimStyleTableRecord
  2
STANDARD
 70
     0
  3

  4

  5

  6

  7

 40
0.0
 41
2.5
 42
0.625
 43
3.75
 44
1.25
 45
0.0
 46
0.0
 47
0.0
 48
0.0
140
2.5
141
2.5
142
0.0
143
0.03937007874016
144
1.0
145
0.0
146
1.0
147
0.625
 71
     0
 72
     0
 73
     0
 74
     0
 75
     0
 76
     0
 77
     1
 78
     8
170
     0
171
     3
172
     1
173
     0
174
     0
175
     0
176
     0
177
     0
178
     0
270
     2
271
     2
272
     2
273
     2
274
     3
340
71
275
     0
280
     0
281
     0
282
     0
283
     0
284
     8
285
     0
286
     0
287
     3
288
     0
  0
ENDTAB
  0
TABLE
  2
BLOCK_RECORD
  5
A01
330
0
100
AcDbSymbolTable
  70
5
  0
BLOCK_RECORD
  5
A02
330
A01
100
AcDbSymbolTableRecord
100
AcDbBlockTableRecord
  2
*MODEL_SPACE
  0
BLOCK_RECORD
  5
A03
330
A01
100
AcDbSymbolTableRecord
100
AcDbBlockTableRecord
  2
*PAPER_SPACE
  0
ENDTAB
  0
ENDSEC
  0
SECTION
  2
BLOCKS
  0
BLOCK
  5
A04
330
A02
100
AcDbEntity
  8
0
100
AcDbBlockBegin
  2
*MODEL_SPACE
 70
   0
 10
0
 20
0
 30
0
  3
*MODEL_SPACE
  1
 
  0
ENDBLK
  5
A05
330
A02
100
AcDbEntity
  8
0
100
AcDbBlockEnd
  0
BLOCK
  5
A06
330
A03
100
AcDbEntity
 67
1
  8
0
100
AcDbBlockBegin
  2
*PAPER_SPACE
 70
   0
 10
0
 20
0
 30
0
  3
*PAPER_SPACE
  1
 
  0
ENDBLK
  5
A07
330
A03
100
AcDbEntity
 67
    1
  8
0
100
AcDbBlockEnd
  0
ENDSEC
  0
SECTION
  2
ENTITIES
  0
LINE
  5
A08
330
A02
100
AcDbEntity
  8
Shape2DView001
100
AcDbLine
 10
6246.84
 20
-1492.32
 30
0
 11
6296.84
 21
-1492.32
 31
0
  0
LINE
  5
A09
330
A02
100
AcDbEntity
  8
Shape2DView001
100
AcDbLine
 10
6296.84
 20
-1492.32
 30
0
 11
6296.84
 21
-1482.32
 31
0
  0
LINE
  5
A0A
330
A02
100
AcDbEntity
  8
Shape2DView001
100
AcDbLine
 10
6296.84
 20
-1482.32
 30
0
 11
6246.84
 21
-1482.32
 31
0
  0
LINE
  5
A0B
330
A02
100
AcDbEntity
  8
Shape2DView001
100
AcDbLine
 10
6246.84
 20
-1482.32
 30
0
 11
6246.84
 21
-1492.32
 31
0
  0
LINE
  5
A0C
330
A02
100
AcDbEntity
  8
Shape2DView001
100
AcDbLine
 10
7184.84
 20
-1492.32
 30
0
 11
7234.84
 21
-1492.32
 31
0
  0
LINE
  5
A0D
330
A02
100
AcDbEntity
  8
Shape2DView001
100
AcDbLine
 10
7234.84
 20
-1492.32
 30
0
 11
7234.84
 21
-1482.32
 31
0
  0
LINE
  5
A0E
330
A02
100
AcDbEntity
  8
Shape2DView001
100
AcDbLine
 10
7234.84
 20
-1482.32
 30
0
 11
7184.84
 21
-1482.32
 31
0
  0
LINE
  5
A0F
330
A02
100
AcDbEntity
  8
Shape2DView001
100
AcDbLine
 10
7184.84
 20
-1482.32
 30
0
 11
7184.84
 21
-1492.32
 31
0
  0
LINE
  5
A10
330
A02
100
AcDbEntity
  8
Shape2DView001
100
AcDbLine
 10
5308.9
 20
-1492.32
 30
0
 11
5358.9
 21
-1492.32
 31
0
  0
LINE
  5
A11
330
A02
100
AcDbEntity
  8
Shape2DView001
100
AcDbLine
 10
5358.9
 20
-1492.32
 30
0
 11
5358.9
 21
-1482.32
 31
0
  0
LINE
  5
A12
330
A02
100
AcDbEntity
  8
Shape2DView001
100
AcDbLine
 10
5358.9
 20
-1482.32
 30
0
 11
5308.9
 21
-1482.32
 31
0
  0
LINE
  5
A13
330
A02
100
AcDbEntity
  8
Shape2DView001
100
AcDbLine
 10
5308.9
 20
-1482.32
 30
0
 11
5308.9
 21
-1492.32
 31
0
  0
LINE
  5
A14
330
A02
100
AcDbEntity
  8
Shape2DView001
100
AcDbLine
 10
9008.14
 20
-1284.94
 30
0
 11
7234.84
 21
-1482.32
 31
0
  0
LINE
  5
A15
330
A02
100
AcDbEntity
  8
Shape2DView001
100
AcDbLine
 10
7184.84
 20
-1482.32
 30
0
 11
6797.28
 21
-1482.32
 31
0
  0
LINE
  5
A16
330
A02
100
AcDbEntity
  8
Shape2DView001
100
AcDbLine
 10
6707.28
 20
-1482.32
 30
0
 11
6296.84
 21
-1482.32
 31
0
  0
LINE
  5
A17
330
A02
100
AcDbEntity
  8
Shape2DView001
100
AcDbLine
 10
6246.84
 20
-1482.32
 30
0
 11
5836.4
 21
-1482.32
 31
0
  0
LINE
  5
A18
330
A02
100
AcDbEntity
  8
Shape2DView001
100
AcDbLine
 10
5746.4
 20
-1482.32
 30
0
 11
5358.9
 21
-1482.32
 31
0
  0
LINE
  5
A19
330
A02
100
AcDbEntity
  8
Shape2DView001
100
AcDbLine
 10
5308.9
 20
-1482.32
 30
0
 11
5308.84
 21
-1482.32
 31
0
  0
LINE
  5
A1A
330
A02
100
AcDbEntity
  8
Shape2DView001
100
AcDbLine
 10
5308.84
 20
-1482.32
 30
0
 11
2816.87
 21
-1204.94
 31
0
  0
LINE
  5
A1B
330
A02
100
AcDbEntity
  8
Shape2DView001
100
AcDbLine
 10
2816.87
 20
-1204.94
 30
0
 11
2791.87
 21
-1204.94
 31
0
  0
LINE
  5
A1C
330
A02
100
AcDbEntity
  8
Shape2DView001
100
AcDbLine
 10
2791.87
 20
-1204.94
 30
0
 11
2791.87
 21
-1214.94
 31
0
  0
LINE
  5
A1D
330
A02
100
AcDbEntity
  8
Shape2DView001
100
AcDbLine
 10
2816.32
 20
-1214.94
 30
0
 11
2791.87
 21
-1214.94
 31
0
  0
LINE
  5
A1E
330
A02
100
AcDbEntity
  8
Shape2DView001
100
AcDbLine
 10
5307.74
 20
-1492.26
 30
0
 11
2816.32
 21
-1214.94
 31
0
  0
ARC
  5
A1F
330
A02
100
AcDbEntity
  8
Shape2DView001
100
AcDbCircle
 10
5308.84
 20
-1482.32
 30
0
 40
10
100
AcDbArc
 50
-96.3515
 51
-90
  0
LINE
  5
A20
330
A02
100
AcDbEntity
  8
Shape2DView001
100
AcDbLine
 10
7184.84
 20
-1492.32
 30
0
 11
6792.11
 21
-1492.32
 31
0
  0
LINE
  5
A21
330
A02
100
AcDbEntity
  8
Shape2DView001
100
AcDbLine
 10
6776.45
 20
-1492.32
 30
0
 11
6728.11
 21
-1492.32
 31
0
  0
LINE
  5
A22
330
A02
100
AcDbEntity
  8
Shape2DView001
100
AcDbLine
 10
6712.45
 20
-1492.32
 30
0
 11
6296.84
 21
-1492.32
 31
0
  0
LINE
  5
A23
330
A02
100
AcDbEntity
  8
Shape2DView001
100
AcDbLine
 10
6246.84
 20
-1492.32
 30
0
 11
5831.23
 21
-1492.32
 31
0
  0
LINE
  5
A24
330
A02
100
AcDbEntity
  8
Shape2DView001
100
AcDbLine
 10
5815.57
 20
-1492.32
 30
0
 11
5767.23
 21
-1492.32
 31
0
  0
LINE
  5
A25
330
A02
100
AcDbEntity
  8
Shape2DView001
100
AcDbLine
 10
5751.57
 20
-1492.32
 30
0
 11
5358.9
 21
-1492.32
 31
0
  0
LINE
  5
A26
330
A02
100
AcDbEntity
  8
Shape2DView001
100
AcDbLine
 10
5308.9
 20
-1492.32
 30
0
 11
5308.84
 21
-1492.32
 31
0
  0
ARC
  5
A27
330
A02
100
AcDbEntity
  8
Shape2DView001
100
AcDbCircle
 10
7234.84
 20
-1482.32
 30
0
 40
10
100
AcDbArc
 50
-90
 51
-83.6487
  0
LINE
  5
A28
330
A02
100
AcDbEntity
  8
Shape2DView001
100
AcDbLine
 10
9098.54
 20
-1284.94
 30
0
 11
7235.95
 21
-1492.26
 31
0
  0
LINE
  5
A29
330
A02
100
AcDbEntity
  8
Shape2DView001
100
AcDbLine
 10
4722.78
 20
-1204.94
 30
0
 11
4710.89
 21
-1204.94
 31
0
  0
LINE
  5
A2A
330
A02
100
AcDbEntity
  8
Shape2DView001
100
AcDbLine
 10
4710.89
 20
-1204.94
 30
0
 11
4710.89
 21
-1210.45
 31
0
  0
LINE
  5
A2B
330
A02
100
AcDbEntity
  8
Shape2DView001
100
AcDbLine
 10
4710.89
 20
-1210.45
 30
0
 11
5293.29
 21
-1480.59
 31
0
  0
LINE
  5
A2C
330
A02
100
AcDbEntity
  8
Shape2DView001
100
AcDbLine
 10
5293.29
 20
-1480.59
 30
0
 11
5308.9
 21
-1482.32
 31
0
  0
LINE
  5
A2D
330
A02
100
AcDbEntity
  8
Shape2DView001
100
AcDbLine
 10
5308.9
 20
-1482.32
 30
0
 11
5308.9
 21
-1476.81
 31
0
  0
LINE
  5
A2E
330
A02
100
AcDbEntity
  8
Shape2DView001
100
AcDbLine
 10
5308.9
 20
-1476.81
 30
0
 11
4722.78
 21
-1204.94
 31
0
  0
LINE
  5
A2F
330
A02
100
AcDbEntity
  8
Shape2DView001
100
AcDbLine
 10
7832.85
 20
-1210.45
 30
0
 11
7832.85
 21
-1204.94
 31
0
  0
LINE
  5
A30
330
A02
100
AcDbEntity
  8
Shape2DView001
100
AcDbLine
 10
7832.85
 20
-1204.94
 30
0
 11
7820.97
 21
-1204.94
 31
0
  0
LINE
  5
A31
330
A02
100
AcDbEntity
  8
Shape2DView001
100
AcDbLine
 10
7820.97
 20
-1204.94
 30
0
 11
7234.84
 21
-1476.81
 31
0
  0
LINE
  5
A32
330
A02
100
AcDbEntity
  8
Shape2DView001
100
AcDbLine
 10
7234.84
 20
-1476.81
 30
0
 11
7234.84
 21
-1482.32
 31
0
  0
LINE
  5
A33
330
A02
100
AcDbEntity
  8
Shape2DView001
100
AcDbLine
 10
7234.84
 20
-1482.32
 30
0
 11
7250.48
 21
-1480.58
 31
0
  0
LINE
  5
A34
330
A02
100
AcDbEntity
  8
Shape2DView001
100
AcDbLine
 10
7250.48
 20
-1480.58
 30
0
 11
7832.85
 21
-1210.45
 31
0
  0
LINE
  5
A35
330
A02
100
AcDbEntity
  8
Shape2DView001
100
AcDbLine
 10
3464.88
 20
-1204.94
 30
0
 11
3464.88
 21
-1277.07
 31
0
  0
LINE
  5
A36
330
A02
100
AcDbEntity
  8
Shape2DView001
100
AcDbLine
 10
3464.88
 20
-1204.94
 30
0
 11
3439.88
 21
-1204.94
 31
0
  0
LINE
  5
A37
330
A02
100
AcDbEntity
  8
Shape2DView001
100
AcDbLine
 10
3439.88
 20
-1204.94
 30
0
 11
3439.88
 21
-1274.28
 31
0
  0
LINE
  5
A38
330
A02
100
AcDbEntity
  8
Shape2DView001
100
AcDbLine
 10
3464.88
 20
-1277.07
 30
0
 11
3439.88
 21
-1274.28
 31
0
  0
LINE
  5
A39
330
A02
100
AcDbEntity
  8
Shape2DView001
100
AcDbLine
 10
4087.89
 20
-1204.94
 30
0
 11
4087.89
 21
-1346.41
 31
0
  0
LINE
  5
A3A
330
A02
100
AcDbEntity
  8
Shape2DView001
100
AcDbLine
 10
4087.89
 20
-1204.94
 30
0
 11
4062.89
 21
-1204.94
 31
0
  0
LINE
  5
A3B
330
A02
100
AcDbEntity
  8
Shape2DView001
100
AcDbLine
 10
4062.89
 20
-1204.94
 30
0
 11
4062.89
 21
-1343.63
 31
0
  0
LINE
  5
A3C
330
A02
100
AcDbEntity
  8
Shape2DView001
100
AcDbLine
 10
4087.89
 20
-1346.41
 30
0
 11
4062.89
 21
-1343.63
 31
0
  0
LINE
  5
A3D
330
A02
100
AcDbEntity
  8
Shape2DView001
100
AcDbLine
 10
5333.9
 20
-1204.94
 30
0
 11
5333.9
 21
-1482.32
 31
0
  0
LINE
  5
A3E
330
A02
100
AcDbEntity
  8
Shape2DView001
100
AcDbLine
 10
5308.9
 20
-1204.94
 30
0
 11
5308.9
 21
-1482.32
 31
0
  0
LINE
  5
A3F
330
A02
100
AcDbEntity
  8
Shape2DView001
100
AcDbLine
 10
5333.9
 20
-1204.94
 30
0
 11
5308.9
 21
-1204.94
 31
0
  0
LINE
  5
A40
330
A02
100
AcDbEntity
  8
Shape2DView001
100
AcDbLine
 10
8480.86
 20
-1284.94
 30
0
 11
8480.86
 21
-1343.63
 31
0
  0
LINE
  5
A41
330
A02
100
AcDbEntity
  8
Shape2DView001
100
AcDbLine
 10
8474.94
 20
-1204.94
 30
0
 11
8455.86
 21
-1204.94
 31
0
  0
LINE
  5
A42
330
A02
100
AcDbEntity
  8
Shape2DView001
100
AcDbLine
 10
8455.86
 20
-1204.94
 30
0
 11
8455.86
 21
-1346.41
 31
0
  0
LINE
  5
A43
330
A02
100
AcDbEntity
  8
Shape2DView001
100
AcDbLine
 10
8480.86
 20
-1343.63
 30
0
 11
8455.86
 21
-1346.41
 31
0
  0
LINE
  5
A44
330
A02
100
AcDbEntity
  8
Shape2DView001
100
AcDbLine
 10
7234.84
 20
-1204.94
 30
0
 11
7234.84
 21
-1482.32
 31
0
  0
LINE
  5
A45
330
A02
100
AcDbEntity
  8
Shape2DView001
100
AcDbLine
 10
7209.84
 20
-1204.94
 30
0
 11
7209.84
 21
-1482.32
 31
0
  0
LINE
  5
A46
330
A02
100
AcDbEntity
  8
Shape2DView001
100
AcDbLine
 10
7234.84
 20
-1204.94
 30
0
 11
7209.84
 21
-1204.94
 31
0
  0
LINE
  5
A47
330
A02
100
AcDbEntity
  8
Shape2DView001
100
AcDbLine
 10
7857.85
 20
-1204.94
 30
0
 11
7857.85
 21
-1412.97
 31
0
  0
LINE
  5
A48
330
A02
100
AcDbEntity
  8
Shape2DView001
100
AcDbLine
 10
7857.85
 20
-1204.94
 30
0
 11
7832.85
 21
-1204.94
 31
0
  0
LINE
  5
A49
330
A02
100
AcDbEntity
  8
Shape2DView001
100
AcDbLine
 10
7832.85
 20
-1204.94
 30
0
 11
7832.85
 21
-1415.76
 31
0
  0
LINE
  5
A4A
330
A02
100
AcDbEntity
  8
Shape2DView001
100
AcDbLine
 10
7857.85
 20
-1412.97
 30
0
 11
7832.85
 21
-1415.76
 31
0
  0
LINE
  5
A4B
330
A02
100
AcDbEntity
  8
Shape2DView001
100
AcDbLine
 10
4710.89
 20
-1204.94
 30
0
 11
4710.89
 21
-1415.76
 31
0
  0
LINE
  5
A4C
330
A02
100
AcDbEntity
  8
Shape2DView001
100
AcDbLine
 10
4710.89
 20
-1204.94
 30
0
 11
4685.89
 21
-1204.94
 31
0
  0
LINE
  5
A4D
330
A02
100
AcDbEntity
  8
Shape2DView001
100
AcDbLine
 10
4685.89
 20
-1204.94
 30
0
 11
4685.89
 21
-1412.97
 31
0
  0
LINE
  5
A4E
330
A02
100
AcDbEntity
  8
Shape2DView001
100
AcDbLine
 10
4710.89
 20
-1415.76
 30
0
 11
4685.89
 21
-1412.97
 31
0
  0
LINE
  5
A4F
330
A02
100
AcDbEntity
  8
Shape2DView001
100
AcDbLine
 10
2696.87
 20
-1204.94
 30
0
 11
2671.87
 21
-1204.94
 31
0
  0
LINE
  5
A50
330
A02
100
AcDbEntity
  8
Shape2DView001
100
AcDbLine
 10
2696.87
 20
-1104.94
 30
0
 11
2696.87
 21
-1204.94
 31
0
  0
LINE
  5
A51
330
A02
100
AcDbEntity
  8
Shape2DView001
100
AcDbLine
 10
2671.87
 20
-1104.94
 30
0
 11
2696.87
 21
-1104.94
 31
0
  0
LINE
  5
A52
330
A02
100
AcDbEntity
  8
Shape2DView001
100
AcDbLine
 10
2671.87
 20
-1204.94
 30
0
 11
2671.87
 21
-1104.94
 31
0
  0
LINE
  5
A53
330
A02
100
AcDbEntity
  8
Shape2DView001
100
AcDbLine
 10
2694.37
 20
-1202.44
 30
0
 11
2674.37
 21
-1202.44
 31
0
  0
LINE
  5
A54
330
A02
100
AcDbEntity
  8
Shape2DView001
100
AcDbLine
 10
2674.37
 20
-1202.44
 30
0
 11
2674.37
 21
-1107.44
 31
0
  0
LINE
  5
A55
330
A02
100
AcDbEntity
  8
Shape2DView001
100
AcDbLine
 10
2674.37
 20
-1107.44
 30
0
 11
2694.37
 21
-1107.44
 31
0
  0
LINE
  5
A56
330
A02
100
AcDbEntity
  8
Shape2DView001
100
AcDbLine
 10
2694.37
 20
-1107.44
 30
0
 11
2694.37
 21
-1202.44
 31
0
  0
LINE
  5
A57
330
A02
100
AcDbEntity
  8
Shape2DView001
100
AcDbLine
 10
9871.87
 20
-1204.94
 30
0
 11
9846.87
 21
-1204.94
 31
0
  0
LINE
  5
A58
330
A02
100
AcDbEntity
  8
Shape2DView001
100
AcDbLine
 10
9871.87
 20
-1104.94
 30
0
 11
9871.87
 21
-1204.94
 31
0
  0
LINE
  5
A59
330
A02
100
AcDbEntity
  8
Shape2DView001
100
AcDbLine
 10
9846.87
 20
-1104.94
 30
0
 11
9871.87
 21
-1104.94
 31
0
  0
LINE
  5
A5A
330
A02
100
AcDbEntity
  8
Shape2DView001
100
AcDbLine
 10
9846.87
 20
-1204.94
 30
0
 11
9846.87
 21
-1104.94
 31
0
  0
LINE
  5
A5B
330
A02
100
AcDbEntity
  8
Shape2DView001
100
AcDbLine
 10
9869.37
 20
-1202.44
 30
0
 11
9849.37
 21
-1202.44
 31
0
  0
LINE
  5
A5C
330
A02
100
AcDbEntity
  8
Shape2DView001
100
AcDbLine
 10
9849.37
 20
-1202.44
 30
0
 11
9849.37
 21
-1107.44
 31
0
  0
LINE
  5
A5D
330
A02
100
AcDbEntity
  8
Shape2DView001
100
AcDbLine
 10
9849.37
 20
-1107.44
 30
0
 11
9869.37
 21
-1107.44
 31
0
  0
LINE
  5
A5E
330
A02
100
AcDbEntity
  8
Shape2DView001
100
AcDbLine
 10
9869.37
 20
-1107.44
 30
0
 11
9869.37
 21
-1202.44
 31
0
  0
LINE
  5
A5F
330
A02
100
AcDbEntity
  8
Shape2DView001
100
AcDbLine
 10
2696.87
 20
-1204.94
 30
0
 11
8474.94
 21
-1204.94
 31
0
  0
LINE
  5
A60
330
A02
100
AcDbEntity
  8
Shape2DView001
100
AcDbLine
 10
2696.87
 20
-1104.94
 30
0
 11
3964.34
 21
-1104.94
 31
0
  0
LINE
  5
A61
330
A02
100
AcDbEntity
  8
Shape2DView001
100
AcDbLine
 10
3989.34
 20
-1104.94
 30
0
 11
5111.87
 21
-1104.94
 31
0
  0
LINE
  5
A62
330
A02
100
AcDbEntity
  8
Shape2DView001
100
AcDbLine
 10
5136.87
 20
-1104.94
 30
0
 11
6259.34
 21
-1104.94
 31
0
  0
LINE
  5
A63
330
A02
100
AcDbEntity
  8
Shape2DView001
100
AcDbLine
 10
6284.34
 20
-1104.94
 30
0
 11
7406.87
 21
-1104.94
 31
0
  0
LINE
  5
A64
330
A02
100
AcDbEntity
  8
Shape2DView001
100
AcDbLine
 10
7431.87
 20
-1104.94
 30
0
 11
8554.37
 21
-1104.94
 31
0
  0
LINE
  5
A65
330
A02
100
AcDbEntity
  8
Shape2DView001
100
AcDbLine
 10
8579.37
 20
-1104.94
 30
0
 11
9846.84
 21
-1104.94
 31
0
  0
LINE
  5
A66
330
A02
100
AcDbEntity
  8
Shape2DView001
100
AcDbLine
 10
9846.84
 20
-1204.94
 30
0
 11
9846.84
 21
-1104.94
 31
0
  0
LINE
  5
A67
330
A02
100
AcDbEntity
  8
Shape2DView001
100
AcDbLine
 10
6284.34
 20
-1104.94
 30
0
 11
6259.34
 21
-1104.94
 31
0
  0
LINE
  5
A68
330
A02
100
AcDbEntity
  8
Shape2DView001
100
AcDbLine
 10
6284.34
 20
-1129.94
 30
0
 11
6284.34
 21
-1104.94
 31
0
  0
LINE
  5
A69
330
A02
100
AcDbEntity
  8
Shape2DView001
100
AcDbLine
 10
6259.34
 20
-1104.94
 30
0
 11
6259.34
 21
-1129.94
 31
0
  0
LINE
  5
A6A
330
A02
100
AcDbEntity
  8
Shape2DView001
100
AcDbLine
 10
6259.34
 20
-1129.94
 30
0
 11
6284.34
 21
-1129.94
 31
0
  0
LINE
  5
A6B
330
A02
100
AcDbEntity
  8
Shape2DView001
100
AcDbLine
 10
6281.34
 20
-1126.94
 30
0
 11
6281.34
 21
-1107.94
 31
0
  0
LINE
  5
A6C
330
A02
100
AcDbEntity
  8
Shape2DView001
100
AcDbLine
 10
6262.34
 20
-1126.94
 30
0
 11
6281.34
 21
-1126.94
 31
0
  0
LINE
  5
A6D
330
A02
100
AcDbEntity
  8
Shape2DView001
100
AcDbLine
 10
6262.34
 20
-1107.94
 30
0
 11
6262.34
 21
-1126.94
 31
0
  0
LINE
  5
A6E
330
A02
100
AcDbEntity
  8
Shape2DView001
100
AcDbLine
 10
6281.34
 20
-1107.94
 30
0
 11
6262.34
 21
-1107.94
 31
0
  0
LINE
  5
A6F
330
A02
100
AcDbEntity
  8
Shape2DView001
100
AcDbLine
 10
7431.87
 20
-1104.94
 30
0
 11
7406.87
 21
-1104.94
 31
0
  0
LINE
  5
A70
330
A02
100
AcDbEntity
  8
Shape2DView001
100
AcDbLine
 10
7431.87
 20
-1129.94
 30
0
 11
7431.87
 21
-1104.94
 31
0
  0
LINE
  5
A71
330
A02
100
AcDbEntity
  8
Shape2DView001
100
AcDbLine
 10
7406.87
 20
-1104.94
 30
0
 11
7406.87
 21
-1129.94
 31
0
  0
LINE
  5
A72
330
A02
100
AcDbEntity
  8
Shape2DView001
100
AcDbLine
 10
7406.87
 20
-1129.94
 30
0
 11
7431.87
 21
-1129.94
 31
0
  0
LINE
  5
A73
330
A02
100
AcDbEntity
  8
Shape2DView001
100
AcDbLine
 10
7428.87
 20
-1126.94
 30
0
 11
7428.87
 21
-1107.94
 31
0
  0
LINE
  5
A74
330
A02
100
AcDbEntity
  8
Shape2DView001
100
AcDbLine
 10
7409.87
 20
-1126.94
 30
0
 11
7428.87
 21
-1126.94
 31
0
  0
LINE
  5
A75
330
A02
100
AcDbEntity
  8
Shape2DView001
100
AcDbLine
 10
7409.87
 20
-1107.94
 30
0
 11
7409.87
 21
-1126.94
 31
0
  0
LINE
  5
A76
330
A02
100
AcDbEntity
  8
Shape2DView001
100
AcDbLine
 10
7428.87
 20
-1107.94
 30
0
 11
7409.87
 21
-1107.94
 31
0
  0
LINE
  5
A77
330
A02
100
AcDbEntity
  8
Shape2DView001
100
AcDbLine
 10
8579.37
 20
-1104.94
 30
0
 11
8554.37
 21
-1104.94
 31
0
  0
LINE
  5
A78
330
A02
100
AcDbEntity
  8
Shape2DView001
100
AcDbLine
 10
8579.37
 20
-1129.94
 30
0
 11
8579.37
 21
-1104.94
 31
0
  0
LINE
  5
A79
330
A02
100
AcDbEntity
  8
Shape2DView001
100
AcDbLine
 10
8554.37
 20
-1104.94
 30
0
 11
8554.37
 21
-1129.94
 31
0
  0
LINE
  5
A7A
330
A02
100
AcDbEntity
  8
Shape2DView001
100
AcDbLine
 10
8554.37
 20
-1129.94
 30
0
 11
8579.37
 21
-1129.94
 31
0
  0
LINE
  5
A7B
330
A02
100
AcDbEntity
  8
Shape2DView001
100
AcDbLine
 10
8576.37
 20
-1126.94
 30
0
 11
8576.37
 21
-1107.94
 31
0
  0
LINE
  5
A7C
330
A02
100
AcDbEntity
  8
Shape2DView001
100
AcDbLine
 10
8557.37
 20
-1126.94
 30
0
 11
8576.37
 21
-1126.94
 31
0
  0
LINE
  5
A7D
330
A02
100
AcDbEntity
  8
Shape2DView001
100
AcDbLine
 10
8557.37
 20
-1107.94
 30
0
 11
8557.37
 21
-1126.94
 31
0
  0
LINE
  5
A7E
330
A02
100
AcDbEntity
  8
Shape2DView001
100
AcDbLine
 10
8576.37
 20
-1107.94
 30
0
 11
8557.37
 21
-1107.94
 31
0
  0
LINE
  5
A7F
330
A02
100
AcDbEntity
  8
Shape2DView001
100
AcDbLine
 10
5136.87
 20
-1104.94
 30
0
 11
5111.87
 21
-1104.94
 31
0
  0
LINE
  5
A80
330
A02
100
AcDbEntity
  8
Shape2DView001
100
AcDbLine
 10
5136.87
 20
-1129.94
 30
0
 11
5136.87
 21
-1104.94
 31
0
  0
LINE
  5
A81
330
A02
100
AcDbEntity
  8
Shape2DView001
100
AcDbLine
 10
5111.87
 20
-1104.94
 30
0
 11
5111.87
 21
-1129.94
 31
0
  0
LINE
  5
A82
330
A02
100
AcDbEntity
  8
Shape2DView001
100
AcDbLine
 10
5111.87
 20
-1129.94
 30
0
 11
5136.87
 21
-1129.94
 31
0
  0
LINE
  5
A83
330
A02
100
AcDbEntity
  8
Shape2DView001
100
AcDbLine
 10
5133.87
 20
-1126.94
 30
0
 11
5133.87
 21
-1107.94
 31
0
  0
LINE
  5
A84
330
A02
100
AcDbEntity
  8
Shape2DView001
100
AcDbLine
 10
5114.87
 20
-1126.94
 30
0
 11
5133.87
 21
-1126.94
 31
0
  0
LINE
  5
A85
330
A02
100
AcDbEntity
  8
Shape2DView001
100
AcDbLine
 10
5114.87
 20
-1107.94
 30
0
 11
5114.87
 21
-1126.94
 31
0
  0
LINE
  5
A86
330
A02
100
AcDbEntity
  8
Shape2DView001
100
AcDbLine
 10
5133.87
 20
-1107.94
 30
0
 11
5114.87
 21
-1107.94
 31
0
  0
LINE
  5
A87
330
A02
100
AcDbEntity
  8
Shape2DView001
100
AcDbLine
 10
3989.34
 20
-1104.94
 30
0
 11
3964.34
 21
-1104.94
 31
0
  0
LINE
  5
A88
330
A02
100
AcDbEntity
  8
Shape2DView001
100
AcDbLine
 10
3989.34
 20
-1129.94
 30
0
 11
3989.34
 21
-1104.94
 31
0
  0
LINE
  5
A89
330
A02
100
AcDbEntity
  8
Shape2DView001
100
AcDbLine
 10
3964.34
 20
-1104.94
 30
0
 11
3964.34
 21
-1129.94
 31
0
  0
LINE
  5
A8A
330
A02
100
AcDbEntity
  8
Shape2DView001
100
AcDbLine
 10
3964.34
 20
-1129.94
 30
0
 11
3989.34
 21
-1129.94
 31
0
  0
LINE
  5
A8B
330
A02
100
AcDbEntity
  8
Shape2DView001
100
AcDbLine
 10
3986.34
 20
-1126.94
 30
0
 11
3986.34
 21
-1107.94
 31
0
  0
LINE
  5
A8C
330
A02
100
AcDbEntity
  8
Shape2DView001
100
AcDbLine
 10
3967.34
 20
-1126.94
 30
0
 11
3986.34
 21
-1126.94
 31
0
  0
LINE
  5
A8D
330
A02
100
AcDbEntity
  8
Shape2DView001
100
AcDbLine
 10
3967.34
 20
-1107.94
 30
0
 11
3967.34
 21
-1126.94
 31
0
  0
LINE
  5
A8E
330
A02
100
AcDbEntity
  8
Shape2DView001
100
AcDbLine
 10
3986.34
 20
-1107.94
 30
0
 11
3967.34
 21
-1107.94
 31
0
  0
ARC
  5
A8F
330
A02
100
AcDbEntity
  8
Shape2DView001
100
AcDbCircle
 10
6756.6
 20
-773.762
 30
0
 40
658.684
100
AcDbArc
 50
-121.472
 51
-93.5532
  0
ARC
  5
A90
330
A02
100
AcDbEntity
  8
Shape2DView001
100
AcDbCircle
 10
6756.6
 20
-773.762
 30
0
 40
658.684
100
AcDbArc
 50
-92.7691
 51
-87.9835
  0
ARC
  5
A91
330
A02
100
AcDbEntity
  8
Shape2DView001
100
AcDbCircle
 10
6756.6
 20
-773.762
 30
0
 40
658.684
100
AcDbArc
 50
-87.1999
 51
-61.8459
  0
ARC
  5
A92
330
A02
100
AcDbEntity
  8
Shape2DView001
100
AcDbCircle
 10
6756.6
 20
-799.762
 30
0
 40
645.906
100
AcDbArc
 50
-122.694
 51
-93.6236
  0
ARC
  5
A93
330
A02
100
AcDbEntity
  8
Shape2DView001
100
AcDbCircle
 10
6756.6
 20
-799.762
 30
0
 40
645.906
100
AcDbArc
 50
-92.824
 51
-87.9435
  0
ARC
  5
A94
330
A02
100
AcDbEntity
  8
Shape2DView001
100
AcDbCircle
 10
6756.6
 20
-799.762
 30
0
 40
645.906
100
AcDbArc
 50
-87.1444
 51
-59.2641
  0
ARC
  5
A95
330
A02
100
AcDbEntity
  8
Shape2DView001
100
AcDbCircle
 10
6756.6
 20
-799.762
 30
0
 40
645.906
100
AcDbArc
 50
-117.156
 51
-93.6236
  0
ARC
  5
A96
330
A02
100
AcDbEntity
  8
Shape2DView001
100
AcDbCircle
 10
6756.6
 20
-799.762
 30
0
 40
645.906
100
AcDbArc
 50
-92.824
 51
-87.9435
  0
ARC
  5
A97
330
A02
100
AcDbEntity
  8
Shape2DView001
100
AcDbCircle
 10
6756.6
 20
-799.762
 30
0
 40
645.906
100
AcDbArc
 50
-87.1444
 51
-63.5337
  0
LINE
  5
A98
330
A02
100
AcDbEntity
  8
Shape2DView001
100
AcDbLine
 10
6461.8
 20
-1374.47
 30
0
 11
6458.3
 21
-1381.66
 31
0
  0
ARC
  5
A99
330
A02
100
AcDbEntity
  8
Shape2DView001
100
AcDbCircle
 10
6756.56
 20
-807.762
 30
0
 40
646.774
100
AcDbArc
 50
-117.461
 51
-93.6146
  0
ARC
  5
A9A
330
A02
100
AcDbEntity
  8
Shape2DView001
100
AcDbCircle
 10
6756.56
 20
-807.762
 30
0
 40
646.774
100
AcDbArc
 50
-92.8161
 51
-87.9422
  0
ARC
  5
A9B
330
A02
100
AcDbEntity
  8
Shape2DView001
100
AcDbCircle
 10
6756.56
 20
-807.762
 30
0
 40
646.774
100
AcDbArc
 50
-87.1442
 51
-63.2206
  0
LINE
  5
A9C
330
A02
100
AcDbEntity
  8
Shape2DView001
100
AcDbLine
 10
7044.47
 20
-1377.97
 30
0
 11
7047.97
 21
-1385.17
 31
0
  0
LINE
  5
A9D
330
A02
100
AcDbEntity
  8
Shape2DView001
100
AcDbLine
 10
6539.12
 20
-1425.38
 30
0
 11
6541.62
 21
-1417.78
 31
0
  0
ARC
  5
A9E
330
A02
100
AcDbEntity
  8
Shape2DView001
100
AcDbCircle
 10
6756.56
 20
-807.762
 30
0
 40
646.774
100
AcDbArc
 50
-109.41
 51
-93.6146
  0
ARC
  5
A9F
330
A02
100
AcDbEntity
  8
Shape2DView001
100
AcDbCircle
 10
6756.56
 20
-807.762
 30
0
 40
646.774
100
AcDbArc
 50
-92.8161
 51
-87.9422
  0
ARC
  5
AA0
330
A02
100
AcDbEntity
  8
Shape2DView001
100
AcDbCircle
 10
6756.56
 20
-807.762
 30
0
 40
646.774
100
AcDbArc
 50
-87.1442
 51
-71.3102
  0
LINE
  5
AA1
330
A02
100
AcDbEntity
  8
Shape2DView001
100
AcDbLine
 10
6966.31
 20
-1428.03
 30
0
 11
6963.81
 21
-1420.43
 31
0
  0
ARC
  5
AA2
330
A02
100
AcDbEntity
  8
Shape2DView001
100
AcDbCircle
 10
6756.37
 20
-837.762
 30
0
 40
626.49
100
AcDbArc
 50
-110.29
 51
-93.715
  0
ARC
  5
AA3
330
A02
100
AcDbEntity
  8
Shape2DView001
100
AcDbCircle
 10
6756.37
 20
-837.762
 30
0
 40
626.49
100
AcDbArc
 50
-92.8905
 51
-87.8587
  0
ARC
  5
AA4
330
A02
100
AcDbEntity
  8
Shape2DView001
100
AcDbCircle
 10
6756.37
 20
-837.762
 30
0
 40
626.49
100
AcDbArc
 50
-87.0348
 51
-70.4212
  0
LINE
  5
AA5
330
A02
100
AcDbEntity
  8
Shape2DView001
100
AcDbLine
 10
6623.88
 20
-1450.08
 30
0
 11
6622.38
 21
-1457.94
 31
0
  0
ARC
  5
AA6
330
A02
100
AcDbEntity
  8
Shape2DView001
100
AcDbCircle
 10
6756.37
 20
-837.762
 30
0
 40
626.49
100
AcDbArc
 50
-102.209
 51
-93.715
  0
ARC
  5
AA7
330
A02
100
AcDbEntity
  8
Shape2DView001
100
AcDbCircle
 10
6756.37
 20
-837.762
 30
0
 40
626.49
100
AcDbArc
 50
-92.8905
 51
-87.8587
  0
ARC
  5
AA8
330
A02
100
AcDbEntity
  8
Shape2DView001
100
AcDbCircle
 10
6756.37
 20
-837.762
 30
0
 40
626.49
100
AcDbArc
 50
-87.0348
 51
-78.5261
  0
LINE
  5
AA9
330
A02
100
AcDbEntity
  8
Shape2DView001
100
AcDbLine
 10
6881
 20
-1451.73
 30
0
 11
6882.5
 21
-1459.59
 31
0
  0
ARC
  5
AAA
330
A02
100
AcDbEntity
  8
Shape2DView001
100
AcDbCircle
 10
6756.19
 20
-867.762
 30
0
 40
605.156
100
AcDbArc
 50
-102.774
 51
-93.8285
  0
ARC
  5
AAB
330
A02
100
AcDbEntity
  8
Shape2DView001
100
AcDbCircle
 10
6756.19
 20
-867.762
 30
0
 40
605.156
100
AcDbArc
 50
-92.9749
 51
-87.7656
  0
ARC
  5
AAC
330
A02
100
AcDbEntity
  8
Shape2DView001
100
AcDbCircle
 10
6756.19
 20
-867.762
 30
0
 40
605.156
100
AcDbArc
 50
-86.9126
 51
-77.9527
  0
SPLINE
  5
AAD
330
A02
100
AcDbEntity
  8
Shape2DView001
100
AcDbSpline
210
0
220
0
230
1
 70
8
 71
1
 72
17
 73
15
 74
0
 40
0
 40
0
 40
0.1122
 40
0.224399
 40
0.336599
 40
0.448799
 40
0.560999
 40
0.673198
 40
0.785398
 40
0.897598
 40
1.0098
 40
1.122
 40
1.2342
 40
1.3464
 40
1.4586
 40
1.5708
 40
1.5708
 10
6720.28
 20
-1527.65
 30
0
 10
6720.79
 20
-1527.65
 30
0
 10
6721.28
 20
-1527.65
 30
0
 10
6721.77
 20
-1527.65
 30
0
 10
6722.23
 20
-1527.65
 30
0
 10
6722.68
 20
-1527.65
 30
0
 10
6723.09
 20
-1527.65
 30
0
 10
6723.46
 20
-1527.65
 30
0
 10
6723.8
 20
-1527.65
 30
0
 10
6724.09
 20
-1527.65
 30
0
 10
6724.34
 20
-1527.65
 30
0
 10
6724.53
 20
-1527.65
 30
0
 10
6724.67
 20
-1527.65
 30
0
 10
6724.75
 20
-1527.65
 30
0
 10
6724.78
 20
-1527.65
 30
0
  0
SPLINE
  5
AAE
330
A02
100
AcDbEntity
  8
Shape2DView001
100
AcDbSpline
210
0
220
0
230
1
 70
8
 71
2
 72
30
 73
27
 74
0
 40
4.71239
 40
4.71239
 40
4.71239
 40
4.82459
 40
4.82459
 40
4.93679
 40
4.93679
 40
5.04899
 40
5.04899
 40
5.16119
 40
5.16119
 40
5.27339
 40
5.27339
 40
5.38559
 40
5.38559
 40
5.49779
 40
5.49779
 40
5.60999
 40
5.60999
 40
5.72219
 40
5.72219
 40
5.83439
 40
5.83439
 40
5.94659
 40
5.94659
 40
6.05879
 40
6.05879
 40
6.28319
 40
6.28319
 40
6.28319
 10
6715.78
 20
-1527.65
 30
0
 10
6715.8
 20
-1527.65
 30
0
 10
6715.81
 20
-1527.65
 30
0
 10
6715.85
 20
-1527.65
 30
0
 10
6715.9
 20
-1527.65
 30
0
 10
6715.97
 20
-1527.65
 30
0
 10
6716.03
 20
-1527.65
 30
0
 10
6716.13
 20
-1527.65
 30
0
 10
6716.23
 20
-1527.65
 30
0
 10
6716.35
 20
-1527.65
 30
0
 10
6716.47
 20
-1527.65
 30
0
 10
6716.62
 20
-1527.65
 30
0
 10
6716.76
 20
-1527.65
 30
0
 10
6716.93
 20
-1527.65
 30
0
 10
6717.1
 20
-1527.65
 30
0
 10
6717.29
 20
-1527.65
 30
0
 10
6717.48
 20
-1527.65
 30
0
 10
6717.68
 20
-1527.65
 30
0
 10
6717.89
 20
-1527.65
 30
0
 10
6718.11
 20
-1527.65
 30
0
 10
6718.33
 20
-1527.65
 30
0
 10
6718.56
 20
-1527.65
 30
0
 10
6718.8
 20
-1527.65
 30
0
 10
6719.04
 20
-1527.65
 30
0
 10
6719.28
 20
-1527.65
 30
0
 10
6719.78
 20
-1527.65
 30
0
 10
6720.28
 20
-1527.65
 30
0
  0
SPLINE
  5
AAF
330
A02
100
AcDbEntity
  8
Shape2DView001
100
AcDbSpline
210
0
220
0
230
1
 70
8
 71
1
 72
17
 73
15
 74
0
 40
0
 40
0
 40
0.1122
 40
0.224399
 40
0.336599
 40
0.448799
 40
0.560999
 40
0.673198
 40
0.785398
 40
0.897598
 40
1.0098
 40
1.122
 40
1.2342
 40
1.3464
 40
1.4586
 40
1.5708
 40
1.5708
 10
6784.28
 20
-1527.65
 30
0
 10
6783.78
 20
-1527.65
 30
0
 10
6783.28
 20
-1527.65
 30
0
 10
6782.8
 20
-1527.65
 30
0
 10
6782.33
 20
-1527.65
 30
0
 10
6781.89
 20
-1527.65
 30
0
 10
6781.48
 20
-1527.65
 30
0
 10
6781.1
 20
-1527.65
 30
0
 10
6780.76
 20
-1527.65
 30
0
 10
6780.47
 20
-1527.65
 30
0
 10
6780.23
 20
-1527.65
 30
0
 10
6780.03
 20
-1527.65
 30
0
 10
6779.9
 20
-1527.65
 30
0
 10
6779.81
 20
-1527.65
 30
0
 10
6779.78
 20
-1527.65
 30
0
  0
SPLINE
  5
AB0
330
A02
100
AcDbEntity
  8
Shape2DView001
100
AcDbSpline
210
0
220
0
230
1
 70
8
 71
2
 72
30
 73
27
 74
0
 40
4.71239
 40
4.71239
 40
4.71239
 40
4.82459
 40
4.82459
 40
4.93679
 40
4.93679
 40
5.04899
 40
5.04899
 40
5.16119
 40
5.16119
 40
5.27339
 40
5.27339
 40
5.38559
 40
5.38559
 40
5.49779
 40
5.49779
 40
5.60999
 40
5.60999
 40
5.72219
 40
5.72219
 40
5.83439
 40
5.83439
 40
5.94659
 40
5.94659
 40
6.05879
 40
6.05879
 40
6.28319
 40
6.28319
 40
6.28319
 10
6788.78
 20
-1527.65
 30
0
 10
6788.77
 20
-1527.65
 30
0
 10
6788.75
 20
-1527.65
 30
0
 10
6788.71
 20
-1527.65
 30
0
 10
6788.67
 20
-1527.65
 30
0
 10
6788.6
 20
-1527.65
 30
0
 10
6788.53
 20
-1527.65
 30
0
 10
6788.43
 20
-1527.65
 30
0
 10
6788.34
 20
-1527.65
 30
0
 10
6788.21
 20
-1527.65
 30
0
 10
6788.09
 20
-1527.65
 30
0
 10
6787.95
 20
-1527.65
 30
0
 10
6787.8
 20
-1527.65
 30
0
 10
6787.63
 20
-1527.65
 30
0
 10
6787.46
 20
-1527.65
 30
0
 10
6787.28
 20
-1527.65
 30
0
 10
6787.09
 20
-1527.65
 30
0
 10
6786.88
 20
-1527.65
 30
0
 10
6786.68
 20
-1527.65
 30
0
 10
6786.46
 20
-1527.65
 30
0
 10
6786.23
 20
-1527.65
 30
0
 10
6786
 20
-1527.65
 30
0
 10
6785.77
 20
-1527.65
 30
0
 10
6785.53
 20
-1527.65
 30
0
 10
6785.28
 20
-1527.65
 30
0
 10
6784.79
 20
-1527.65
 30
0
 10
6784.28
 20
-1527.65
 30
0
  0
LINE
  5
AB1
330
A02
100
AcDbEntity
  8
Shape2DView001
100
AcDbLine
 10
6728.11
 20
-1482.32
 30
0
 11
6728.11
 21
-1492.32
 31
0
  0
LINE
  5
AB2
330
A02
100
AcDbEntity
  8
Shape2DView001
100
AcDbLine
 10
6724.2
 20
-1482.32
 30
0
 11
6724.2
 21
-1492.32
 31
0
  0
LINE
  5
AB3
330
A02
100
AcDbEntity
  8
Shape2DView001
100
AcDbLine
 10
6728.11
 20
-1492.32
 30
0
 11
6724.2
 21
-1492.32
 31
0
  0
LINE
  5
AB4
330
A02
100
AcDbEntity
  8
Shape2DView001
100
AcDbLine
 10
6716.37
 20
-1482.32
 30
0
 11
6716.37
 21
-1492.32
 31
0
  0
LINE
  5
AB5
330
A02
100
AcDbEntity
  8
Shape2DView001
100
AcDbLine
 10
6724.2
 20
-1492.32
 30
0
 11
6716.37
 21
-1492.32
 31
0
  0
LINE
  5
AB6
330
A02
100
AcDbEntity
  8
Shape2DView001
100
AcDbLine
 10
6712.45
 20
-1482.32
 30
0
 11
6712.45
 21
-1492.32
 31
0
  0
LINE
  5
AB7
330
A02
100
AcDbEntity
  8
Shape2DView001
100
AcDbLine
 10
6716.37
 20
-1492.32
 30
0
 11
6712.45
 21
-1492.32
 31
0
  0
LINE
  5
AB8
330
A02
100
AcDbEntity
  8
Shape2DView001
100
AcDbLine
 10
6792.11
 20
-1482.32
 30
0
 11
6792.11
 21
-1492.32
 31
0
  0
LINE
  5
AB9
330
A02
100
AcDbEntity
  8
Shape2DView001
100
AcDbLine
 10
6788.2
 20
-1482.32
 30
0
 11
6788.2
 21
-1492.32
 31
0
  0
LINE
  5
ABA
330
A02
100
AcDbEntity
  8
Shape2DView001
100
AcDbLine
 10
6792.11
 20
-1492.32
 30
0
 11
6788.2
 21
-1492.32
 31
0
  0
LINE
  5
ABB
330
A02
100
AcDbEntity
  8
Shape2DView001
100
AcDbLine
 10
6780.37
 20
-1482.32
 30
0
 11
6780.37
 21
-1492.32
 31
0
  0
LINE
  5
ABC
330
A02
100
AcDbEntity
  8
Shape2DView001
100
AcDbLine
 10
6788.2
 20
-1492.32
 30
0
 11
6780.37
 21
-1492.32
 31
0
  0
LINE
  5
ABD
330
A02
100
AcDbEntity
  8
Shape2DView001
100
AcDbLine
 10
6776.45
 20
-1482.32
 30
0
 11
6776.45
 21
-1492.32
 31
0
  0
LINE
  5
ABE
330
A02
100
AcDbEntity
  8
Shape2DView001
100
AcDbLine
 10
6780.37
 20
-1492.32
 30
0
 11
6776.45
 21
-1492.32
 31
0
  0
LINE
  5
ABF
330
A02
100
AcDbEntity
  8
Shape2DView001
100
AcDbLine
 10
6797.28
 20
-1482.32
 30
0
 11
6797.28
 21
-1473.32
 31
0
  0
LINE
  5
AC0
330
A02
100
AcDbEntity
  8
Shape2DView001
100
AcDbLine
 10
6707.28
 20
-1482.32
 30
0
 11
6707.28
 21
-1473.32
 31
0
  0
LINE
  5
AC1
330
A02
100
AcDbEntity
  8
Shape2DView001
100
AcDbLine
 10
6797.28
 20
-1482.32
 30
0
 11
6707.28
 21
-1482.32
 31
0
  0
LINE
  5
AC2
330
A02
100
AcDbEntity
  8
Shape2DView001
100
AcDbLine
 10
6797.28
 20
-1473.32
 30
0
 11
6707.28
 21
-1473.32
 31
0
  0
ARC
  5
AC3
330
A02
100
AcDbEntity
  8
Shape2DView001
100
AcDbCircle
 10
5795.72
 20
-773.762
 30
0
 40
658.684
100
AcDbArc
 50
-119.01
 51
-93.5532
  0
ARC
  5
AC4
330
A02
100
AcDbEntity
  8
Shape2DView001
100
AcDbCircle
 10
5795.72
 20
-773.762
 30
0
 40
658.684
100
AcDbArc
 50
-92.7691
 51
-87.9835
  0
ARC
  5
AC5
330
A02
100
AcDbEntity
  8
Shape2DView001
100
AcDbCircle
 10
5795.72
 20
-773.762
 30
0
 40
658.684
100
AcDbArc
 50
-87.1999
 51
-58.528
  0
ARC
  5
AC6
330
A02
100
AcDbEntity
  8
Shape2DView001
100
AcDbCircle
 10
5795.72
 20
-799.762
 30
0
 40
645.906
100
AcDbArc
 50
-120.736
 51
-93.6236
  0
ARC
  5
AC7
330
A02
100
AcDbEntity
  8
Shape2DView001
100
AcDbCircle
 10
5795.72
 20
-799.762
 30
0
 40
645.906
100
AcDbArc
 50
-92.824
 51
-87.9435
  0
ARC
  5
AC8
330
A02
100
AcDbEntity
  8
Shape2DView001
100
AcDbCircle
 10
5795.72
 20
-799.762
 30
0
 40
645.906
100
AcDbArc
 50
-87.1444
 51
-57.317
  0
ARC
  5
AC9
330
A02
100
AcDbEntity
  8
Shape2DView001
100
AcDbCircle
 10
5795.72
 20
-799.762
 30
0
 40
645.906
100
AcDbArc
 50
-117.156
 51
-93.6236
  0
ARC
  5
ACA
330
A02
100
AcDbEntity
  8
Shape2DView001
100
AcDbCircle
 10
5795.72
 20
-799.762
 30
0
 40
645.906
100
AcDbArc
 50
-92.824
 51
-87.9435
  0
ARC
  5
ACB
330
A02
100
AcDbEntity
  8
Shape2DView001
100
AcDbCircle
 10
5795.72
 20
-799.762
 30
0
 40
645.906
100
AcDbArc
 50
-87.1444
 51
-63.5337
  0
LINE
  5
ACC
330
A02
100
AcDbEntity
  8
Shape2DView001
100
AcDbLine
 10
5500.92
 20
-1374.47
 30
0
 11
5497.42
 21
-1381.66
 31
0
  0
ARC
  5
ACD
330
A02
100
AcDbEntity
  8
Shape2DView001
100
AcDbCircle
 10
5795.68
 20
-807.762
 30
0
 40
646.774
100
AcDbArc
 50
-117.461
 51
-93.6146
  0
ARC
  5
ACE
330
A02
100
AcDbEntity
  8
Shape2DView001
100
AcDbCircle
 10
5795.68
 20
-807.762
 30
0
 40
646.774
100
AcDbArc
 50
-92.8161
 51
-87.9422
  0
ARC
  5
ACF
330
A02
100
AcDbEntity
  8
Shape2DView001
100
AcDbCircle
 10
5795.68
 20
-807.762
 30
0
 40
646.774
100
AcDbArc
 50
-87.1442
 51
-63.2206
  0
LINE
  5
AD0
330
A02
100
AcDbEntity
  8
Shape2DView001
100
AcDbLine
 10
6083.59
 20
-1377.97
 30
0
 11
6087.09
 21
-1385.17
 31
0
  0
LINE
  5
AD1
330
A02
100
AcDbEntity
  8
Shape2DView001
100
AcDbLine
 10
5578.24
 20
-1425.38
 30
0
 11
5580.74
 21
-1417.78
 31
0
  0
ARC
  5
AD2
330
A02
100
AcDbEntity
  8
Shape2DView001
100
AcDbCircle
 10
5795.68
 20
-807.762
 30
0
 40
646.774
100
AcDbArc
 50
-109.41
 51
-93.6146
  0
ARC
  5
AD3
330
A02
100
AcDbEntity
  8
Shape2DView001
100
AcDbCircle
 10
5795.68
 20
-807.762
 30
0
 40
646.774
100
AcDbArc
 50
-92.8161
 51
-87.9422
  0
ARC
  5
AD4
330
A02
100
AcDbEntity
  8
Shape2DView001
100
AcDbCircle
 10
5795.68
 20
-807.762
 30
0
 40
646.774
100
AcDbArc
 50
-87.1442
 51
-71.3102
  0
LINE
  5
AD5
330
A02
100
AcDbEntity
  8
Shape2DView001
100
AcDbLine
 10
6005.43
 20
-1428.03
 30
0
 11
6002.93
 21
-1420.43
 31
0
  0
ARC
  5
AD6
330
A02
100
AcDbEntity
  8
Shape2DView001
100
AcDbCircle
 10
5795.49
 20
-837.762
 30
0
 40
626.49
100
AcDbArc
 50
-110.29
 51
-93.715
  0
ARC
  5
AD7
330
A02
100
AcDbEntity
  8
Shape2DView001
100
AcDbCircle
 10
5795.49
 20
-837.762
 30
0
 40
626.49
100
AcDbArc
 50
-92.8905
 51
-87.8587
  0
ARC
  5
AD8
330
A02
100
AcDbEntity
  8
Shape2DView001
100
AcDbCircle
 10
5795.49
 20
-837.762
 30
0
 40
626.49
100
AcDbArc
 50
-87.0348
 51
-70.4212
  0
LINE
  5
AD9
330
A02
100
AcDbEntity
  8
Shape2DView001
100
AcDbLine
 10
5663
 20
-1450.08
 30
0
 11
5661.5
 21
-1457.94
 31
0
  0
ARC
  5
ADA
330
A02
100
AcDbEntity
  8
Shape2DView001
100
AcDbCircle
 10
5795.49
 20
-837.762
 30
0
 40
626.49
100
AcDbArc
 50
-102.209
 51
-93.715
  0
ARC
  5
ADB
330
A02
100
AcDbEntity
  8
Shape2DView001
100
AcDbCircle
 10
5795.49
 20
-837.762
 30
0
 40
626.49
100
AcDbArc
 50
-92.8905
 51
-87.8587
  0
ARC
  5
ADC
330
A02
100
AcDbEntity
  8
Shape2DView001
100
AcDbCircle
 10
5795.49
 20
-837.762
 30
0
 40
626.49
100
AcDbArc
 50
-87.0348
 51
-78.5261
  0
LINE
  5
ADD
330
A02
100
AcDbEntity
  8
Shape2DView001
100
AcDbLine
 10
5920.12
 20
-1451.73
 30
0
 11
5921.62
 21
-1459.59
 31
0
  0
ARC
  5
ADE
330
A02
100
AcDbEntity
  8
Shape2DView001
100
AcDbCircle
 10
5795.31
 20
-867.762
 30
0
 40
605.156
100
AcDbArc
 50
-102.774
 51
-93.8285
  0
ARC
  5
ADF
330
A02
100
AcDbEntity
  8
Shape2DView001
100
AcDbCircle
 10
5795.31
 20
-867.762
 30
0
 40
605.156
100
AcDbArc
 50
-92.9749
 51
-87.7656
  0
ARC
  5
AE0
330
A02
100
AcDbEntity
  8
Shape2DView001
100
AcDbCircle
 10
5795.31
 20
-867.762
 30
0
 40
605.156
100
AcDbArc
 50
-86.9126
 51
-77.9527
  0
SPLINE
  5
AE1
330
A02
100
AcDbEntity
  8
Shape2DView001
100
AcDbSpline
210
0
220
0
230
1
 70
8
 71
1
 72
17
 73
15
 74
0
 40
0
 40
0
 40
0.1122
 40
0.224399
 40
0.336599
 40
0.448799
 40
0.560999
 40
0.673198
 40
0.785398
 40
0.897598
 40
1.0098
 40
1.122
 40
1.2342
 40
1.3464
 40
1.4586
 40
1.5708
 40
1.5708
 10
5759.4
 20
-1527.65
 30
0
 10
5759.91
 20
-1527.65
 30
0
 10
5760.4
 20
-1527.65
 30
0
 10
5760.89
 20
-1527.65
 30
0
 10
5761.36
 20
-1527.65
 30
0
 10
5761.8
 20
-1527.65
 30
0
 10
5762.21
 20
-1527.65
 30
0
 10
5762.58
 20
-1527.65
 30
0
 10
5762.92
 20
-1527.65
 30
0
 10
5763.21
 20
-1527.65
 30
0
 10
5763.46
 20
-1527.65
 30
0
 10
5763.65
 20
-1527.65
 30
0
 10
5763.79
 20
-1527.65
 30
0
 10
5763.87
 20
-1527.65
 30
0
 10
5763.9
 20
-1527.65
 30
0
  0
SPLINE
  5
AE2
330
A02
100
AcDbEntity
  8
Shape2DView001
100
AcDbSpline
210
0
220
0
230
1
 70
8
 71
2
 72
30
 73
27
 74
0
 40
4.71239
 40
4.71239
 40
4.71239
 40
4.82459
 40
4.82459
 40
4.93679
 40
4.93679
 40
5.04899
 40
5.04899
 40
5.16119
 40
5.16119
 40
5.27339
 40
5.27339
 40
5.38559
 40
5.38559
 40
5.49779
 40
5.49779
 40
5.60999
 40
5.60999
 40
5.72219
 40
5.72219
 40
5.83439
 40
5.83439
 40
5.94659
 40
5.94659
 40
6.05879
 40
6.05879
 40
6.28319
 40
6.28319
 40
6.28319
 10
5754.9
 20
-1527.65
 30
0
 10
5754.92
 20
-1527.65
 30
0
 10
5754.93
 20
-1527.65
 30
0
 10
5754.97
 20
-1527.65
 30
0
 10
5755.02
 20
-1527.65
 30
0
 10
5755.09
 20
-1527.65
 30
0
 10
5755.16
 20
-1527.65
 30
0
 10
5755.25
 20
-1527.65
 30
0
 10
5755.35
 20
-1527.65
 30
0
 10
5755.47
 20
-1527.65
 30
0
 10
5755.59
 20
-1527.65
 30
0
 10
5755.74
 20
-1527.65
 30
0
 10
5755.88
 20
-1527.65
 30
0
 10
5756.05
 20
-1527.65
 30
0
 10
5756.22
 20
-1527.65
 30
0
 10
5756.41
 20
-1527.65
 30
0
 10
5756.6
 20
-1527.65
 30
0
 10
5756.8
 20
-1527.65
 30
0
 10
5757.01
 20
-1527.65
 30
0
 10
5757.23
 20
-1527.65
 30
0
 10
5757.45
 20
-1527.65
 30
0
 10
5757.68
 20
-1527.65
 30
0
 10
5757.92
 20
-1527.65
 30
0
 10
5758.16
 20
-1527.65
 30
0
 10
5758.4
 20
-1527.65
 30
0
 10
5758.9
 20
-1527.65
 30
0
 10
5759.4
 20
-1527.65
 30
0
  0
SPLINE
  5
AE3
330
A02
100
AcDbEntity
  8
Shape2DView001
100
AcDbSpline
210
0
220
0
230
1
 70
8
 71
1
 72
17
 73
15
 74
0
 40
0
 40
0
 40
0.1122
 40
0.224399
 40
0.336599
 40
0.448799
 40
0.560999
 40
0.673198
 40
0.785398
 40
0.897598
 40
1.0098
 40
1.122
 40
1.2342
 40
1.3464
 40
1.4586
 40
1.5708
 40
1.5708
 10
5823.4
 20
-1527.65
 30
0
 10
5822.9
 20
-1527.65
 30
0
 10
5822.4
 20
-1527.65
 30
0
 10
5821.92
 20
-1527.65
 30
0
 10
5821.45
 20
-1527.65
 30
0
 10
5821.01
 20
-1527.65
 30
0
 10
5820.6
 20
-1527.65
 30
0
 10
5820.22
 20
-1527.65
 30
0
 10
5819.88
 20
-1527.65
 30
0
 10
5819.59
 20
-1527.65
 30
0
 10
5819.35
 20
-1527.65
 30
0
 10
5819.16
 20
-1527.65
 30
0
 10
5819.02
 20
-1527.65
 30
0
 10
5818.93
 20
-1527.65
 30
0
 10
5818.9
 20
-1527.65
 30
0
  0
SPLINE
  5
AE4
330
A02
100
AcDbEntity
  8
Shape2DView001
100
AcDbSpline
210
0
220
0
230
1
 70
8
 71
2
 72
30
 73
27
 74
0
 40
4.71239
 40
4.71239
 40
4.71239
 40
4.82459
 40
4.82459
 40
4.93679
 40
4.93679
 40
5.04899
 40
5.04899
 40
5.16119
 40
5.16119
 40
5.27339
 40
5.27339
 40
5.38559
 40
5.38559
 40
5.49779
 40
5.49779
 40
5.60999
 40
5.60999
 40
5.72219
 40
5.72219
 40
5.83439
 40
5.83439
 40
5.94659
 40
5.94659
 40
6.05879
 40
6.05879
 40
6.28319
 40
6.28319
 40
6.28319
 10
5827.9
 20
-1527.65
 30
0
 10
5827.89
 20
-1527.65
 30
0
 10
5827.87
 20
-1527.65
 30
0
 10
5827.83
 20
-1527.65
 30
0
 10
5827.79
 20
-1527.65
 30
0
 10
5827.72
 20
-1527.65
 30
0
 10
5827.65
 20
-1527.65
 30
0
 10
5827.55
 20
-1527.65
 30
0
 10
5827.46
 20
-1527.65
 30
0
 10
5827.33
 20
-1527.65
 30
0
 10
5827.21
 20
-1527.65
 30
0
 10
5827.07
 20
-1527.65
 30
0
 10
5826.92
 20
-1527.65
 30
0
 10
5826.75
 20
-1527.65
 30
0
 10
5826.58
 20
-1527.65
 30
0
 10
5826.4
 20
-1527.65
 30
0
 10
5826.21
 20
-1527.65
 30
0
 10
5826
 20
-1527.65
 30
0
 10
5825.8
 20
-1527.65
 30
0
 10
5825.58
 20
-1527.65
 30
0
 10
5825.36
 20
-1527.65
 30
0
 10
5825.12
 20
-1527.65
 30
0
 10
5824.89
 20
-1527.65
 30
0
 10
5824.65
 20
-1527.65
 30
0
 10
5824.4
 20
-1527.65
 30
0
 10
5823.91
 20
-1527.65
 30
0
 10
5823.4
 20
-1527.65
 30
0
  0
LINE
  5
AE5
330
A02
100
AcDbEntity
  8
Shape2DView001
100
AcDbLine
 10
5767.23
 20
-1482.32
 30
0
 11
5767.23
 21
-1492.32
 31
0
  0
LINE
  5
AE6
330
A02
100
AcDbEntity
  8
Shape2DView001
100
AcDbLine
 10
5763.32
 20
-1482.32
 30
0
 11
5763.32
 21
-1492.32
 31
0
  0
LINE
  5
AE7
330
A02
100
AcDbEntity
  8
Shape2DView001
100
AcDbLine
 10
5767.23
 20
-1492.32
 30
0
 11
5763.32
 21
-1492.32
 31
0
  0
LINE
  5
AE8
330
A02
100
AcDbEntity
  8
Shape2DView001
100
AcDbLine
 10
5755.49
 20
-1482.32
 30
0
 11
5755.49
 21
-1492.32
 31
0
  0
LINE
  5
AE9
330
A02
100
AcDbEntity
  8
Shape2DView001
100
AcDbLine
 10
5763.32
 20
-1492.32
 30
0
 11
5755.49
 21
-1492.32
 31
0
  0
LINE
  5
AEA
330
A02
100
AcDbEntity
  8
Shape2DView001
100
AcDbLine
 10
5751.57
 20
-1482.32
 30
0
 11
5751.57
 21
-1492.32
 31
0
  0
LINE
  5
AEB
330
A02
100
AcDbEntity
  8
Shape2DView001
100
AcDbLine
 10
5755.49
 20
-1492.32
 30
0
 11
5751.57
 21
-1492.32
 31
0
  0
LINE
  5
AEC
330
A02
100
AcDbEntity
  8
Shape2DView001
100
AcDbLine
 10
5831.23
 20
-1482.32
 30
0
 11
5831.23
 21
-1492.32
 31
0
  0
LINE
  5
AED
330
A02
100
AcDbEntity
  8
Shape2DView001
100
AcDbLine
 10
5827.32
 20
-1482.32
 30
0
 11
5827.32
 21
-1492.32
 31
0
  0
LINE
  5
AEE
330
A02
100
AcDbEntity
  8
Shape2DView001
100
AcDbLine
 10
5831.23
 20
-1492.32
 30
0
 11
5827.32
 21
-1492.32
 31
0
  0
LINE
  5
AEF
330
A02
100
AcDbEntity
  8
Shape2DView001
100
AcDbLine
 10
5819.49
 20
-1482.32
 30
0
 11
5819.49
 21
-1492.32
 31
0
  0
LINE
  5
AF0
330
A02
100
AcDbEntity
  8
Shape2DView001
100
AcDbLine
 10
5827.32
 20
-1492.32
 30
0
 11
5819.49
 21
-1492.32
 31
0
  0
LINE
  5
AF1
330
A02
100
AcDbEntity
  8
Shape2DView001
100
AcDbLine
 10
5815.57
 20
-1482.32
 30
0
 11
5815.57
 21
-1492.32
 31
0
  0
LINE
  5
AF2
330
A02
100
AcDbEntity
  8
Shape2DView001
100
AcDbLine
 10
5819.49
 20
-1492.32
 30
0
 11
5815.57
 21
-1492.32
 31
0
  0
LINE
  5
AF3
330
A02
100
AcDbEntity
  8
Shape2DView001
100
AcDbLine
 10
5836.4
 20
-1482.32
 30
0
 11
5836.4
 21
-1473.32
 31
0
  0
LINE
  5
AF4
330
A02
100
AcDbEntity
  8
Shape2DView001
100
AcDbLine
 10
5746.4
 20
-1482.32
 30
0
 11
5746.4
 21
-1473.32
 31
0
  0
LINE
  5
AF5
330
A02
100
AcDbEntity
  8
Shape2DView001
100
AcDbLine
 10
5836.4
 20
-1482.32
 30
0
 11
5746.4
 21
-1482.32
 31
0
  0
LINE
  5
AF6
330
A02
100
AcDbEntity
  8
Shape2DView001
100
AcDbLine
 10
5836.4
 20
-1473.32
 30
0
 11
5746.4
 21
-1473.32
 31
0
  0
LINE
  5
AF7
330
A02
100
AcDbEntity
  8
Shape2DView001
100
AcDbLine
 10
6216.98
 20
-1204.94
 30
0
 11
6326.71
 21
-1204.94
 31
0
  0
LINE
  5
AF8
330
A02
100
AcDbEntity
  8
Shape2DView001
100
AcDbLine
 10
6326.71
 20
-1204.94
 30
0
 11
6326.71
 21
-1274.94
 31
0
  0
LINE
  5
AF9
330
A02
100
AcDbEntity
  8
Shape2DView001
100
AcDbLine
 10
6326.71
 20
-1274.94
 30
0
 11
6216.98
 21
-1274.94
 31
0
  0
LINE
  5
AFA
330
A02
100
AcDbEntity
  8
Shape2DView001
100
AcDbLine
 10
6216.98
 20
-1274.94
 30
0
 11
6216.98
 21
-1204.94
 31
0
  0
LINE
  5
AFB
330
A02
100
AcDbEntity
  8
Shape2DView001
100
AcDbLine
 10
7057.54
 20
-1204.94
 30
0
 11
7167.27
 21
-1204.94
 31
0
  0
LINE
  5
AFC
330
A02
100
AcDbEntity
  8
Shape2DView001
100
AcDbLine
 10
7167.27
 20
-1204.94
 30
0
 11
7167.27
 21
-1274.94
 31
0
  0
LINE
  5
AFD
330
A02
100
AcDbEntity
  8
Shape2DView001
100
AcDbLine
 10
7167.27
 20
-1274.94
 30
0
 11
7057.54
 21
-1274.94
 31
0
  0
LINE
  5
AFE
330
A02
100
AcDbEntity
  8
Shape2DView001
100
AcDbLine
 10
7057.54
 20
-1274.94
 30
0
 11
7057.54
 21
-1204.94
 31
0
  0
LINE
  5
AFF
330
A02
100
AcDbEntity
  8
Shape2DView001
100
AcDbLine
 10
5376.42
 20
-1204.94
 30
0
 11
5486.15
 21
-1204.94
 31
0
  0
LINE
  5
B00
330
A02
100
AcDbEntity
  8
Shape2DView001
100
AcDbLine
 10
5486.15
 20
-1204.94
 30
0
 11
5486.15
 21
-1274.94
 31
0
  0
LINE
  5
B01
330
A02
100
AcDbEntity
  8
Shape2DView001
100
AcDbLine
 10
5486.15
 20
-1274.94
 30
0
 11
5376.42
 21
-1274.94
 31
0
  0
LINE
  5
B02
330
A02
100
AcDbEntity
  8
Shape2DView001
100
AcDbLine
 10
5376.42
 20
-1274.94
 30
0
 11
5376.42
 21
-1204.94
 31
0
  0
ARC
  5
B03
330
A02
100
AcDbEntity
  8
Shape2DView001
100
AcDbCircle
 10
6022.92
 20
-1238.84
 30
0
 40
240.812
100
AcDbArc
 50
-45.2893
 51
-44.5143
  0
ARC
  5
B04
330
A02
100
AcDbEntity
  8
Shape2DView001
100
AcDbCircle
 10
6022.92
 20
-1238.84
 30
0
 40
240.812
100
AcDbArc
 50
-33.7583
 51
-28.823
  0
ARC
  5
B05
330
A02
100
AcDbEntity
  8
Shape2DView001
100
AcDbCircle
 10
6520.76
 20
-1238.84
 30
0
 40
240.812
100
AcDbArc
 50
-151.177
 51
-145.792
  0
ARC
  5
B06
330
A02
100
AcDbEntity
  8
Shape2DView001
100
AcDbCircle
 10
6520.76
 20
-1238.84
 30
0
 40
240.812
100
AcDbArc
 50
-135.178
 51
-134.711
  0
LINE
  5
B07
330
A02
100
AcDbEntity
  8
Shape2DView001
100
AcDbLine
 10
6351.34
 20
-1409.98
 30
0
 11
6335.34
 21
-1437.69
 31
0
  0
ARC
  5
B08
330
A02
100
AcDbEntity
  8
Shape2DView001
100
AcDbCircle
 10
6271.84
 20
-1669.98
 30
0
 40
240.812
100
AcDbArc
 50
74.7107
 51
105.289
  0
LINE
  5
B09
330
A02
100
AcDbEntity
  8
Shape2DView001
100
AcDbLine
 10
6192.34
 20
-1409.98
 30
0
 11
6208.34
 21
-1437.69
 31
0
  0
LINE
  5
B0A
330
A02
100
AcDbEntity
  8
Shape2DView001
100
AcDbLine
 10
6379.36
 20
-1340.36
 30
0
 11
6396.72
 21
-1345.12
 31
0
  0
LINE
  5
B0B
330
A02
100
AcDbEntity
  8
Shape2DView001
100
AcDbLine
 10
6396.72
 20
-1345.12
 30
0
 11
6409.52
 21
-1332.47
 31
0
  0
LINE
  5
B0C
330
A02
100
AcDbEntity
  8
Shape2DView001
100
AcDbLine
 10
6409.52
 20
-1332.47
 30
0
 11
6404.96
 21
-1315.05
 31
0
  0
LINE
  5
B0D
330
A02
100
AcDbEntity
  8
Shape2DView001
100
AcDbLine
 10
6404.96
 20
-1315.05
 30
0
 11
6387.61
 21
-1310.29
 31
0
  0
LINE
  5
B0E
330
A02
100
AcDbEntity
  8
Shape2DView001
100
AcDbLine
 10
6387.61
 20
-1310.29
 30
0
 11
6374.8
 21
-1322.95
 31
0
  0
LINE
  5
B0F
330
A02
100
AcDbEntity
  8
Shape2DView001
100
AcDbLine
 10
6374.8
 20
-1322.95
 30
0
 11
6379.36
 21
-1340.36
 31
0
  0
CIRCLE
  5
B10
330
A02
100
AcDbEntity
  8
Shape2DView001
100
AcDbCircle
 10
6392.16
 20
-1327.71
 40
8
  0
LINE
  5
B11
330
A02
100
AcDbEntity
  8
Shape2DView001
100
AcDbLine
 10
6325
 20
-1392.89
 30
0
 11
6307.38
 21
-1396.53
 31
0
  0
LINE
  5
B12
330
A02
100
AcDbEntity
  8
Shape2DView001
100
AcDbLine
 10
6307.38
 20
-1396.53
 30
0
 11
6301.71
 21
-1413.62
 31
0
  0
LINE
  5
B13
330
A02
100
AcDbEntity
  8
Shape2DView001
100
AcDbLine
 10
6301.71
 20
-1413.62
 30
0
 11
6313.68
 21
-1427.07
 31
0
  0
LINE
  5
B14
330
A02
100
AcDbEntity
  8
Shape2DView001
100
AcDbLine
 10
6313.68
 20
-1427.07
 30
0
 11
6331.31
 21
-1423.43
 31
0
  0
LINE
  5
B15
330
A02
100
AcDbEntity
  8
Shape2DView001
100
AcDbLine
 10
6331.31
 20
-1423.43
 30
0
 11
6336.97
 21
-1406.34
 31
0
  0
LINE
  5
B16
330
A02
100
AcDbEntity
  8
Shape2DView001
100
AcDbLine
 10
6336.97
 20
-1406.34
 30
0
 11
6325
 21
-1392.89
 31
0
  0
CIRCLE
  5
B17
330
A02
100
AcDbEntity
  8
Shape2DView001
100
AcDbCircle
 10
6319.34
 20
-1409.98
 40
8
  0
LINE
  5
B18
330
A02
100
AcDbEntity
  8
Shape2DView001
100
AcDbLine
 10
6175.75
 20
-1336.71
 30
0
 11
6175.75
 21
-1318.71
 31
0
  0
LINE
  5
B19
330
A02
100
AcDbEntity
  8
Shape2DView001
100
AcDbLine
 10
6175.75
 20
-1318.71
 30
0
 11
6160.17
 21
-1309.71
 31
0
  0
LINE
  5
B1A
330
A02
100
AcDbEntity
  8
Shape2DView001
100
AcDbLine
 10
6160.17
 20
-1309.71
 30
0
 11
6144.58
 21
-1318.71
 31
0
  0
LINE
  5
B1B
330
A02
100
AcDbEntity
  8
Shape2DView001
100
AcDbLine
 10
6144.58
 20
-1318.71
 30
0
 11
6144.58
 21
-1336.71
 31
0
  0
LINE
  5
B1C
330
A02
100
AcDbEntity
  8
Shape2DView001
100
AcDbLine
 10
6144.58
 20
-1336.71
 30
0
 11
6160.17
 21
-1345.71
 31
0
  0
LINE
  5
B1D
330
A02
100
AcDbEntity
  8
Shape2DView001
100
AcDbLine
 10
6160.17
 20
-1345.71
 30
0
 11
6175.75
 21
-1336.71
 31
0
  0
CIRCLE
  5
B1E
330
A02
100
AcDbEntity
  8
Shape2DView001
100
AcDbCircle
 10
6160.17
 20
-1327.71
 40
8
  0
LINE
  5
B1F
330
A02
100
AcDbEntity
  8
Shape2DView001
100
AcDbLine
 10
6224.34
 20
-1391.98
 30
0
 11
6208.75
 21
-1400.98
 31
0
  0
LINE
  5
B20
330
A02
100
AcDbEntity
  8
Shape2DView001
100
AcDbLine
 10
6208.75
 20
-1400.98
 30
0
 11
6208.75
 21
-1418.98
 31
0
  0
LINE
  5
B21
330
A02
100
AcDbEntity
  8
Shape2DView001
100
AcDbLine
 10
6208.75
 20
-1418.98
 30
0
 11
6224.34
 21
-1427.98
 31
0
  0
LINE
  5
B22
330
A02
100
AcDbEntity
  8
Shape2DView001
100
AcDbLine
 10
6224.34
 20
-1427.98
 30
0
 11
6239.93
 21
-1418.98
 31
0
  0
LINE
  5
B23
330
A02
100
AcDbEntity
  8
Shape2DView001
100
AcDbLine
 10
6239.93
 20
-1418.98
 30
0
 11
6239.93
 21
-1400.98
 31
0
  0
LINE
  5
B24
330
A02
100
AcDbEntity
  8
Shape2DView001
100
AcDbLine
 10
6239.93
 20
-1400.98
 30
0
 11
6224.34
 21
-1391.98
 31
0
  0
CIRCLE
  5
B25
330
A02
100
AcDbEntity
  8
Shape2DView001
100
AcDbCircle
 10
6224.34
 20
-1409.98
 40
8
  0
CIRCLE
  5
B26
330
A02
100
AcDbEntity
  8
Shape2DView001
100
AcDbCircle
 10
6392.16
 20
-1327.71
 40
7
  0
CIRCLE
  5
B27
330
A02
100
AcDbEntity
  8
Shape2DView001
100
AcDbCircle
 10
6319.34
 20
-1409.98
 40
7
  0
CIRCLE
  5
B28
330
A02
100
AcDbEntity
  8
Shape2DView001
100
AcDbCircle
 10
6224.34
 20
-1409.98
 40
7
  0
CIRCLE
  5
B29
330
A02
100
AcDbEntity
  8
Shape2DView001
100
AcDbCircle
 10
6160.17
 20
-1327.71
 40
7
  0
ARC
  5
B2A
330
A02
100
AcDbEntity
  8
Shape2DView001
100
AcDbCircle
 10
6392.16
 20
-1327.71
 30
0
 40
22
100
AcDbArc
 50
-41.5126
 51
138.487
  0
LINE
  5
B2B
330
A02
100
AcDbEntity
  8
Shape2DView001
100
AcDbLine
 10
6375.69
 20
-1313.13
 30
0
 11
6302.87
 21
-1395.4
 31
0
  0
ARC
  5
B2C
330
A02
100
AcDbEntity
  8
Shape2DView001
100
AcDbCircle
 10
6319.34
 20
-1409.98
 30
0
 40
22
100
AcDbArc
 50
138.487
 51
-41.5126
  0
LINE
  5
B2D
330
A02
100
AcDbEntity
  8
Shape2DView001
100
AcDbLine
 10
6408.64
 20
-1342.29
 30
0
 11
6335.82
 21
-1424.56
 31
0
  0
ARC
  5
B2E
330
A02
100
AcDbEntity
  8
Shape2DView001
100
AcDbCircle
 10
6160.17
 20
-1327.71
 30
0
 40
22
100
AcDbArc
 50
37.956
 51
-142.044
  0
LINE
  5
B2F
330
A02
100
AcDbEntity
  8
Shape2DView001
100
AcDbLine
 10
6142.82
 20
-1341.24
 30
0
 11
6207
 21
-1423.51
 31
0
  0
ARC
  5
B30
330
A02
100
AcDbEntity
  8
Shape2DView001
100
AcDbCircle
 10
6224.34
 20
-1409.98
 30
0
 40
22
100
AcDbArc
 50
-142.044
 51
37.956
  0
LINE
  5
B31
330
A02
100
AcDbEntity
  8
Shape2DView001
100
AcDbLine
 10
6177.51
 20
-1314.18
 30
0
 11
6241.69
 21
-1396.45
 31
0
  0
LINE
  5
B32
330
A02
100
AcDbEntity
  8
Shape2DView001
100
AcDbLine
 10
6375.69
 20
-1313.13
 30
0
 11
6321.61
 21
-1374.23
 31
0
  0
LINE
  5
B33
330
A02
100
AcDbEntity
  8
Shape2DView001
100
AcDbLine
 10
6407.71
 20
-1343.33
 30
0
 11
6349.95
 21
-1408.59
 31
0
  0
LINE
  5
B34
330
A02
100
AcDbEntity
  8
Shape2DView001
100
AcDbLine
 10
6144.51
 20
-1343.4
 30
0
 11
6194.64
 21
-1407.67
 31
0
  0
LINE
  5
B35
330
A02
100
AcDbEntity
  8
Shape2DView001
100
AcDbLine
 10
6177.51
 20
-1314.18
 30
0
 11
6223.13
 21
-1372.66
 31
0
  0
LINE
  5
B36
330
A02
100
AcDbEntity
  8
Shape2DView001
100
AcDbLine
 10
6290.9
 20
-1316.71
 30
0
 11
6271.84
 21
-1305.71
 31
0
  0
LINE
  5
B37
330
A02
100
AcDbEntity
  8
Shape2DView001
100
AcDbLine
 10
6271.84
 20
-1305.71
 30
0
 11
6252.79
 21
-1316.71
 31
0
  0
LINE
  5
B38
330
A02
100
AcDbEntity
  8
Shape2DView001
100
AcDbLine
 10
6252.79
 20
-1316.71
 30
0
 11
6252.79
 21
-1338.71
 31
0
  0
LINE
  5
B39
330
A02
100
AcDbEntity
  8
Shape2DView001
100
AcDbLine
 10
6252.79
 20
-1338.71
 30
0
 11
6271.84
 21
-1349.71
 31
0
  0
LINE
  5
B3A
330
A02
100
AcDbEntity
  8
Shape2DView001
100
AcDbLine
 10
6271.84
 20
-1349.71
 30
0
 11
6290.9
 21
-1338.71
 31
0
  0
LINE
  5
B3B
330
A02
100
AcDbEntity
  8
Shape2DView001
100
AcDbLine
 10
6290.9
 20
-1338.71
 30
0
 11
6290.9
 21
-1316.71
 31
0
  0
CIRCLE
  5
B3C
330
A02
100
AcDbEntity
  8
Shape2DView001
100
AcDbCircle
 10
6271.84
 20
-1327.71
 40
8
  0
CIRCLE
  5
B3D
330
A02
100
AcDbEntity
  8
Shape2DView001
100
AcDbCircle
 10
6271.84
 20
-1327.71
 40
7
  0
SPLINE
  5
B3E
330
A02
100
AcDbEntity
  8
Shape2DView001
100
AcDbSpline
210
0
220
0
230
1
 70
8
 71
1
 72
17
 73
15
 74
0
 40
1e-15
 40
1e-15
 40
0.1122
 40
0.224399
 40
0.336599
 40
0.448799
 40
0.560999
 40
0.673198
 40
0.785398
 40
0.897598
 40
1.0098
 40
1.122
 40
1.2342
 40
1.3464
 40
1.4586
 40
1.5708
 40
1.5708
 10
6226.84
 20
-1279.94
 30
0
 10
6226.84
 20
-1279.38
 30
0
 10
6226.84
 20
-1278.83
 30
0
 10
6226.84
 20
-1278.29
 30
0
 10
6226.84
 20
-1277.77
 30
0
 10
6226.84
 20
-1277.28
 30
0
 10
6226.84
 20
-1276.82
 30
0
 10
6226.84
 20
-1276.4
 30
0
 10
6226.84
 20
-1276.03
 30
0
 10
6226.84
 20
-1275.7
 30
0
 10
6226.84
 20
-1275.43
 30
0
 10
6226.84
 20
-1275.22
 30
0
 10
6226.84
 20
-1275.06
 30
0
 10
6226.84
 20
-1274.97
 30
0
 10
6226.84
 20
-1274.94
 30
0
  0
LINE
  5
B3F
330
A02
100
AcDbEntity
  8
Shape2DView001
100
AcDbLine
 10
6226.84
 20
-1354.94
 30
0
 11
6226.84
 21
-1279.94
 31
0
  0
SPLINE
  5
B40
330
A02
100
AcDbEntity
  8
Shape2DView001
100
AcDbSpline
210
0
220
0
230
1
 70
8
 71
1
 72
17
 73
15
 74
0
 40
1e-15
 40
1e-15
 40
0.1122
 40
0.224399
 40
0.336599
 40
0.448799
 40
0.560999
 40
0.673198
 40
0.785398
 40
0.897598
 40
1.0098
 40
1.122
 40
1.2342
 40
1.3464
 40
1.4586
 40
1.5708
 40
1.5708
 10
6316.84
 20
-1279.94
 30
0
 10
6316.84
 20
-1279.38
 30
0
 10
6316.84
 20
-1278.83
 30
0
 10
6316.84
 20
-1278.29
 30
0
 10
6316.84
 20
-1277.77
 30
0
 10
6316.84
 20
-1277.28
 30
0
 10
6316.84
 20
-1276.82
 30
0
 10
6316.84
 20
-1276.4
 30
0
 10
6316.84
 20
-1276.03
 30
0
 10
6316.84
 20
-1275.7
 30
0
 10
6316.84
 20
-1275.43
 30
0
 10
6316.84
 20
-1275.22
 30
0
 10
6316.84
 20
-1275.06
 30
0
 10
6316.84
 20
-1274.97
 30
0
 10
6316.84
 20
-1274.94
 30
0
  0
LINE
  5
B41
330
A02
100
AcDbEntity
  8
Shape2DView001
100
AcDbLine
 10
6316.84
 20
-1354.94
 30
0
 11
6316.84
 21
-1279.94
 31
0
  0
LINE
  5
B42
330
A02
100
AcDbEntity
  8
Shape2DView001
100
AcDbLine
 10
6226.84
 20
-1354.94
 30
0
 11
6316.84
 21
-1354.94
 31
0
  0
LINE
  5
B43
330
A02
100
AcDbEntity
  8
Shape2DView001
100
AcDbLine
 10
7131.45
 20
-1316.71
 30
0
 11
7112.4
 21
-1305.71
 31
0
  0
LINE
  5
B44
330
A02
100
AcDbEntity
  8
Shape2DView001
100
AcDbLine
 10
7112.4
 20
-1305.71
 30
0
 11
7093.35
 21
-1316.71
 31
0
  0
LINE
  5
B45
330
A02
100
AcDbEntity
  8
Shape2DView001
100
AcDbLine
 10
7093.35
 20
-1316.71
 30
0
 11
7093.35
 21
-1338.71
 31
0
  0
LINE
  5
B46
330
A02
100
AcDbEntity
  8
Shape2DView001
100
AcDbLine
 10
7093.35
 20
-1338.71
 30
0
 11
7112.4
 21
-1349.71
 31
0
  0
LINE
  5
B47
330
A02
100
AcDbEntity
  8
Shape2DView001
100
AcDbLine
 10
7112.4
 20
-1349.71
 30
0
 11
7131.45
 21
-1338.71
 31
0
  0
LINE
  5
B48
330
A02
100
AcDbEntity
  8
Shape2DView001
100
AcDbLine
 10
7131.45
 20
-1338.71
 30
0
 11
7131.45
 21
-1316.71
 31
0
  0
CIRCLE
  5
B49
330
A02
100
AcDbEntity
  8
Shape2DView001
100
AcDbCircle
 10
7112.4
 20
-1327.71
 40
8
  0
CIRCLE
  5
B4A
330
A02
100
AcDbEntity
  8
Shape2DView001
100
AcDbCircle
 10
7112.4
 20
-1327.71
 40
7
  0
SPLINE
  5
B4B
330
A02
100
AcDbEntity
  8
Shape2DView001
100
AcDbSpline
210
0
220
0
230
1
 70
8
 71
1
 72
17
 73
15
 74
0
 40
1e-15
 40
1e-15
 40
0.1122
 40
0.224399
 40
0.336599
 40
0.448799
 40
0.560999
 40
0.673198
 40
0.785398
 40
0.897598
 40
1.0098
 40
1.122
 40
1.2342
 40
1.3464
 40
1.4586
 40
1.5708
 40
1.5708
 10
7067.4
 20
-1279.94
 30
0
 10
7067.4
 20
-1279.38
 30
0
 10
7067.4
 20
-1278.83
 30
0
 10
7067.4
 20
-1278.29
 30
0
 10
7067.4
 20
-1277.77
 30
0
 10
7067.4
 20
-1277.28
 30
0
 10
7067.4
 20
-1276.82
 30
0
 10
7067.4
 20
-1276.4
 30
0
 10
7067.4
 20
-1276.03
 30
0
 10
7067.4
 20
-1275.7
 30
0
 10
7067.4
 20
-1275.43
 30
0
 10
7067.4
 20
-1275.22
 30
0
 10
7067.4
 20
-1275.06
 30
0
 10
7067.4
 20
-1274.97
 30
0
 10
7067.4
 20
-1274.94
 30
0
  0
LINE
  5
B4C
330
A02
100
AcDbEntity
  8
Shape2DView001
100
AcDbLine
 10
7067.4
 20
-1354.94
 30
0
 11
7067.4
 21
-1279.94
 31
0
  0
SPLINE
  5
B4D
330
A02
100
AcDbEntity
  8
Shape2DView001
100
AcDbSpline
210
0
220
0
230
1
 70
8
 71
1
 72
17
 73
15
 74
0
 40
1e-15
 40
1e-15
 40
0.1122
 40
0.224399
 40
0.336599
 40
0.448799
 40
0.560999
 40
0.673198
 40
0.785398
 40
0.897598
 40
1.0098
 40
1.122
 40
1.2342
 40
1.3464
 40
1.4586
 40
1.5708
 40
1.5708
 10
7157.4
 20
-1279.94
 30
0
 10
7157.4
 20
-1279.38
 30
0
 10
7157.4
 20
-1278.83
 30
0
 10
7157.4
 20
-1278.29
 30
0
 10
7157.4
 20
-1277.77
 30
0
 10
7157.4
 20
-1277.28
 30
0
 10
7157.4
 20
-1276.82
 30
0
 10
7157.4
 20
-1276.4
 30
0
 10
7157.4
 20
-1276.03
 30
0
 10
7157.4
 20
-1275.7
 30
0
 10
7157.4
 20
-1275.43
 30
0
 10
7157.4
 20
-1275.22
 30
0
 10
7157.4
 20
-1275.06
 30
0
 10
7157.4
 20
-1274.97
 30
0
 10
7157.4
 20
-1274.94
 30
0
  0
LINE
  5
B4E
330
A02
100
AcDbEntity
  8
Shape2DView001
100
AcDbLine
 10
7157.4
 20
-1354.94
 30
0
 11
7157.4
 21
-1279.94
 31
0
  0
LINE
  5
B4F
330
A02
100
AcDbEntity
  8
Shape2DView001
100
AcDbLine
 10
7067.4
 20
-1354.94
 30
0
 11
7157.4
 21
-1354.94
 31
0
  0
LINE
  5
B50
330
A02
100
AcDbEntity
  8
Shape2DView001
100
AcDbLine
 10
5450.34
 20
-1316.71
 30
0
 11
5431.28
 21
-1305.71
 31
0
  0
LINE
  5
B51
330
A02
100
AcDbEntity
  8
Shape2DView001
100
AcDbLine
 10
5431.28
 20
-1305.71
 30
0
 11
5412.23
 21
-1316.71
 31
0
  0
LINE
  5
B52
330
A02
100
AcDbEntity
  8
Shape2DView001
100
AcDbLine
 10
5412.23
 20
-1316.71
 30
0
 11
5412.23
 21
-1338.71
 31
0
  0
LINE
  5
B53
330
A02
100
AcDbEntity
  8
Shape2DView001
100
AcDbLine
 10
5412.23
 20
-1338.71
 30
0
 11
5431.28
 21
-1349.71
 31
0
  0
LINE
  5
B54
330
A02
100
AcDbEntity
  8
Shape2DView001
100
AcDbLine
 10
5431.28
 20
-1349.71
 30
0
 11
5450.34
 21
-1338.71
 31
0
  0
LINE
  5
B55
330
A02
100
AcDbEntity
  8
Shape2DView001
100
AcDbLine
 10
5450.34
 20
-1338.71
 30
0
 11
5450.34
 21
-1316.71
 31
0
  0
CIRCLE
  5
B56
330
A02
100
AcDbEntity
  8
Shape2DView001
100
AcDbCircle
 10
5431.28
 20
-1327.71
 40
8
  0
CIRCLE
  5
B57
330
A02
100
AcDbEntity
  8
Shape2DView001
100
AcDbCircle
 10
5431.28
 20
-1327.71
 40
7
  0
SPLINE
  5
B58
330
A02
100
AcDbEntity
  8
Shape2DView001
100
AcDbSpline
210
0
220
0
230
1
 70
8
 71
1
 72
17
 73
15
 74
0
 40
1e-15
 40
1e-15
 40
0.1122
 40
0.224399
 40
0.336599
 40
0.448799
 40
0.560999
 40
0.673198
 40
0.785398
 40
0.897598
 40
1.0098
 40
1.122
 40
1.2342
 40
1.3464
 40
1.4586
 40
1.5708
 40
1.5708
 10
5386.28
 20
-1279.94
 30
0
 10
5386.28
 20
-1279.38
 30
0
 10
5386.28
 20
-1278.83
 30
0
 10
5386.28
 20
-1278.29
 30
0
 10
5386.28
 20
-1277.77
 30
0
 10
5386.28
 20
-1277.28
 30
0
 10
5386.28
 20
-1276.82
 30
0
 10
5386.28
 20
-1276.4
 30
0
 10
5386.28
 20
-1276.03
 30
0
 10
5386.28
 20
-1275.7
 30
0
 10
5386.28
 20
-1275.43
 30
0
 10
5386.28
 20
-1275.22
 30
0
 10
5386.28
 20
-1275.06
 30
0
 10
5386.28
 20
-1274.97
 30
0
 10
5386.28
 20
-1274.94
 30
0
  0
LINE
  5
B59
330
A02
100
AcDbEntity
  8
Shape2DView001
100
AcDbLine
 10
5386.28
 20
-1354.94
 30
0
 11
5386.28
 21
-1279.94
 31
0
  0
SPLINE
  5
B5A
330
A02
100
AcDbEntity
  8
Shape2DView001
100
AcDbSpline
210
0
220
0
230
1
 70
8
 71
1
 72
17
 73
15
 74
0
 40
1e-15
 40
1e-15
 40
0.1122
 40
0.224399
 40
0.336599
 40
0.448799
 40
0.560999
 40
0.673198
 40
0.785398
 40
0.897598
 40
1.0098
 40
1.122
 40
1.2342
 40
1.3464
 40
1.4586
 40
1.5708
 40
1.5708
 10
5476.28
 20
-1279.94
 30
0
 10
5476.28
 20
-1279.38
 30
0
 10
5476.28
 20
-1278.83
 30
0
 10
5476.28
 20
-1278.29
 30
0
 10
5476.28
 20
-1277.77
 30
0
 10
5476.28
 20
-1277.28
 30
0
 10
5476.28
 20
-1276.82
 30
0
 10
5476.28
 20
-1276.4
 30
0
 10
5476.28
 20
-1276.03
 30
0
 10
5476.28
 20
-1275.7
 30
0
 10
5476.28
 20
-1275.43
 30
0
 10
5476.28
 20
-1275.22
 30
0
 10
5476.28
 20
-1275.06
 30
0
 10
5476.28
 20
-1274.97
 30
0
 10
5476.28
 20
-1274.94
 30
0
  0
LINE
  5
B5B
330
A02
100
AcDbEntity
  8
Shape2DView001
100
AcDbLine
 10
5476.28
 20
-1354.94
 30
0
 11
5476.28
 21
-1279.94
 31
0
  0
LINE
  5
B5C
330
A02
100
AcDbEntity
  8
Shape2DView001
100
AcDbLine
 10
5386.28
 20
-1354.94
 30
0
 11
5476.28
 21
-1354.94
 31
0
  0
ARC
  5
B5D
330
A02
100
AcDbEntity
  8
Shape2DView001
100
AcDbCircle
 10
5791.4
 20
-1402.27
 30
0
 40
280
100
AcDbArc
 50
0
 51
1.91847
  0
ARC
  5
B5E
330
A02
100
AcDbEntity
  8
Shape2DView001
100
AcDbCircle
 10
5791.4
 20
-1402.27
 30
0
 40
280
100
AcDbArc
 50
6.06154
 51
44.8091
  0
ARC
  5
B5F
330
A02
100
AcDbEntity
  8
Shape2DView001
100
AcDbCircle
 10
5791.4
 20
-1402.27
 30
0
 40
280
100
AcDbArc
 50
135.191
 51
173.15
  0
ARC
  5
B60
330
A02
100
AcDbEntity
  8
Shape2DView001
100
AcDbCircle
 10
5791.4
 20
-1402.27
 30
0
 40
280
100
AcDbArc
 50
177.257
 51
-163.387
  0
ARC
  5
B61
330
A02
100
AcDbEntity
  8
Shape2DView001
100
AcDbCircle
 10
5791.4
 20
-1402.27
 30
0
 40
280
100
AcDbArc
 50
-161.239
 51
-18.7608
  0
ARC
  5
B62
330
A02
100
AcDbEntity
  8
Shape2DView001
100
AcDbCircle
 10
5791.4
 20
-1402.27
 30
0
 40
280
100
AcDbArc
 50
-16.6129
 51
0
  0
ARC
  5
B63
330
A02
100
AcDbEntity
  8
Shape2DView001
100
AcDbCircle
 10
5791.4
 20
-1402.27
 30
0
 40
180
100
AcDbArc
 50
0
 51
-178.766
  0
ARC
  5
B64
330
A02
100
AcDbEntity
  8
Shape2DView001
100
AcDbCircle
 10
5791.4
 20
-1402.27
 30
0
 40
180
100
AcDbArc
 50
-168.659
 51
-153.593
  0
ARC
  5
B65
330
A02
100
AcDbEntity
  8
Shape2DView001
100
AcDbCircle
 10
5791.4
 20
-1402.27
 30
0
 40
180
100
AcDbArc
 50
-149.981
 51
-30.0195
  0
ARC
  5
B66
330
A02
100
AcDbEntity
  8
Shape2DView001
100
AcDbCircle
 10
5791.4
 20
-1402.27
 30
0
 40
180
100
AcDbArc
 50
-26.4066
 51
-12.1713
  0
ARC
  5
B67
330
A02
100
AcDbEntity
  8
Shape2DView001
100
AcDbCircle
 10
5791.4
 20
-1402.27
 30
0
 40
180
100
AcDbArc
 50
-2.02166
 51
0
  0
ARC
  5
B68
330
A02
100
AcDbEntity
  8
Shape2DView001
100
AcDbCircle
 10
5791.4
 20
-1402.27
 30
0
 40
144
100
AcDbArc
 50
0
 51
-174.658
  0
ARC
  5
B69
330
A02
100
AcDbEntity
  8
Shape2DView001
100
AcDbCircle
 10
5791.4
 20
-1402.27
 30
0
 40
144
100
AcDbArc
 50
-161.364
 51
-146.226
  0
ARC
  5
B6A
330
A02
100
AcDbEntity
  8
Shape2DView001
100
AcDbCircle
 10
5791.4
 20
-1402.27
 30
0
 40
144
100
AcDbArc
 50
-141.291
 51
-38.7092
  0
ARC
  5
B6B
330
A02
100
AcDbEntity
  8
Shape2DView001
100
AcDbCircle
 10
5791.4
 20
-1402.27
 30
0
 40
144
100
AcDbArc
 50
-33.7744
 51
-19.4671
  0
ARC
  5
B6C
330
A02
100
AcDbEntity
  8
Shape2DView001
100
AcDbCircle
 10
5791.4
 20
-1402.27
 30
0
 40
144
100
AcDbArc
 50
-6.12984
 51
0
  0
ARC
  5
B6D
330
A02
100
AcDbEntity
  8
Shape2DView001
100
AcDbCircle
 10
5791.4
 20
-1402.27
 30
0
 40
154
100
AcDbArc
 50
0
 51
-175.917
  0
ARC
  5
B6E
330
A02
100
AcDbEntity
  8
Shape2DView001
100
AcDbCircle
 10
5791.4
 20
-1402.27
 30
0
 40
154
100
AcDbArc
 50
-163.672
 51
-148.679
  0
ARC
  5
B6F
330
A02
100
AcDbEntity
  8
Shape2DView001
100
AcDbCircle
 10
5791.4
 20
-1402.27
 30
0
 40
154
100
AcDbArc
 50
-144.214
 51
-35.786
  0
ARC
  5
B70
330
A02
100
AcDbEntity
  8
Shape2DView001
100
AcDbCircle
 10
5791.4
 20
-1402.27
 30
0
 40
154
100
AcDbArc
 50
-31.3205
 51
-17.1588
  0
ARC
  5
B71
330
A02
100
AcDbEntity
  8
Shape2DView001
100
AcDbCircle
 10
5791.4
 20
-1402.27
 30
0
 40
154
100
AcDbArc
 50
-4.87099
 51
0
  0
ARC
  5
B72
330
A02
100
AcDbEntity
  8
Shape2DView001
100
AcDbCircle
 10
5791.4
 20
-1402.27
 30
0
 40
172.022
100
AcDbArc
 50
0
 51
-177.946
  0
ARC
  5
B73
330
A02
100
AcDbEntity
  8
Shape2DView001
100
AcDbCircle
 10
5791.4
 20
-1402.27
 30
0
 40
172.022
100
AcDbArc
 50
-167.256
 51
-152.266
  0
ARC
  5
B74
330
A02
100
AcDbEntity
  8
Shape2DView001
100
AcDbCircle
 10
5791.4
 20
-1402.27
 30
0
 40
172.022
100
AcDbArc
 50
-148.433
 51
-31.5672
  0
ARC
  5
B75
330
A02
100
AcDbEntity
  8
Shape2DView001
100
AcDbCircle
 10
5791.4
 20
-1402.27
 30
0
 40
172.022
100
AcDbArc
 50
-27.7339
 51
-13.5743
  0
ARC
  5
B76
330
A02
100
AcDbEntity
  8
Shape2DView001
100
AcDbCircle
 10
5791.4
 20
-1402.27
 30
0
 40
172.022
100
AcDbArc
 50
-2.84184
 51
0
  0
ARC
  5
B77
330
A02
100
AcDbEntity
  8
Shape2DView001
100
AcDbCircle
 10
5791.4
 20
-1402.27
 30
0
 40
180
100
AcDbArc
 50
0
 51
-178.766
  0
ARC
  5
B78
330
A02
100
AcDbEntity
  8
Shape2DView001
100
AcDbCircle
 10
5791.4
 20
-1402.27
 30
0
 40
180
100
AcDbArc
 50
-168.659
 51
-153.593
  0
ARC
  5
B79
330
A02
100
AcDbEntity
  8
Shape2DView001
100
AcDbCircle
 10
5791.4
 20
-1402.27
 30
0
 40
180
100
AcDbArc
 50
-149.981
 51
-30.0195
  0
ARC
  5
B7A
330
A02
100
AcDbEntity
  8
Shape2DView001
100
AcDbCircle
 10
5791.4
 20
-1402.27
 30
0
 40
180
100
AcDbArc
 50
-26.4066
 51
-12.1713
  0
ARC
  5
B7B
330
A02
100
AcDbEntity
  8
Shape2DView001
100
AcDbCircle
 10
5791.4
 20
-1402.27
 30
0
 40
180
100
AcDbArc
 50
-2.02166
 51
0
  0
LINE
  5
B7C
330
A02
100
AcDbEntity
  8
Shape2DView001
100
AcDbLine
 10
5810.75
 20
-1377.43
 30
0
 11
5772.05
 21
-1377.43
 31
0
  0
ARC
  5
B7D
330
A02
100
AcDbEntity
  8
Shape2DView001
100
AcDbCircle
 10
5772.05
 20
-1383.08
 30
0
 40
5.65136
100
AcDbArc
 50
90
 51
180
  0
LINE
  5
B7E
330
A02
100
AcDbEntity
  8
Shape2DView001
100
AcDbLine
 10
5766.4
 20
-1383.08
 30
0
 11
5766.4
 21
-1421.78
 31
0
  0
ARC
  5
B7F
330
A02
100
AcDbEntity
  8
Shape2DView001
100
AcDbCircle
 10
5772.05
 20
-1421.78
 30
0
 40
5.65136
100
AcDbArc
 50
180
 51
-90
  0
LINE
  5
B80
330
A02
100
AcDbEntity
  8
Shape2DView001
100
AcDbLine
 10
5772.05
 20
-1427.43
 30
0
 11
5810.75
 21
-1427.43
 31
0
  0
ARC
  5
B81
330
A02
100
AcDbEntity
  8
Shape2DView001
100
AcDbCircle
 10
5810.75
 20
-1421.78
 30
0
 40
5.65136
100
AcDbArc
 50
-90
 51
0
  0
LINE
  5
B82
330
A02
100
AcDbEntity
  8
Shape2DView001
100
AcDbLine
 10
5816.4
 20
-1421.78
 30
0
 11
5816.4
 21
-1383.08
 31
0
  0
ARC
  5
B83
330
A02
100
AcDbEntity
  8
Shape2DView001
100
AcDbCircle
 10
5810.75
 20
-1383.08
 30
0
 40
5.65136
100
AcDbArc
 50
0
 51
90
  0
LINE
  5
B84
330
A02
100
AcDbEntity
  8
Shape2DView001
100
AcDbLine
 10
5810.4
 20
-1421.43
 30
0
 11
5810.4
 21
-1383.43
 31
0
  0
LINE
  5
B85
330
A02
100
AcDbEntity
  8
Shape2DView001
100
AcDbLine
 10
5772.4
 20
-1421.43
 30
0
 11
5810.4
 21
-1421.43
 31
0
  0
LINE
  5
B86
330
A02
100
AcDbEntity
  8
Shape2DView001
100
AcDbLine
 10
5772.4
 20
-1383.43
 30
0
 11
5772.4
 21
-1421.43
 31
0
  0
LINE
  5
B87
330
A02
100
AcDbEntity
  8
Shape2DView001
100
AcDbLine
 10
5810.4
 20
-1383.43
 30
0
 11
5772.4
 21
-1383.43
 31
0
  0
LINE
  5
B88
330
A02
100
AcDbEntity
  8
Shape2DView001
100
AcDbLine
 10
5833.4
 20
-1352.27
 30
0
 11
5749.4
 21
-1352.27
 31
0
  0
ARC
  5
B89
330
A02
100
AcDbEntity
  8
Shape2DView001
100
AcDbCircle
 10
5833.4
 20
-1360.27
 30
0
 40
8
100
AcDbArc
 50
0
 51
90
  0
ARC
  5
B8A
330
A02
100
AcDbEntity
  8
Shape2DView001
100
AcDbCircle
 10
5749.4
 20
-1360.27
 30
0
 40
8
100
AcDbArc
 50
90
 51
180
  0
LINE
  5
B8B
330
A02
100
AcDbEntity
  8
Shape2DView001
100
AcDbLine
 10
5841.4
 20
-1430.86
 30
0
 11
5841.4
 21
-1360.27
 31
0
  0
LINE
  5
B8C
330
A02
100
AcDbEntity
  8
Shape2DView001
100
AcDbLine
 10
5741.4
 20
-1360.27
 30
0
 11
5741.4
 21
-1430.2
 31
0
  0
ARC
  5
B8D
330
A02
100
AcDbEntity
  8
Shape2DView001
100
AcDbCircle
 10
5791.4
 20
-1402.27
 30
0
 40
120
100
AcDbArc
 50
-9.71317
 51
180
  0
ARC
  5
B8E
330
A02
100
AcDbEntity
  8
Shape2DView001
100
AcDbCircle
 10
5791.4
 20
-1402.27
 30
0
 40
120
100
AcDbArc
 50
-41.8443
 51
-31.4348
  0
ARC
  5
B8F
330
A02
100
AcDbEntity
  8
Shape2DView001
100
AcDbCircle
 10
5791.4
 20
-1402.27
 30
0
 40
120
100
AcDbArc
 50
-72.292
 51
-48.6287
  0
ARC
  5
B90
330
A02
100
AcDbEntity
  8
Shape2DView001
100
AcDbCircle
 10
5791.4
 20
-1402.27
 30
0
 40
120
100
AcDbArc
 50
-103.248
 51
-76.752
  0
ARC
  5
B91
330
A02
100
AcDbEntity
  8
Shape2DView001
100
AcDbCircle
 10
5791.4
 20
-1402.27
 30
0
 40
120
100
AcDbArc
 50
-131.371
 51
-107.708
  0
ARC
  5
B92
330
A02
100
AcDbEntity
  8
Shape2DView001
100
AcDbCircle
 10
5791.4
 20
-1402.27
 30
0
 40
120
100
AcDbArc
 50
-149.403
 51
-138.156
  0
ARC
  5
B93
330
A02
100
AcDbEntity
  8
Shape2DView001
100
AcDbCircle
 10
5791.4
 20
-1402.27
 30
0
 40
120
100
AcDbArc
 50
180
 51
-171.075
  0
ARC
  5
B94
330
A02
100
AcDbEntity
  8
Shape2DView001
100
AcDbCircle
 10
6752.28
 20
-1402.27
 30
0
 40
280
100
AcDbArc
 50
0
 51
1.91847
  0
ARC
  5
B95
330
A02
100
AcDbEntity
  8
Shape2DView001
100
AcDbCircle
 10
6752.28
 20
-1402.27
 30
0
 40
280
100
AcDbArc
 50
6.06154
 51
44.8091
  0
ARC
  5
B96
330
A02
100
AcDbEntity
  8
Shape2DView001
100
AcDbCircle
 10
6752.28
 20
-1402.27
 30
0
 40
280
100
AcDbArc
 50
135.191
 51
173.15
  0
ARC
  5
B97
330
A02
100
AcDbEntity
  8
Shape2DView001
100
AcDbCircle
 10
6752.28
 20
-1402.27
 30
0
 40
280
100
AcDbArc
 50
177.257
 51
-163.387
  0
ARC
  5
B98
330
A02
100
AcDbEntity
  8
Shape2DView001
100
AcDbCircle
 10
6752.28
 20
-1402.27
 30
0
 40
280
100
AcDbArc
 50
-161.239
 51
-18.7608
  0
ARC
  5
B99
330
A02
100
AcDbEntity
  8
Shape2DView001
100
AcDbCircle
 10
6752.28
 20
-1402.27
 30
0
 40
280
100
AcDbArc
 50
-16.6129
 51
-4.6527e-14
  0
ARC
  5
B9A
330
A02
100
AcDbEntity
  8
Shape2DView001
100
AcDbCircle
 10
6752.28
 20
-1402.27
 30
0
 40
180
100
AcDbArc
 50
0
 51
-178.766
  0
ARC
  5
B9B
330
A02
100
AcDbEntity
  8
Shape2DView001
100
AcDbCircle
 10
6752.28
 20
-1402.27
 30
0
 40
180
100
AcDbArc
 50
-168.659
 51
-153.593
  0
ARC
  5
B9C
330
A02
100
AcDbEntity
  8
Shape2DView001
100
AcDbCircle
 10
6752.28
 20
-1402.27
 30
0
 40
180
100
AcDbArc
 50
-149.981
 51
-30.0195
  0
ARC
  5
B9D
330
A02
100
AcDbEntity
  8
Shape2DView001
100
AcDbCircle
 10
6752.28
 20
-1402.27
 30
0
 40
180
100
AcDbArc
 50
-26.4066
 51
-12.1713
  0
ARC
  5
B9E
330
A02
100
AcDbEntity
  8
Shape2DView001
100
AcDbCircle
 10
6752.28
 20
-1402.27
 30
0
 40
180
100
AcDbArc
 50
-2.02166
 51
-7.23753e-14
  0
ARC
  5
B9F
330
A02
100
AcDbEntity
  8
Shape2DView001
100
AcDbCircle
 10
6752.28
 20
-1402.27
 30
0
 40
144
100
AcDbArc
 50
0
 51
-174.658
  0
ARC
  5
BA0
330
A02
100
AcDbEntity
  8
Shape2DView001
100
AcDbCircle
 10
6752.28
 20
-1402.27
 30
0
 40
144
100
AcDbArc
 50
-161.364
 51
-146.226
  0
ARC
  5
BA1
330
A02
100
AcDbEntity
  8
Shape2DView001
100
AcDbCircle
 10
6752.28
 20
-1402.27
 30
0
 40
144
100
AcDbArc
 50
-141.291
 51
-38.7092
  0
ARC
  5
BA2
330
A02
100
AcDbEntity
  8
Shape2DView001
100
AcDbCircle
 10
6752.28
 20
-1402.27
 30
0
 40
144
100
AcDbArc
 50
-33.7744
 51
-19.4671
  0
ARC
  5
BA3
330
A02
100
AcDbEntity
  8
Shape2DView001
100
AcDbCircle
 10
6752.28
 20
-1402.27
 30
0
 40
144
100
AcDbArc
 50
-6.12984
 51
-9.04691e-14
  0
ARC
  5
BA4
330
A02
100
AcDbEntity
  8
Shape2DView001
100
AcDbCircle
 10
6752.28
 20
-1402.27
 30
0
 40
154
100
AcDbArc
 50
0
 51
-175.917
  0
ARC
  5
BA5
330
A02
100
AcDbEntity
  8
Shape2DView001
100
AcDbCircle
 10
6752.28
 20
-1402.27
 30
0
 40
154
100
AcDbArc
 50
-163.672
 51
-148.679
  0
ARC
  5
BA6
330
A02
100
AcDbEntity
  8
Shape2DView001
100
AcDbCircle
 10
6752.28
 20
-1402.27
 30
0
 40
154
100
AcDbArc
 50
-144.214
 51
-35.786
  0
ARC
  5
BA7
330
A02
100
AcDbEntity
  8
Shape2DView001
100
AcDbCircle
 10
6752.28
 20
-1402.27
 30
0
 40
154
100
AcDbArc
 50
-31.3205
 51
-17.1588
  0
ARC
  5
BA8
330
A02
100
AcDbEntity
  8
Shape2DView001
100
AcDbCircle
 10
6752.28
 20
-1402.27
 30
0
 40
154
100
AcDbArc
 50
-4.87099
 51
-8.45945e-14
  0
ARC
  5
BA9
330
A02
100
AcDbEntity
  8
Shape2DView001
100
AcDbCircle
 10
6752.28
 20
-1402.27
 30
0
 40
172.022
100
AcDbArc
 50
0
 51
-177.946
  0
ARC
  5
BAA
330
A02
100
AcDbEntity
  8
Shape2DView001
100
AcDbCircle
 10
6752.28
 20
-1402.27
 30
0
 40
172.022
100
AcDbArc
 50
-167.256
 51
-152.266
  0
ARC
  5
BAB
330
A02
100
AcDbEntity
  8
Shape2DView001
100
AcDbCircle
 10
6752.28
 20
-1402.27
 30
0
 40
172.022
100
AcDbArc
 50
-148.433
 51
-31.5672
  0
ARC
  5
BAC
330
A02
100
AcDbEntity
  8
Shape2DView001
100
AcDbCircle
 10
6752.28
 20
-1402.27
 30
0
 40
172.022
100
AcDbArc
 50
-27.7339
 51
-13.5743
  0
ARC
  5
BAD
330
A02
100
AcDbEntity
  8
Shape2DView001
100
AcDbCircle
 10
6752.28
 20
-1402.27
 30
0
 40
172.022
100
AcDbArc
 50
-2.84184
 51
-7.57321e-14
  0
ARC
  5
BAE
330
A02
100
AcDbEntity
  8
Shape2DView001
100
AcDbCircle
 10
6752.28
 20
-1402.27
 30
0
 40
180
100
AcDbArc
 50
0
 51
-178.766
  0
ARC
  5
BAF
330
A02
100
AcDbEntity
  8
Shape2DView001
100
AcDbCircle
 10
6752.28
 20
-1402.27
 30
0
 40
180
100
AcDbArc
 50
-168.659
 51
-153.593
  0
ARC
  5
BB0
330
A02
100
AcDbEntity
  8
Shape2DView001
100
AcDbCircle
 10
6752.28
 20
-1402.27
 30
0
 40
180
100
AcDbArc
 50
-149.981
 51
-30.0195
  0
ARC
  5
BB1
330
A02
100
AcDbEntity
  8
Shape2DView001
100
AcDbCircle
 10
6752.28
 20
-1402.27
 30
0
 40
180
100
AcDbArc
 50
-26.4066
 51
-12.1713
  0
ARC
  5
BB2
330
A02
100
AcDbEntity
  8
Shape2DView001
100
AcDbCircle
 10
6752.28
 20
-1402.27
 30
0
 40
180
100
AcDbArc
 50
-2.02166
 51
-7.23753e-14
  0
LINE
  5
BB3
330
A02
100
AcDbEntity
  8
Shape2DView001
100
AcDbLine
 10
6771.63
 20
-1377.43
 30
0
 11
6732.93
 21
-1377.43
 31
0
  0
ARC
  5
BB4
330
A02
100
AcDbEntity
  8
Shape2DView001
100
AcDbCircle
 10
6732.93
 20
-1383.08
 30
0
 40
5.65136
100
AcDbArc
 50
90
 51
180
  0
LINE
  5
BB5
330
A02
100
AcDbEntity
  8
Shape2DView001
100
AcDbLine
 10
6727.28
 20
-1383.08
 30
0
 11
6727.28
 21
-1421.78
 31
0
  0
ARC
  5
BB6
330
A02
100
AcDbEntity
  8
Shape2DView001
100
AcDbCircle
 10
6732.93
 20
-1421.78
 30
0
 40
5.65136
100
AcDbArc
 50
180
 51
-90
  0
LINE
  5
BB7
330
A02
100
AcDbEntity
  8
Shape2DView001
100
AcDbLine
 10
6732.93
 20
-1427.43
 30
0
 11
6771.63
 21
-1427.43
 31
0
  0
ARC
  5
BB8
330
A02
100
AcDbEntity
  8
Shape2DView001
100
AcDbCircle
 10
6771.63
 20
-1421.78
 30
0
 40
5.65136
100
AcDbArc
 50
-90
 51
0
  0
LINE
  5
BB9
330
A02
100
AcDbEntity
  8
Shape2DView001
100
AcDbLine
 10
6777.28
 20
-1421.78
 30
0
 11
6777.28
 21
-1383.08
 31
0
  0
ARC
  5
BBA
330
A02
100
AcDbEntity
  8
Shape2DView001
100
AcDbCircle
 10
6771.63
 20
-1383.08
 30
0
 40
5.65136
100
AcDbArc
 50
0
 51
90
  0
LINE
  5
BBB
330
A02
100
AcDbEntity
  8
Shape2DView001
100
AcDbLine
 10
6771.28
 20
-1421.43
 30
0
 11
6771.28
 21
-1383.43
 31
0
  0
LINE
  5
BBC
330
A02
100
AcDbEntity
  8
Shape2DView001
100
AcDbLine
 10
6733.28
 20
-1421.43
 30
0
 11
6771.28
 21
-1421.43
 31
0
  0
LINE
  5
BBD
330
A02
100
AcDbEntity
  8
Shape2DView001
100
AcDbLine
 10
6733.28
 20
-1383.43
 30
0
 11
6733.28
 21
-1421.43
 31
0
  0
LINE
  5
BBE
330
A02
100
AcDbEntity
  8
Shape2DView001
100
AcDbLine
 10
6771.28
 20
-1383.43
 30
0
 11
6733.28
 21
-1383.43
 31
0
  0
LINE
  5
BBF
330
A02
100
AcDbEntity
  8
Shape2DView001
100
AcDbLine
 10
6794.28
 20
-1352.27
 30
0
 11
6710.28
 21
-1352.27
 31
0
  0
ARC
  5
BC0
330
A02
100
AcDbEntity
  8
Shape2DView001
100
AcDbCircle
 10
6794.28
 20
-1360.27
 30
0
 40
8
100
AcDbArc
 50
0
 51
90
  0
ARC
  5
BC1
330
A02
100
AcDbEntity
  8
Shape2DView001
100
AcDbCircle
 10
6710.28
 20
-1360.27
 30
0
 40
8
100
AcDbArc
 50
90
 51
180
  0
LINE
  5
BC2
330
A02
100
AcDbEntity
  8
Shape2DView001
100
AcDbLine
 10
6802.28
 20
-1430.86
 30
0
 11
6802.28
 21
-1360.27
 31
0
  0
LINE
  5
BC3
330
A02
100
AcDbEntity
  8
Shape2DView001
100
AcDbLine
 10
6702.28
 20
-1360.27
 30
0
 11
6702.28
 21
-1430.2
 31
0
  0
ARC
  5
BC4
330
A02
100
AcDbEntity
  8
Shape2DView001
100
AcDbCircle
 10
6752.28
 20
-1402.27
 30
0
 40
120
100
AcDbArc
 50
-9.71317
 51
180
  0
ARC
  5
BC5
330
A02
100
AcDbEntity
  8
Shape2DView001
100
AcDbCircle
 10
6752.28
 20
-1402.27
 30
0
 40
120
100
AcDbArc
 50
-41.8443
 51
-31.4348
  0
ARC
  5
BC6
330
A02
100
AcDbEntity
  8
Shape2DView001
100
AcDbCircle
 10
6752.28
 20
-1402.27
 30
0
 40
120
100
AcDbArc
 50
-72.292
 51
-48.6287
  0
ARC
  5
BC7
330
A02
100
AcDbEntity
  8
Shape2DView001
100
AcDbCircle
 10
6752.28
 20
-1402.27
 30
0
 40
120
100
AcDbArc
 50
-103.248
 51
-76.752
  0
ARC
  5
BC8
330
A02
100
AcDbEntity
  8
Shape2DView001
100
AcDbCircle
 10
6752.28
 20
-1402.27
 30
0
 40
120
100
AcDbArc
 50
-131.371
 51
-107.708
  0
ARC
  5
BC9
330
A02
100
AcDbEntity
  8
Shape2DView001
100
AcDbCircle
 10
6752.28
 20
-1402.27
 30
0
 40
120
100
AcDbArc
 50
-149.403
 51
-138.156
  0
ARC
  5
BCA
330
A02
100
AcDbEntity
  8
Shape2DView001
100
AcDbCircle
 10
6752.28
 20
-1402.27
 30
0
 40
120
100
AcDbArc
 50
-180
 51
-171.075
  0
LINE
  5
BCB
330
A02
100
AcDbEntity
  8
Shape2DView001
100
AcDbLine
 10
10841.6
 20
-1284.94
 30
0
 11
11076.1
 21
-1284.94
 31
0
  0
LINE
  5
BCC
330
A02
100
AcDbEntity
  8
Shape2DView001
100
AcDbLine
 10
11076.1
 20
-1280.94
 30
0
 11
11076.1
 21
-1183.57
 31
0
  0
LINE
  5
BCD
330
A02
100
AcDbEntity
  8
Shape2DView001
100
AcDbLine
 10
11076.1
 20
-1280.94
 30
0
 11
11076.1
 21
-1284.94
 31
0
  0
LINE
  5
BCE
330
A02
100
AcDbEntity
  8
Shape2DView001
100
AcDbLine
 10
10841.6
 20
-1280.94
 30
0
 11
10841.6
 21
-1183.57
 31
0
  0
LINE
  5
BCF
330
A02
100
AcDbEntity
  8
Shape2DView001
100
AcDbLine
 10
10841.6
 20
-1280.94
 30
0
 11
10841.6
 21
-1284.94
 31
0
  0
LINE
  5
BD0
330
A02
100
AcDbEntity
  8
Shape2DView001
100
AcDbLine
 10
10841.6
 20
-1280.94
 30
0
 11
11076.1
 21
-1280.94
 31
0
  0
LINE
  5
BD1
330
A02
100
AcDbEntity
  8
Shape2DView001
100
AcDbLine
 10
11076.1
 20
-1183.57
 30
0
 11
10841.6
 21
-1183.57
 31
0
  0
LINE
  5
BD2
330
A02
100
AcDbEntity
  8
Shape2DView001
100
AcDbLine
 10
9871.87
 20
-1204.94
 30
0
 11
9901.87
 21
-1204.94
 31
0
  0
LINE
  5
BD3
330
A02
100
AcDbEntity
  8
Shape2DView001
100
AcDbLine
 10
9901.87
 20
-1204.94
 30
0
 11
9901.87
 21
-1201.94
 31
0
  0
LINE
  5
BD4
330
A02
100
AcDbEntity
  8
Shape2DView001
100
AcDbLine
 10
9901.87
 20
-1201.94
 30
0
 11
9874.87
 21
-1201.94
 31
0
  0
LINE
  5
BD5
330
A02
100
AcDbEntity
  8
Shape2DView001
100
AcDbLine
 10
9874.87
 20
-1174.94
 30
0
 11
9874.87
 21
-1201.94
 31
0
  0
LINE
  5
BD6
330
A02
100
AcDbEntity
  8
Shape2DView001
100
AcDbLine
 10
9871.87
 20
-1174.94
 30
0
 11
9874.87
 21
-1174.94
 31
0
  0
LINE
  5
BD7
330
A02
100
AcDbEntity
  8
Shape2DView001
100
AcDbLine
 10
8474.94
 20
-1204.94
 30
0
 11
8474.94
 21
-1284.94
 31
0
  0
LINE
  5
BD8
330
A02
100
AcDbEntity
  8
Shape2DView001
100
AcDbLine
 10
8474.94
 20
-1284.94
 30
0
 11
10841.3
 21
-1284.94
 31
0
  0
LINE
  5
BD9
330
A02
100
AcDbEntity
  8
Shape2DView001
100
AcDbLine
 10
10841.3
 20
-1284.94
 30
0
 11
10841.3
 21
-1204.94
 31
0
  0
LINE
  5
BDA
330
A02
100
AcDbEntity
  8
Shape2DView001
100
AcDbLine
 10
8474.94
 20
-1204.94
 30
0
 11
9846.87
 21
-1204.94
 31
0
  0
LINE
  5
BDB
330
A02
100
AcDbEntity
  8
Shape2DView001
100
AcDbLine
 10
9901.87
 20
-1204.94
 30
0
 11
10841.3
 21
-1204.94
 31
0
  0
LINE
  5
BDC
330
A02
100
AcDbEntity
  8
Shape2DView001
100
AcDbLine
 10
10841.6
 20
-1284.94
 30
0
 11
10841.3
 21
-1284.94
 31
0
  0
LINE
  5
BDD
330
A02
100
AcDbEntity
  8
Shape2DView001
100
AcDbLine
 10
10841.6
 20
-1204.94
 30
0
 11
10841.3
 21
-1204.94
 31
0
  0
LINE
  5
BDE
330
A02
100
AcDbEntity
  8
Shape2DView001
100
AcDbLine
 10
6720.28
 20
-1527.65
 30
0
 11
6720.28
 21
-1492.32
 31
0
  0
LINE
  5
BDF
330
A02
100
AcDbEntity
  8
Shape2DView001
100
AcDbLine
 10
6720.28
 20
-1473.32
 30
0
 11
6720.28
 21
-1382.43
 31
0
  0
SPLINE
  5
BE0
330
A02
100
AcDbEntity
  8
Shape2DView001
100
AcDbSpline
210
0
220
0
230
1
 70
8
 71
1
 72
17
 73
15
 74
0
 40
0
 40
0
 40
0.1122
 40
0.224399
 40
0.336599
 40
0.448799
 40
0.560999
 40
0.673198
 40
0.785398
 40
0.897598
 40
1.0098
 40
1.122
 40
1.2342
 40
1.3464
 40
1.4586
 40
1.5708
 40
1.5708
 10
6720.28
 20
-1382.43
 30
0
 10
6720.79
 20
-1382.43
 30
0
 10
6721.28
 20
-1382.43
 30
0
 10
6721.77
 20
-1382.43
 30
0
 10
6722.23
 20
-1382.43
 30
0
 10
6722.68
 20
-1382.43
 30
0
 10
6723.09
 20
-1382.43
 30
0
 10
6723.46
 20
-1382.43
 30
0
 10
6723.8
 20
-1382.43
 30
0
 10
6724.09
 20
-1382.43
 30
0
 10
6724.34
 20
-1382.43
 30
0
 10
6724.53
 20
-1382.43
 30
0
 10
6724.67
 20
-1382.43
 30
0
 10
6724.75
 20
-1382.43
 30
0
 10
6724.78
 20
-1382.43
 30
0
  0
SPLINE
  5
BE1
330
A02
100
AcDbEntity
  8
Shape2DView001
100
AcDbSpline
210
0
220
0
230
1
 70
8
 71
2
 72
30
 73
27
 74
0
 40
4.71239
 40
4.71239
 40
4.71239
 40
4.82459
 40
4.82459
 40
4.93679
 40
4.93679
 40
5.04899
 40
5.04899
 40
5.16119
 40
5.16119
 40
5.27339
 40
5.27339
 40
5.38559
 40
5.38559
 40
5.49779
 40
5.49779
 40
5.60999
 40
5.60999
 40
5.72219
 40
5.72219
 40
5.83439
 40
5.83439
 40
5.94659
 40
5.94659
 40
6.05879
 40
6.05879
 40
6.28319
 40
6.28319
 40
6.28319
 10
6715.78
 20
-1382.43
 30
0
 10
6715.8
 20
-1382.43
 30
0
 10
6715.81
 20
-1382.43
 30
0
 10
6715.85
 20
-1382.43
 30
0
 10
6715.9
 20
-1382.43
 30
0
 10
6715.97
 20
-1382.43
 30
0
 10
6716.03
 20
-1382.43
 30
0
 10
6716.13
 20
-1382.43
 30
0
 10
6716.23
 20
-1382.43
 30
0
 10
6716.35
 20
-1382.43
 30
0
 10
6716.47
 20
-1382.43
 30
0
 10
6716.62
 20
-1382.43
 30
0
 10
6716.76
 20
-1382.43
 30
0
 10
6716.93
 20
-1382.43
 30
0
 10
6717.1
 20
-1382.43
 30
0
 10
6717.29
 20
-1382.43
 30
0
 10
6717.48
 20
-1382.43
 30
0
 10
6717.68
 20
-1382.43
 30
0
 10
6717.89
 20
-1382.43
 30
0
 10
6718.11
 20
-1382.43
 30
0
 10
6718.33
 20
-1382.43
 30
0
 10
6718.56
 20
-1382.43
 30
0
 10
6718.8
 20
-1382.43
 30
0
 10
6719.04
 20
-1382.43
 30
0
 10
6719.28
 20
-1382.43
 30
0
 10
6719.78
 20
-1382.43
 30
0
 10
6720.28
 20
-1382.43
 30
0
  0
ARC
  5
BE2
330
A02
100
AcDbEntity
  8
Shape2DView001
100
AcDbCircle
 10
6732.28
 20
-1382.43
 30
0
 40
12
100
AcDbArc
 50
90
 51
180
  0
SPLINE
  5
BE3
330
A02
100
AcDbEntity
  8
Shape2DView001
100
AcDbSpline
210
0
220
0
230
1
 70
8
 71
1
 72
17
 73
15
 74
0
 40
4.71239
 40
4.71239
 40
4.82459
 40
4.93679
 40
5.04899
 40
5.16119
 40
5.27339
 40
5.38559
 40
5.49779
 40
5.60999
 40
5.72219
 40
5.83439
 40
5.94659
 40
6.05879
 40
6.17099
 40
6.28319
 40
6.28319
 10
6732.28
 20
-1370.43
 30
0
 10
6732.28
 20
-1369.93
 30
0
 10
6732.28
 20
-1369.43
 30
0
 10
6732.28
 20
-1368.95
 30
0
 10
6732.28
 20
-1368.48
 30
0
 10
6732.28
 20
-1368.04
 30
0
 10
6732.28
 20
-1367.63
 30
0
 10
6732.28
 20
-1367.25
 30
0
 10
6732.28
 20
-1366.91
 30
0
 10
6732.28
 20
-1366.62
 30
0
 10
6732.28
 20
-1366.38
 30
0
 10
6732.28
 20
-1366.18
 30
0
 10
6732.28
 20
-1366.04
 30
0
 10
6732.28
 20
-1365.96
 30
0
 10
6732.28
 20
-1365.93
 30
0
  0
SPLINE
  5
BE4
330
A02
100
AcDbEntity
  8
Shape2DView001
100
AcDbSpline
210
0
220
0
230
1
 70
8
 71
2
 72
30
 73
27
 74
0
 40
9.42478
 40
9.42478
 40
9.42478
 40
9.53698
 40
9.53698
 40
9.64918
 40
9.64918
 40
9.76138
 40
9.76138
 40
9.87358
 40
9.87358
 40
9.98578
 40
9.98578
 40
10.098
 40
10.098
 40
10.2102
 40
10.2102
 40
10.3224
 40
10.3224
 40
10.4346
 40
10.4346
 40
10.5468
 40
10.5468
 40
10.659
 40
10.659
 40
10.7712
 40
10.7712
 40
10.9956
 40
10.9956
 40
10.9956
 10
6732.28
 20
-1374.93
 30
0
 10
6732.28
 20
-1374.92
 30
0
 10
6732.28
 20
-1374.9
 30
0
 10
6732.28
 20
-1374.86
 30
0
 10
6732.28
 20
-1374.82
 30
0
 10
6732.28
 20
-1374.75
 30
0
 10
6732.28
 20
-1374.68
 30
0
 10
6732.28
 20
-1374.58
 30
0
 10
6732.28
 20
-1374.49
 30
0
 10
6732.28
 20
-1374.36
 30
0
 10
6732.28
 20
-1374.24
 30
0
 10
6732.28
 20
-1374.1
 30
0
 10
6732.28
 20
-1373.95
 30
0
 10
6732.28
 20
-1373.78
 30
0
 10
6732.28
 20
-1373.61
 30
0
 10
6732.28
 20
-1373.43
 30
0
 10
6732.28
 20
-1373.24
 30
0
 10
6732.28
 20
-1373.03
 30
0
 10
6732.28
 20
-1372.83
 30
0
 10
6732.28
 20
-1372.61
 30
0
 10
6732.28
 20
-1372.38
 30
0
 10
6732.28
 20
-1372.15
 30
0
 10
6732.28
 20
-1371.92
 30
0
 10
6732.28
 20
-1371.68
 30
0
 10
6732.28
 20
-1371.43
 30
0
 10
6732.28
 20
-1370.94
 30
0
 10
6732.28
 20
-1370.43
 30
0
  0
LINE
  5
BE5
330
A02
100
AcDbEntity
  8
Shape2DView001
100
AcDbLine
 10
6732.28
 20
-1370.43
 30
0
 11
6772.28
 21
-1370.43
 31
0
  0
SPLINE
  5
BE6
330
A02
100
AcDbEntity
  8
Shape2DView001
100
AcDbSpline
210
0
220
0
230
1
 70
8
 71
1
 72
17
 73
15
 74
0
 40
0
 40
0
 40
0.1122
 40
0.224399
 40
0.336599
 40
0.448799
 40
0.560999
 40
0.673198
 40
0.785398
 40
0.897598
 40
1.0098
 40
1.122
 40
1.2342
 40
1.3464
 40
1.4586
 40
1.5708
 40
1.5708
 10
6772.28
 20
-1370.43
 30
0
 10
6772.28
 20
-1370.94
 30
0
 10
6772.28
 20
-1371.43
 30
0
 10
6772.28
 20
-1371.92
 30
0
 10
6772.28
 20
-1372.38
 30
0
 10
6772.28
 20
-1372.83
 30
0
 10
6772.28
 20
-1373.24
 30
0
 10
6772.28
 20
-1373.61
 30
0
 10
6772.28
 20
-1373.95
 30
0
 10
6772.28
 20
-1374.24
 30
0
 10
6772.28
 20
-1374.49
 30
0
 10
6772.28
 20
-1374.68
 30
0
 10
6772.28
 20
-1374.82
 30
0
 10
6772.28
 20
-1374.9
 30
0
 10
6772.28
 20
-1374.93
 30
0
  0
SPLINE
  5
BE7
330
A02
100
AcDbEntity
  8
Shape2DView001
100
AcDbSpline
210
0
220
0
230
1
 70
8
 71
2
 72
30
 73
27
 74
0
 40
4.71239
 40
4.71239
 40
4.71239
 40
4.82459
 40
4.82459
 40
4.93679
 40
4.93679
 40
5.04899
 40
5.04899
 40
5.16119
 40
5.16119
 40
5.27339
 40
5.27339
 40
5.38559
 40
5.38559
 40
5.49779
 40
5.49779
 40
5.60999
 40
5.60999
 40
5.72219
 40
5.72219
 40
5.83439
 40
5.83439
 40
5.94659
 40
5.94659
 40
6.05879
 40
6.05879
 40
6.28319
 40
6.28319
 40
6.28319
 10
6772.28
 20
-1365.93
 30
0
 10
6772.28
 20
-1365.95
 30
0
 10
6772.28
 20
-1365.96
 30
0
 10
6772.28
 20
-1366
 30
0
 10
6772.28
 20
-1366.04
 30
0
 10
6772.28
 20
-1366.11
 30
0
 10
6772.28
 20
-1366.18
 30
0
 10
6772.28
 20
-1366.28
 30
0
 10
6772.28
 20
-1366.38
 30
0
 10
6772.28
 20
-1366.5
 30
0
 10
6772.28
 20
-1366.62
 30
0
 10
6772.28
 20
-1366.77
 30
0
 10
6772.28
 20
-1366.91
 30
0
 10
6772.28
 20
-1367.08
 30
0
 10
6772.28
 20
-1367.25
 30
0
 10
6772.28
 20
-1367.44
 30
0
 10
6772.28
 20
-1367.63
 30
0
 10
6772.28
 20
-1367.83
 30
0
 10
6772.28
 20
-1368.04
 30
0
 10
6772.28
 20
-1368.26
 30
0
 10
6772.28
 20
-1368.48
 30
0
 10
6772.28
 20
-1368.71
 30
0
 10
6772.28
 20
-1368.95
 30
0
 10
6772.28
 20
-1369.19
 30
0
 10
6772.28
 20
-1369.43
 30
0
 10
6772.28
 20
-1369.93
 30
0
 10
6772.28
 20
-1370.43
 30
0
  0
ARC
  5
BE8
330
A02
100
AcDbEntity
  8
Shape2DView001
100
AcDbCircle
 10
6772.28
 20
-1382.43
 30
0
 40
12
100
AcDbArc
 50
0
 51
90
  0
SPLINE
  5
BE9
330
A02
100
AcDbEntity
  8
Shape2DView001
100
AcDbSpline
210
0
220
0
230
1
 70
8
 71
1
 72
17
 73
15
 74
0
 40
4.71239
 40
4.71239
 40
4.82459
 40
4.93679
 40
5.04899
 40
5.16119
 40
5.27339
 40
5.38559
 40
5.49779
 40
5.60999
 40
5.72219
 40
5.83439
 40
5.94659
 40
6.05879
 40
6.17099
 40
6.28319
 40
6.28319
 10
6784.28
 20
-1382.43
 30
0
 10
6784.79
 20
-1382.43
 30
0
 10
6785.28
 20
-1382.43
 30
0
 10
6785.77
 20
-1382.43
 30
0
 10
6786.23
 20
-1382.43
 30
0
 10
6786.68
 20
-1382.43
 30
0
 10
6787.09
 20
-1382.43
 30
0
 10
6787.46
 20
-1382.43
 30
0
 10
6787.8
 20
-1382.43
 30
0
 10
6788.09
 20
-1382.43
 30
0
 10
6788.34
 20
-1382.43
 30
0
 10
6788.53
 20
-1382.43
 30
0
 10
6788.67
 20
-1382.43
 30
0
 10
6788.75
 20
-1382.43
 30
0
 10
6788.78
 20
-1382.43
 30
0
  0
SPLINE
  5
BEA
330
A02
100
AcDbEntity
  8
Shape2DView001
100
AcDbSpline
210
0
220
0
230
1
 70
8
 71
2
 72
30
 73
27
 74
0
 40
9.42478
 40
9.42478
 40
9.42478
 40
9.53698
 40
9.53698
 40
9.64918
 40
9.64918
 40
9.76138
 40
9.76138
 40
9.87358
 40
9.87358
 40
9.98578
 40
9.98578
 40
10.098
 40
10.098
 40
10.2102
 40
10.2102
 40
10.3224
 40
10.3224
 40
10.4346
 40
10.4346
 40
10.5468
 40
10.5468
 40
10.659
 40
10.659
 40
10.7712
 40
10.7712
 40
10.9956
 40
10.9956
 40
10.9956
 10
6779.78
 20
-1382.43
 30
0
 10
6779.8
 20
-1382.43
 30
0
 10
6779.81
 20
-1382.43
 30
0
 10
6779.85
 20
-1382.43
 30
0
 10
6779.9
 20
-1382.43
 30
0
 10
6779.97
 20
-1382.43
 30
0
 10
6780.03
 20
-1382.43
 30
0
 10
6780.13
 20
-1382.43
 30
0
 10
6780.23
 20
-1382.43
 30
0
 10
6780.35
 20
-1382.43
 30
0
 10
6780.47
 20
-1382.43
 30
0
 10
6780.62
 20
-1382.43
 30
0
 10
6780.76
 20
-1382.43
 30
0
 10
6780.93
 20
-1382.43
 30
0
 10
6781.1
 20
-1382.43
 30
0
 10
6781.29
 20
-1382.43
 30
0
 10
6781.48
 20
-1382.43
 30
0
 10
6781.68
 20
-1382.43
 30
0
 10
6781.89
 20
-1382.43
 30
0
 10
6782.11
 20
-1382.43
 30
0
 10
6782.33
 20
-1382.43
 30
0
 10
6782.56
 20
-1382.43
 30
0
 10
6782.8
 20
-1382.43
 30
0
 10
6783.04
 20
-1382.43
 30
0
 10
6783.28
 20
-1382.43
 30
0
 10
6783.78
 20
-1382.43
 30
0
 10
6784.28
 20
-1382.43
 30
0
  0
LINE
  5
BEB
330
A02
100
AcDbEntity
  8
Shape2DView001
100
AcDbLine
 10
6784.28
 20
-1382.43
 30
0
 11
6784.28
 21
-1473.32
 31
0
  0
LINE
  5
BEC
330
A02
100
AcDbEntity
  8
Shape2DView001
100
AcDbLine
 10
6784.28
 20
-1492.32
 30
0
 11
6784.28
 21
-1527.65
 31
0
  0
LINE
  5
BED
330
A02
100
AcDbEntity
  8
Shape2DView001
100
AcDbLine
 10
5759.4
 20
-1527.65
 30
0
 11
5759.4
 21
-1492.32
 31
0
  0
LINE
  5
BEE
330
A02
100
AcDbEntity
  8
Shape2DView001
100
AcDbLine
 10
5759.4
 20
-1473.32
 30
0
 11
5759.4
 21
-1382.43
 31
0
  0
SPLINE
  5
BEF
330
A02
100
AcDbEntity
  8
Shape2DView001
100
AcDbSpline
210
0
220
0
230
1
 70
8
 71
1
 72
17
 73
15
 74
0
 40
0
 40
0
 40
0.1122
 40
0.224399
 40
0.336599
 40
0.448799
 40
0.560999
 40
0.673198
 40
0.785398
 40
0.897598
 40
1.0098
 40
1.122
 40
1.2342
 40
1.3464
 40
1.4586
 40
1.5708
 40
1.5708
 10
5759.4
 20
-1382.43
 30
0
 10
5759.91
 20
-1382.43
 30
0
 10
5760.4
 20
-1382.43
 30
0
 10
5760.89
 20
-1382.43
 30
0
 10
5761.36
 20
-1382.43
 30
0
 10
5761.8
 20
-1382.43
 30
0
 10
5762.21
 20
-1382.43
 30
0
 10
5762.58
 20
-1382.43
 30
0
 10
5762.92
 20
-1382.43
 30
0
 10
5763.21
 20
-1382.43
 30
0
 10
5763.46
 20
-1382.43
 30
0
 10
5763.65
 20
-1382.43
 30
0
 10
5763.79
 20
-1382.43
 30
0
 10
5763.87
 20
-1382.43
 30
0
 10
5763.9
 20
-1382.43
 30
0
  0
SPLINE
  5
BF0
330
A02
100
AcDbEntity
  8
Shape2DView001
100
AcDbSpline
210
0
220
0
230
1
 70
8
 71
2
 72
30
 73
27
 74
0
 40
4.71239
 40
4.71239
 40
4.71239
 40
4.82459
 40
4.82459
 40
4.93679
 40
4.93679
 40
5.04899
 40
5.04899
 40
5.16119
 40
5.16119
 40
5.27339
 40
5.27339
 40
5.38559
 40
5.38559
 40
5.49779
 40
5.49779
 40
5.60999
 40
5.60999
 40
5.72219
 40
5.72219
 40
5.83439
 40
5.83439
 40
5.94659
 40
5.94659
 40
6.05879
 40
6.05879
 40
6.28319
 40
6.28319
 40
6.28319
 10
5754.9
 20
-1382.43
 30
0
 10
5754.92
 20
-1382.43
 30
0
 10
5754.93
 20
-1382.43
 30
0
 10
5754.97
 20
-1382.43
 30
0
 10
5755.02
 20
-1382.43
 30
0
 10
5755.09
 20
-1382.43
 30
0
 10
5755.16
 20
-1382.43
 30
0
 10
5755.25
 20
-1382.43
 30
0
 10
5755.35
 20
-1382.43
 30
0
 10
5755.47
 20
-1382.43
 30
0
 10
5755.59
 20
-1382.43
 30
0
 10
5755.74
 20
-1382.43
 30
0
 10
5755.88
 20
-1382.43
 30
0
 10
5756.05
 20
-1382.43
 30
0
 10
5756.22
 20
-1382.43
 30
0
 10
5756.41
 20
-1382.43
 30
0
 10
5756.6
 20
-1382.43
 30
0
 10
5756.8
 20
-1382.43
 30
0
 10
5757.01
 20
-1382.43
 30
0
 10
5757.23
 20
-1382.43
 30
0
 10
5757.45
 20
-1382.43
 30
0
 10
5757.68
 20
-1382.43
 30
0
 10
5757.92
 20
-1382.43
 30
0
 10
5758.16
 20
-1382.43
 30
0
 10
5758.4
 20
-1382.43
 30
0
 10
5758.9
 20
-1382.43
 30
0
 10
5759.4
 20
-1382.43
 30
0
  0
ARC
  5
BF1
330
A02
100
AcDbEntity
  8
Shape2DView001
100
AcDbCircle
 10
5771.4
 20
-1382.43
 30
0
 40
12
100
AcDbArc
 50
90
 51
180
  0
SPLINE
  5
BF2
330
A02
100
AcDbEntity
  8
Shape2DView001
100
AcDbSpline
210
0
220
0
230
1
 70
8
 71
1
 72
17
 73
15
 74
0
 40
4.71239
 40
4.71239
 40
4.82459
 40
4.93679
 40
5.04899
 40
5.16119
 40
5.27339
 40
5.38559
 40
5.49779
 40
5.60999
 40
5.72219
 40
5.83439
 40
5.94659
 40
6.05879
 40
6.17099
 40
6.28319
 40
6.28319
 10
5771.4
 20
-1370.43
 30
0
 10
5771.4
 20
-1369.93
 30
0
 10
5771.4
 20
-1369.43
 30
0
 10
5771.4
 20
-1368.95
 30
0
 10
5771.4
 20
-1368.48
 30
0
 10
5771.4
 20
-1368.04
 30
0
 10
5771.4
 20
-1367.63
 30
0
 10
5771.4
 20
-1367.25
 30
0
 10
5771.4
 20
-1366.91
 30
0
 10
5771.4
 20
-1366.62
 30
0
 10
5771.4
 20
-1366.38
 30
0
 10
5771.4
 20
-1366.18
 30
0
 10
5771.4
 20
-1366.04
 30
0
 10
5771.4
 20
-1365.96
 30
0
 10
5771.4
 20
-1365.93
 30
0
  0
SPLINE
  5
BF3
330
A02
100
AcDbEntity
  8
Shape2DView001
100
AcDbSpline
210
0
220
0
230
1
 70
8
 71
2
 72
30
 73
27
 74
0
 40
9.42478
 40
9.42478
 40
9.42478
 40
9.53698
 40
9.53698
 40
9.64918
 40
9.64918
 40
9.76138
 40
9.76138
 40
9.87358
 40
9.87358
 40
9.98578
 40
9.98578
 40
10.098
 40
10.098
 40
10.2102
 40
10.2102
 40
10.3224
 40
10.3224
 40
10.4346
 40
10.4346
 40
10.5468
 40
10.5468
 40
10.659
 40
10.659
 40
10.7712
 40
10.7712
 40
10.9956
 40
10.9956
 40
10.9956
 10
5771.4
 20
-1374.93
 30
0
 10
5771.4
 20
-1374.92
 30
0
 10
5771.4
 20
-1374.9
 30
0
 10
5771.4
 20
-1374.86
 30
0
 10
5771.4
 20
-1374.82
 30
0
 10
5771.4
 20
-1374.75
 30
0
 10
5771.4
 20
-1374.68
 30
0
 10
5771.4
 20
-1374.58
 30
0
 10
5771.4
 20
-1374.49
 30
0
 10
5771.4
 20
-1374.36
 30
0
 10
5771.4
 20
-1374.24
 30
0
 10
5771.4
 20
-1374.1
 30
0
 10
5771.4
 20
-1373.95
 30
0
 10
5771.4
 20
-1373.78
 30
0
 10
5771.4
 20
-1373.61
 30
0
 10
5771.4
 20
-1373.43
 30
0
 10
5771.4
 20
-1373.24
 30
0
 10
5771.4
 20
-1373.03
 30
0
 10
5771.4
 20
-1372.83
 30
0
 10
5771.4
 20
-1372.61
 30
0
 10
5771.4
 20
-1372.38
 30
0
 10
5771.4
 20
-1372.15
 30
0
 10
5771.4
 20
-1371.92
 30
0
 10
5771.4
 20
-1371.68
 30
0
 10
5771.4
 20
-1371.43
 30
0
 10
5771.4
 20
-1370.94
 30
0
 10
5771.4
 20
-1370.43
 30
0
  0
LINE
  5
BF4
330
A02
100
AcDbEntity
  8
Shape2DView001
100
AcDbLine
 10
5771.4
 20
-1370.43
 30
0
 11
5811.4
 21
-1370.43
 31
0
  0
SPLINE
  5
BF5
330
A02
100
AcDbEntity
  8
Shape2DView001
100
AcDbSpline
210
0
220
0
230
1
 70
8
 71
1
 72
17
 73
15
 74
0
 40
0
 40
0
 40
0.1122
 40
0.224399
 40
0.336599
 40
0.448799
 40
0.560999
 40
0.673198
 40
0.785398
 40
0.897598
 40
1.0098
 40
1.122
 40
1.2342
 40
1.3464
 40
1.4586
 40
1.5708
 40
1.5708
 10
5811.4
 20
-1370.43
 30
0
 10
5811.4
 20
-1370.94
 30
0
 10
5811.4
 20
-1371.43
 30
0
 10
5811.4
 20
-1371.92
 30
0
 10
5811.4
 20
-1372.38
 30
0
 10
5811.4
 20
-1372.83
 30
0
 10
5811.4
 20
-1373.24
 30
0
 10
5811.4
 20
-1373.61
 30
0
 10
5811.4
 20
-1373.95
 30
0
 10
5811.4
 20
-1374.24
 30
0
 10
5811.4
 20
-1374.49
 30
0
 10
5811.4
 20
-1374.68
 30
0
 10
5811.4
 20
-1374.82
 30
0
 10
5811.4
 20
-1374.9
 30
0
 10
5811.4
 20
-1374.93
 30
0
  0
SPLINE
  5
BF6
330
A02
100
AcDbEntity
  8
Shape2DView001
100
AcDbSpline
210
0
220
0
230
1
 70
8
 71
2
 72
30
 73
27
 74
0
 40
4.71239
 40
4.71239
 40
4.71239
 40
4.82459
 40
4.82459
 40
4.93679
 40
4.93679
 40
5.04899
 40
5.04899
 40
5.16119
 40
5.16119
 40
5.27339
 40
5.27339
 40
5.38559
 40
5.38559
 40
5.49779
 40
5.49779
 40
5.60999
 40
5.60999
 40
5.72219
 40
5.72219
 40
5.83439
 40
5.83439
 40
5.94659
 40
5.94659
 40
6.05879
 40
6.05879
 40
6.28319
 40
6.28319
 40
6.28319
 10
5811.4
 20
-1365.93
 30
0
 10
5811.4
 20
-1365.95
 30
0
 10
5811.4
 20
-1365.96
 30
0
 10
5811.4
 20
-1366
 30
0
 10
5811.4
 20
-1366.04
 30
0
 10
5811.4
 20
-1366.11
 30
0
 10
5811.4
 20
-1366.18
 30
0
 10
5811.4
 20
-1366.28
 30
0
 10
5811.4
 20
-1366.38
 30
0
 10
5811.4
 20
-1366.5
 30
0
 10
5811.4
 20
-1366.62
 30
0
 10
5811.4
 20
-1366.77
 30
0
 10
5811.4
 20
-1366.91
 30
0
 10
5811.4
 20
-1367.08
 30
0
 10
5811.4
 20
-1367.25
 30
0
 10
5811.4
 20
-1367.44
 30
0
 10
5811.4
 20
-1367.63
 30
0
 10
5811.4
 20
-1367.83
 30
0
 10
5811.4
 20
-1368.04
 30
0
 10
5811.4
 20
-1368.26
 30
0
 10
5811.4
 20
-1368.48
 30
0
 10
5811.4
 20
-1368.71
 30
0
 10
5811.4
 20
-1368.95
 30
0
 10
5811.4
 20
-1369.19
 30
0
 10
5811.4
 20
-1369.43
 30
0
 10
5811.4
 20
-1369.93
 30
0
 10
5811.4
 20
-1370.43
 30
0
  0
ARC
  5
BF7
330
A02
100
AcDbEntity
  8
Shape2DView001
100
AcDbCircle
 10
5811.4
 20
-1382.43
 30
0
 40
12
100
AcDbArc
 50
0
 51
90
  0
SPLINE
  5
BF8
330
A02
100
AcDbEntity
  8
Shape2DView001
100
AcDbSpline
210
0
220
0
230
1
 70
8
 71
1
 72
17
 73
15
 74
0
 40
4.71239
 40
4.71239
 40
4.82459
 40
4.93679
 40
5.04899
 40
5.16119
 40
5.27339
 40
5.38559
 40
5.49779
 40
5.60999
 40
5.72219
 40
5.83439
 40
5.94659
 40
6.05879
 40
6.17099
 40
6.28319
 40
6.28319
 10
5823.4
 20
-1382.43
 30
0
 10
5823.91
 20
-1382.43
 30
0
 10
5824.4
 20
-1382.43
 30
0
 10
5824.89
 20
-1382.43
 30
0
 10
5825.36
 20
-1382.43
 30
0
 10
5825.8
 20
-1382.43
 30
0
 10
5826.21
 20
-1382.43
 30
0
 10
5826.58
 20
-1382.43
 30
0
 10
5826.92
 20
-1382.43
 30
0
 10
5827.21
 20
-1382.43
 30
0
 10
5827.46
 20
-1382.43
 30
0
 10
5827.65
 20
-1382.43
 30
0
 10
5827.79
 20
-1382.43
 30
0
 10
5827.87
 20
-1382.43
 30
0
 10
5827.9
 20
-1382.43
 30
0
  0
SPLINE
  5
BF9
330
A02
100
AcDbEntity
  8
Shape2DView001
100
AcDbSpline
210
0
220
0
230
1
 70
8
 71
2
 72
30
 73
27
 74
0
 40
9.42478
 40
9.42478
 40
9.42478
 40
9.53698
 40
9.53698
 40
9.64918
 40
9.64918
 40
9.76138
 40
9.76138
 40
9.87358
 40
9.87358
 40
9.98578
 40
9.98578
 40
10.098
 40
10.098
 40
10.2102
 40
10.2102
 40
10.3224
 40
10.3224
 40
10.4346
 40
10.4346
 40
10.5468
 40
10.5468
 40
10.659
 40
10.659
 40
10.7712
 40
10.7712
 40
10.9956
 40
10.9956
 40
10.9956
 10
5818.9
 20
-1382.43
 30
0
 10
5818.92
 20
-1382.43
 30
0
 10
5818.93
 20
-1382.43
 30
0
 10
5818.97
 20
-1382.43
 30
0
 10
5819.02
 20
-1382.43
 30
0
 10
5819.09
 20
-1382.43
 30
0
 10
5819.16
 20
-1382.43
 30
0
 10
5819.25
 20
-1382.43
 30
0
 10
5819.35
 20
-1382.43
 30
0
 10
5819.47
 20
-1382.43
 30
0
 10
5819.59
 20
-1382.43
 30
0
 10
5819.74
 20
-1382.43
 30
0
 10
5819.88
 20
-1382.43
 30
0
 10
5820.05
 20
-1382.43
 30
0
 10
5820.22
 20
-1382.43
 30
0
 10
5820.41
 20
-1382.43
 30
0
 10
5820.6
 20
-1382.43
 30
0
 10
5820.8
 20
-1382.43
 30
0
 10
5821.01
 20
-1382.43
 30
0
 10
5821.23
 20
-1382.43
 30
0
 10
5821.45
 20
-1382.43
 30
0
 10
5821.68
 20
-1382.43
 30
0
 10
5821.92
 20
-1382.43
 30
0
 10
5822.16
 20
-1382.43
 30
0
 10
5822.4
 20
-1382.43
 30
0
 10
5822.9
 20
-1382.43
 30
0
 10
5823.4
 20
-1382.43
 30
0
  0
LINE
  5
BFA
330
A02
100
AcDbEntity
  8
Shape2DView001
100
AcDbLine
 10
5823.4
 20
-1382.43
 30
0
 11
5823.4
 21
-1473.32
 31
0
  0
LINE
  5
BFB
330
A02
100
AcDbEntity
  8
Shape2DView001
100
AcDbLine
 10
5823.4
 20
-1492.32
 30
0
 11
5823.4
 21
-1527.65
 31
0
  0
LINE
  5
BFC
330
A02
100
AcDbEntity
  8
Shape2DView001
100
AcDbLine
 10
6226.84
 20
-1279.94
 30
0
 11
6316.84
 21
-1279.94
 31
0
  0
LINE
  5
BFD
330
A02
100
AcDbEntity
  8
Shape2DView001
100
AcDbLine
 10
7067.4
 20
-1279.94
 30
0
 11
7157.4
 21
-1279.94
 31
0
  0
LINE
  5
BFE
330
A02
100
AcDbEntity
  8
Shape2DView001
100
AcDbLine
 10
5386.28
 20
-1279.94
 30
0
 11
5476.28
 21
-1279.94
 31
0
  0
SPLINE
  5
BFF
330
A02
100
AcDbEntity
  8
Shape2DView001
100
AcDbSpline
210
0
220
0
230
1
 70
8
 71
1
 72
17
 73
15
 74
0
 40
1.5708
 40
1.5708
 40
1.60045
 40
1.63011
 40
1.65976
 40
1.68942
 40
1.71908
 40
1.74873
 40
1.77839
 40
1.80805
 40
1.8377
 40
1.86736
 40
1.89701
 40
1.92667
 40
1.95633
 40
1.98598
 40
1.98598
 10
6091.41
 20
-1402.27
 30
0
 10
6091.31
 20
-1402.27
 30
0
 10
6091
 20
-1402.27
 30
0
 10
6090.48
 20
-1402.27
 30
0
 10
6089.76
 20
-1402.27
 30
0
 10
6088.83
 20
-1402.27
 30
0
 10
6087.69
 20
-1402.27
 30
0
 10
6086.36
 20
-1402.27
 30
0
 10
6084.81
 20
-1402.27
 30
0
 10
6083.07
 20
-1402.27
 30
0
 10
6081.13
 20
-1402.27
 30
0
 10
6078.99
 20
-1402.27
 30
0
 10
6076.65
 20
-1402.27
 30
0
 10
6074.12
 20
-1402.27
 30
0
 10
6071.4
 20
-1402.27
 30
0
  0
LINE
  5
C00
330
A02
100
AcDbEntity
  8
Shape2DView001
100
AcDbLine
 10
5945.4
 20
-1402.27
 30
0
 11
5935.4
 21
-1402.27
 31
0
  0
LINE
  5
C01
330
A02
100
AcDbEntity
  8
Shape2DView001
100
AcDbLine
 10
5971.4
 20
-1402.27
 30
0
 11
5963.42
 21
-1402.27
 31
0
  0
SPLINE
  5
C02
330
A02
100
AcDbEntity
  8
Shape2DView001
100
AcDbSpline
210
0
220
0
230
1
 70
8
 71
1
 72
17
 73
15
 74
0
 40
1.5708
 40
1.5708
 40
1.60045
 40
1.63011
 40
1.65976
 40
1.68942
 40
1.71908
 40
1.74873
 40
1.77839
 40
1.80805
 40
1.8377
 40
1.86736
 40
1.89701
 40
1.92667
 40
1.95633
 40
1.98598
 40
1.98598
 10
7052.29
 20
-1402.27
 30
0
 10
7052.19
 20
-1402.27
 30
0
 10
7051.88
 20
-1402.27
 30
0
 10
7051.36
 20
-1402.27
 30
0
 10
7050.64
 20
-1402.27
 30
0
 10
7049.71
 20
-1402.27
 30
0
 10
7048.57
 20
-1402.27
 30
0
 10
7047.24
 20
-1402.27
 30
0
 10
7045.69
 20
-1402.27
 30
0
 10
7043.95
 20
-1402.27
 30
0
 10
7042.01
 20
-1402.27
 30
0
 10
7039.87
 20
-1402.27
 30
0
 10
7037.53
 20
-1402.27
 30
0
 10
7035
 20
-1402.27
 30
0
 10
7032.28
 20
-1402.27
 30
0
  0
LINE
  5
C03
330
A02
100
AcDbEntity
  8
Shape2DView001
100
AcDbLine
 10
6906.28
 20
-1402.27
 30
0
 11
6896.28
 21
-1402.27
 31
0
  0
LINE
  5
C04
330
A02
100
AcDbEntity
  8
Shape2DView001
100
AcDbLine
 10
6932.28
 20
-1402.27
 30
0
 11
6924.3
 21
-1402.27
 31
0
  0
LINE
  5
C05
330
A02
100
AcDbEntity
  8
Shape2DView001
100
AcDbLine
 10
6724.78
 20
-1527.65
 30
0
 11
6724.78
 21
-1492.32
 31
0
  0
LINE
  5
C06
330
A02
100
AcDbEntity
  8
Shape2DView001
100
AcDbLine
 10
6724.78
 20
-1473.32
 30
0
 11
6724.78
 21
-1382.43
 31
0
  0
LINE
  5
C07
330
A02
100
AcDbEntity
  8
Shape2DView001
100
AcDbLine
 10
6715.78
 20
-1527.65
 30
0
 11
6715.78
 21
-1492.32
 31
0
  0
LINE
  5
C08
330
A02
100
AcDbEntity
  8
Shape2DView001
100
AcDbLine
 10
6715.78
 20
-1473.32
 30
0
 11
6715.78
 21
-1382.43
 31
0
  0
SPLINE
  5
C09
330
A02
100
AcDbEntity
  8
Shape2DView001
100
AcDbSpline
210
0
220
0
230
1
 70
8
 71
3
 72
14
 73
10
 74
0
 40
0
 40
0
 40
0
 40
0
 40
0.235013
 40
0.235013
 40
0.235013
 40
0.58003
 40
0.58003
 40
0.58003
 40
1
 40
1
 40
1
 40
1
 10
6724.78
 20
-1382.43
 30
0
 10
6724.78
 20
-1381.51
 30
0
 10
6724.95
 20
-1380.59
 30
0
 10
6725.29
 20
-1379.73
 30
0
 10
6725.77
 20
-1378.46
 30
0
 10
6726.61
 20
-1377.33
 30
0
 10
6727.69
 20
-1376.51
 30
0
 10
6728.99
 20
-1375.49
 30
0
 10
6730.63
 20
-1374.93
 30
0
 10
6732.28
 20
-1374.93
 30
0
  0
SPLINE
  5
C0A
330
A02
100
AcDbEntity
  8
Shape2DView001
100
AcDbSpline
210
0
220
0
230
1
 70
8
 71
3
 72
20
 73
16
 74
0
 40
0
 40
0
 40
0
 40
0
 40
0.145008
 40
0.145008
 40
0.145008
 40
0.435023
 40
0.435023
 40
0.435023
 40
0.580031
 40
0.580031
 40
0.580031
 40
0.790015
 40
0.790015
 40
0.790015
 40
1
 40
1
 40
1
 40
1
 10
6715.78
 20
-1382.43
 30
0
 10
6715.78
 20
-1381.18
 30
0
 10
6715.93
 20
-1379.93
 30
0
 10
6716.21
 20
-1378.71
 30
0
 10
6716.77
 20
-1376.26
 30
0
 10
6717.9
 20
-1373.96
 30
0
 10
6719.49
 20
-1372.01
 30
0
 10
6720.28
 20
-1371.04
 30
0
 10
6721.18
 20
-1370.16
 30
0
 10
6722.17
 20
-1369.39
 30
0
 10
6723.6
 20
-1368.28
 30
0
 10
6725.22
 20
-1367.41
 30
0
 10
6726.94
 20
-1366.82
 30
0
 10
6728.65
 20
-1366.23
 30
0
 10
6730.47
 20
-1365.93
 30
0
 10
6732.28
 20
-1365.93
 30
0
  0
LINE
  5
C0B
330
A02
100
AcDbEntity
  8
Shape2DView001
100
AcDbLine
 10
6732.28
 20
-1374.93
 30
0
 11
6772.28
 21
-1374.93
 31
0
  0
LINE
  5
C0C
330
A02
100
AcDbEntity
  8
Shape2DView001
100
AcDbLine
 10
6732.28
 20
-1365.93
 30
0
 11
6772.28
 21
-1365.93
 31
0
  0
SPLINE
  5
C0D
330
A02
100
AcDbEntity
  8
Shape2DView001
100
AcDbSpline
210
0
220
0
230
1
 70
8
 71
3
 72
14
 73
10
 74
0
 40
0
 40
0
 40
0
 40
0
 40
0.265022
 40
0.265022
 40
0.265022
 40
0.540045
 40
0.540045
 40
0.540045
 40
1
 40
1
 40
1
 40
1
 10
6772.28
 20
-1374.93
 30
0
 10
6773.32
 20
-1374.93
 30
0
 10
6774.36
 20
-1375.15
 30
0
 10
6775.31
 20
-1375.57
 30
0
 10
6776.3
 20
-1376.01
 30
0
 10
6777.19
 20
-1376.66
 30
0
 10
6777.91
 20
-1377.47
 30
0
 10
6779.11
 20
-1378.82
 30
0
 10
6779.79
 20
-1380.62
 30
0
 10
6779.78
 20
-1382.43
 30
0
  0
SPLINE
  5
C0E
330
A02
100
AcDbEntity
  8
Shape2DView001
100
AcDbSpline
210
0
220
0
230
1
 70
8
 71
3
 72
17
 73
13
 74
0
 40
0
 40
0
 40
0
 40
0
 40
0.245022
 40
0.245022
 40
0.245022
 40
0.535047
 40
0.535047
 40
0.535047
 40
0.767524
 40
0.767524
 40
0.767524
 40
1
 40
1
 40
1
 40
1
 10
6772.28
 20
-1365.93
 30
0
 10
6774.4
 20
-1365.93
 30
0
 10
6776.52
 20
-1366.34
 30
0
 10
6778.48
 20
-1367.14
 30
0
 10
6780.8
 20
-1368.08
 30
0
 10
6782.9
 20
-1369.56
 30
0
 10
6784.57
 20
-1371.42
 30
0
 10
6785.91
 20
-1372.92
 30
0
 10
6786.98
 20
-1374.66
 30
0
 10
6787.69
 20
-1376.54
 30
0
 10
6788.41
 20
-1378.41
 30
0
 10
6788.78
 20
-1380.42
 30
0
 10
6788.78
 20
-1382.43
 30
0
  0
LINE
  5
C0F
330
A02
100
AcDbEntity
  8
Shape2DView001
100
AcDbLine
 10
6779.78
 20
-1382.43
 30
0
 11
6779.78
 21
-1473.32
 31
0
  0
LINE
  5
C10
330
A02
100
AcDbEntity
  8
Shape2DView001
100
AcDbLine
 10
6779.78
 20
-1492.32
 30
0
 11
6779.78
 21
-1527.65
 31
0
  0
LINE
  5
C11
330
A02
100
AcDbEntity
  8
Shape2DView001
100
AcDbLine
 10
6788.78
 20
-1382.43
 30
0
 11
6788.78
 21
-1473.32
 31
0
  0
LINE
  5
C12
330
A02
100
AcDbEntity
  8
Shape2DView001
100
AcDbLine
 10
6788.78
 20
-1492.32
 30
0
 11
6788.78
 21
-1527.65
 31
0
  0
SPLINE
  5
C13
330
A02
100
AcDbEntity
  8
Shape2DView001
100
AcDbSpline
210
0
220
0
230
1
 70
8
 71
3
 72
14
 73
10
 74
0
 40
0
 40
0
 40
0
 40
0
 40
0.235013
 40
0.235013
 40
0.235013
 40
0.58003
 40
0.58003
 40
0.58003
 40
1
 40
1
 40
1
 40
1
 10
6724.78
 20
-1382.43
 30
0
 10
6724.78
 20
-1381.51
 30
0
 10
6724.95
 20
-1380.59
 30
0
 10
6725.29
 20
-1379.73
 30
0
 10
6725.77
 20
-1378.46
 30
0
 10
6726.61
 20
-1377.33
 30
0
 10
6727.69
 20
-1376.51
 30
0
 10
6728.99
 20
-1375.49
 30
0
 10
6730.63
 20
-1374.93
 30
0
 10
6732.28
 20
-1374.93
 30
0
  0
SPLINE
  5
C14
330
A02
100
AcDbEntity
  8
Shape2DView001
100
AcDbSpline
210
0
220
0
230
1
 70
8
 71
3
 72
20
 73
16
 74
0
 40
0
 40
0
 40
0
 40
0
 40
0.145008
 40
0.145008
 40
0.145008
 40
0.435023
 40
0.435023
 40
0.435023
 40
0.580031
 40
0.580031
 40
0.580031
 40
0.790015
 40
0.790015
 40
0.790015
 40
1
 40
1
 40
1
 40
1
 10
6715.78
 20
-1382.43
 30
0
 10
6715.78
 20
-1381.18
 30
0
 10
6715.93
 20
-1379.93
 30
0
 10
6716.21
 20
-1378.71
 30
0
 10
6716.77
 20
-1376.26
 30
0
 10
6717.9
 20
-1373.96
 30
0
 10
6719.49
 20
-1372.01
 30
0
 10
6720.28
 20
-1371.04
 30
0
 10
6721.18
 20
-1370.16
 30
0
 10
6722.17
 20
-1369.39
 30
0
 10
6723.6
 20
-1368.28
 30
0
 10
6725.22
 20
-1367.41
 30
0
 10
6726.94
 20
-1366.82
 30
0
 10
6728.65
 20
-1366.23
 30
0
 10
6730.47
 20
-1365.93
 30
0
 10
6732.28
 20
-1365.93
 30
0
  0
SPLINE
  5
C15
330
A02
100
AcDbEntity
  8
Shape2DView001
100
AcDbSpline
210
0
220
0
230
1
 70
8
 71
3
 72
17
 73
13
 74
0
 40
0
 40
0
 40
0
 40
0
 40
0.245022
 40
0.245022
 40
0.245022
 40
0.535047
 40
0.535047
 40
0.535047
 40
0.767524
 40
0.767524
 40
0.767524
 40
1
 40
1
 40
1
 40
1
 10
6772.28
 20
-1365.93
 30
0
 10
6774.4
 20
-1365.93
 30
0
 10
6776.52
 20
-1366.34
 30
0
 10
6778.48
 20
-1367.14
 30
0
 10
6780.8
 20
-1368.08
 30
0
 10
6782.9
 20
-1369.56
 30
0
 10
6784.57
 20
-1371.42
 30
0
 10
6785.91
 20
-1372.92
 30
0
 10
6786.98
 20
-1374.66
 30
0
 10
6787.69
 20
-1376.54
 30
0
 10
6788.41
 20
-1378.41
 30
0
 10
6788.78
 20
-1380.42
 30
0
 10
6788.78
 20
-1382.43
 30
0
  0
LINE
  5
C16
330
A02
100
AcDbEntity
  8
Shape2DView001
100
AcDbLine
 10
5763.9
 20
-1527.65
 30
0
 11
5763.9
 21
-1492.32
 31
0
  0
LINE
  5
C17
330
A02
100
AcDbEntity
  8
Shape2DView001
100
AcDbLine
 10
5763.9
 20
-1473.32
 30
0
 11
5763.9
 21
-1382.43
 31
0
  0
LINE
  5
C18
330
A02
100
AcDbEntity
  8
Shape2DView001
100
AcDbLine
 10
5754.9
 20
-1527.65
 30
0
 11
5754.9
 21
-1492.32
 31
0
  0
LINE
  5
C19
330
A02
100
AcDbEntity
  8
Shape2DView001
100
AcDbLine
 10
5754.9
 20
-1473.32
 30
0
 11
5754.9
 21
-1382.43
 31
0
  0
SPLINE
  5
C1A
330
A02
100
AcDbEntity
  8
Shape2DView001
100
AcDbSpline
210
0
220
0
230
1
 70
8
 71
3
 72
14
 73
10
 74
0
 40
0
 40
0
 40
0
 40
0
 40
0.235013
 40
0.235013
 40
0.235013
 40
0.58003
 40
0.58003
 40
0.58003
 40
1
 40
1
 40
1
 40
1
 10
5763.9
 20
-1382.43
 30
0
 10
5763.9
 20
-1381.51
 30
0
 10
5764.07
 20
-1380.59
 30
0
 10
5764.41
 20
-1379.73
 30
0
 10
5764.9
 20
-1378.46
 30
0
 10
5765.73
 20
-1377.33
 30
0
 10
5766.81
 20
-1376.51
 30
0
 10
5768.11
 20
-1375.49
 30
0
 10
5769.75
 20
-1374.93
 30
0
 10
5771.4
 20
-1374.93
 30
0
  0
SPLINE
  5
C1B
330
A02
100
AcDbEntity
  8
Shape2DView001
100
AcDbSpline
210
0
220
0
230
1
 70
8
 71
3
 72
20
 73
16
 74
0
 40
0
 40
0
 40
0
 40
0
 40
0.145008
 40
0.145008
 40
0.145008
 40
0.435023
 40
0.435023
 40
0.435023
 40
0.580031
 40
0.580031
 40
0.580031
 40
0.790015
 40
0.790015
 40
0.790015
 40
1
 40
1
 40
1
 40
1
 10
5754.9
 20
-1382.43
 30
0
 10
5754.9
 20
-1381.18
 30
0
 10
5755.05
 20
-1379.93
 30
0
 10
5755.33
 20
-1378.71
 30
0
 10
5755.89
 20
-1376.26
 30
0
 10
5757.02
 20
-1373.96
 30
0
 10
5758.61
 20
-1372.01
 30
0
 10
5759.4
 20
-1371.04
 30
0
 10
5760.3
 20
-1370.16
 30
0
 10
5761.29
 20
-1369.39
 30
0
 10
5762.72
 20
-1368.28
 30
0
 10
5764.34
 20
-1367.41
 30
0
 10
5766.06
 20
-1366.82
 30
0
 10
5767.77
 20
-1366.23
 30
0
 10
5769.59
 20
-1365.93
 30
0
 10
5771.4
 20
-1365.93
 30
0
  0
LINE
  5
C1C
330
A02
100
AcDbEntity
  8
Shape2DView001
100
AcDbLine
 10
5771.4
 20
-1374.93
 30
0
 11
5811.4
 21
-1374.93
 31
0
  0
LINE
  5
C1D
330
A02
100
AcDbEntity
  8
Shape2DView001
100
AcDbLine
 10
5771.4
 20
-1365.93
 30
0
 11
5811.4
 21
-1365.93
 31
0
  0
SPLINE
  5
C1E
330
A02
100
AcDbEntity
  8
Shape2DView001
100
AcDbSpline
210
0
220
0
230
1
 70
8
 71
3
 72
14
 73
10
 74
0
 40
0
 40
0
 40
0
 40
0
 40
0.265022
 40
0.265022
 40
0.265022
 40
0.540045
 40
0.540045
 40
0.540045
 40
1
 40
1
 40
1
 40
1
 10
5811.4
 20
-1374.93
 30
0
 10
5812.44
 20
-1374.93
 30
0
 10
5813.48
 20
-1375.15
 30
0
 10
5814.44
 20
-1375.57
 30
0
 10
5815.42
 20
-1376.01
 30
0
 10
5816.31
 20
-1376.66
 30
0
 10
5817.03
 20
-1377.47
 30
0
 10
5818.23
 20
-1378.82
 30
0
 10
5818.91
 20
-1380.62
 30
0
 10
5818.9
 20
-1382.43
 30
0
  0
SPLINE
  5
C1F
330
A02
100
AcDbEntity
  8
Shape2DView001
100
AcDbSpline
210
0
220
0
230
1
 70
8
 71
3
 72
17
 73
13
 74
0
 40
0
 40
0
 40
0
 40
0
 40
0.245022
 40
0.245022
 40
0.245022
 40
0.535047
 40
0.535047
 40
0.535047
 40
0.767524
 40
0.767524
 40
0.767524
 40
1
 40
1
 40
1
 40
1
 10
5811.4
 20
-1365.93
 30
0
 10
5813.52
 20
-1365.93
 30
0
 10
5815.64
 20
-1366.34
 30
0
 10
5817.6
 20
-1367.14
 30
0
 10
5819.92
 20
-1368.08
 30
0
 10
5822.02
 20
-1369.56
 30
0
 10
5823.69
 20
-1371.42
 30
0
 10
5825.03
 20
-1372.92
 30
0
 10
5826.1
 20
-1374.66
 30
0
 10
5826.81
 20
-1376.54
 30
0
 10
5827.53
 20
-1378.41
 30
0
 10
5827.9
 20
-1380.42
 30
0
 10
5827.9
 20
-1382.43
 30
0
  0
LINE
  5
C20
330
A02
100
AcDbEntity
  8
Shape2DView001
100
AcDbLine
 10
5818.9
 20
-1382.43
 30
0
 11
5818.9
 21
-1473.32
 31
0
  0
LINE
  5
C21
330
A02
100
AcDbEntity
  8
Shape2DView001
100
AcDbLine
 10
5818.9
 20
-1492.32
 30
0
 11
5818.9
 21
-1527.65
 31
0
  0
LINE
  5
C22
330
A02
100
AcDbEntity
  8
Shape2DView001
100
AcDbLine
 10
5827.9
 20
-1382.43
 30
0
 11
5827.9
 21
-1473.32
 31
0
  0
LINE
  5
C23
330
A02
100
AcDbEntity
  8
Shape2DView001
100
AcDbLine
 10
5827.9
 20
-1492.32
 30
0
 11
5827.9
 21
-1527.65
 31
0
  0
SPLINE
  5
C24
330
A02
100
AcDbEntity
  8
Shape2DView001
100
AcDbSpline
210
0
220
0
230
1
 70
8
 71
3
 72
14
 73
10
 74
0
 40
0
 40
0
 40
0
 40
0
 40
0.235013
 40
0.235013
 40
0.235013
 40
0.58003
 40
0.58003
 40
0.58003
 40
1
 40
1
 40
1
 40
1
 10
5763.9
 20
-1382.43
 30
0
 10
5763.9
 20
-1381.51
 30
0
 10
5764.07
 20
-1380.59
 30
0
 10
5764.41
 20
-1379.73
 30
0
 10
5764.9
 20
-1378.46
 30
0
 10
5765.73
 20
-1377.33
 30
0
 10
5766.81
 20
-1376.51
 30
0
 10
5768.11
 20
-1375.49
 30
0
 10
5769.75
 20
-1374.93
 30
0
 10
5771.4
 20
-1374.93
 30
0
  0
SPLINE
  5
C25
330
A02
100
AcDbEntity
  8
Shape2DView001
100
AcDbSpline
210
0
220
0
230
1
 70
8
 71
3
 72
20
 73
16
 74
0
 40
0
 40
0
 40
0
 40
0
 40
0.145008
 40
0.145008
 40
0.145008
 40
0.435023
 40
0.435023
 40
0.435023
 40
0.580031
 40
0.580031
 40
0.580031
 40
0.790015
 40
0.790015
 40
0.790015
 40
1
 40
1
 40
1
 40
1
 10
5754.9
 20
-1382.43
 30
0
 10
5754.9
 20
-1381.18
 30
0
 10
5755.05
 20
-1379.93
 30
0
 10
5755.33
 20
-1378.71
 30
0
 10
5755.89
 20
-1376.26
 30
0
 10
5757.02
 20
-1373.96
 30
0
 10
5758.61
 20
-1372.01
 30
0
 10
5759.4
 20
-1371.04
 30
0
 10
5760.3
 20
-1370.16
 30
0
 10
5761.29
 20
-1369.39
 30
0
 10
5762.72
 20
-1368.28
 30
0
 10
5764.34
 20
-1367.41
 30
0
 10
5766.06
 20
-1366.82
 30
0
 10
5767.77
 20
-1366.23
 30
0
 10
5769.59
 20
-1365.93
 30
0
 10
5771.4
 20
-1365.93
 30
0
  0
SPLINE
  5
C26
330
A02
100
AcDbEntity
  8
Shape2DView001
100
AcDbSpline
210
0
220
0
230
1
 70
8
 71
3
 72
17
 73
13
 74
0
 40
0
 40
0
 40
0
 40
0
 40
0.245022
 40
0.245022
 40
0.245022
 40
0.535047
 40
0.535047
 40
0.535047
 40
0.767524
 40
0.767524
 40
0.767524
 40
1
 40
1
 40
1
 40
1
 10
5811.4
 20
-1365.93
 30
0
 10
5813.52
 20
-1365.93
 30
0
 10
5815.64
 20
-1366.34
 30
0
 10
5817.6
 20
-1367.14
 30
0
 10
5819.92
 20
-1368.08
 30
0
 10
5822.02
 20
-1369.56
 30
0
 10
5823.69
 20
-1371.42
 30
0
 10
5825.03
 20
-1372.92
 30
0
 10
5826.1
 20
-1374.66
 30
0
 10
5826.81
 20
-1376.54
 30
0
 10
5827.53
 20
-1378.41
 30
0
 10
5827.9
 20
-1380.42
 30
0
 10
5827.9
 20
-1382.43
 30
0
  0
SPLINE
  5
C27
330
A02
100
AcDbEntity
  8
Shape2DView001
100
AcDbSpline
210
0
220
0
230
1
 70
8
 71
3
 72
11
 73
7
 74
0
 40
0
 40
0
 40
0
 40
0
 40
0.0218906
 40
0.0218906
 40
0.0218906
 40
0.0437812
 40
0.0437812
 40
0.0437812
 40
0.0437812
 10
6091.41
 20
-1402.27
 30
0
 10
6091.43
 20
-1415.48
 30
0
 10
6090.55
 20
-1428.91
 30
0
 10
6088.74
 20
-1442.32
 30
0
 10
6086.93
 20
-1455.73
 30
0
 10
6084.19
 20
-1469.13
 30
0
 10
6080.53
 20
-1482.32
 30
0
  0
SPLINE
  5
C28
330
A02
100
AcDbEntity
  8
Shape2DView001
100
AcDbSpline
210
0
220
0
230
1
 70
8
 71
3
 72
53
 73
49
 74
0
 40
0.0493352
 40
0.0493352
 40
0.0493352
 40
0.0493352
 40
0.0747319
 40
0.0747319
 40
0.0747319
 40
0.100129
 40
0.100129
 40
0.100129
 40
0.125526
 40
0.125526
 40
0.125526
 40
0.150922
 40
0.150922
 40
0.150922
 40
0.176319
 40
0.176319
 40
0.176319
 40
0.201716
 40
0.201716
 40
0.201716
 40
0.227113
 40
0.227113
 40
0.227113
 40
0.25251
 40
0.25251
 40
0.25251
 40
0.277906
 40
0.277906
 40
0.277906
 40
0.303303
 40
0.303303
 40
0.303303
 40
0.3287
 40
0.3287
 40
0.3287
 40
0.354097
 40
0.354097
 40
0.354097
 40
0.379493
 40
0.379493
 40
0.379493
 40
0.40489
 40
0.40489
 40
0.40489
 40
0.430287
 40
0.430287
 40
0.430287
 40
0.455684
 40
0.455684
 40
0.455684
 40
0.455684
 10
6077.57
 20
-1492.32
 30
0
 10
6072.79
 20
-1507.5
 30
0
 10
6066.79
 20
-1522.34
 30
0
 10
6059.65
 20
-1536.61
 30
0
 10
6052.5
 20
-1550.88
 30
0
 10
6044.21
 20
-1564.58
 30
0
 10
6034.91
 20
-1577.52
 30
0
 10
6025.6
 20
-1590.45
 30
0
 10
6015.27
 20
-1602.63
 30
0
 10
6004.06
 20
-1613.89
 30
0
 10
5992.86
 20
-1625.15
 30
0
 10
5980.78
 20
-1635.5
 30
0
 10
5967.99
 20
-1644.81
 30
0
 10
5955.2
 20
-1654.12
 30
0
 10
5941.69
 20
-1662.4
 30
0
 10
5927.65
 20
-1669.56
 30
0
 10
5913.6
 20
-1676.72
 30
0
 10
5899.02
 20
-1682.75
 30
0
 10
5884.07
 20
-1687.61
 30
0
 10
5869.12
 20
-1692.46
 30
0
 10
5853.81
 20
-1696.13
 30
0
 10
5838.32
 20
-1698.58
 30
0
 10
5822.82
 20
-1701.04
 30
0
 10
5807.15
 20
-1702.27
 30
0
 10
5791.47
 20
-1702.27
 30
0
 10
5775.79
 20
-1702.28
 30
0
 10
5760.11
 20
-1701.05
 30
0
 10
5744.61
 20
-1698.6
 30
0
 10
5729.11
 20
-1696.16
 30
0
 10
5713.79
 20
-1692.49
 30
0
 10
5698.83
 20
-1687.64
 30
0
 10
5683.88
 20
-1682.79
 30
0
 10
5669.28
 20
-1676.75
 30
0
 10
5655.22
 20
-1669.59
 30
0
 10
5641.17
 20
-1662.43
 30
0
 10
5627.65
 20
-1654.15
 30
0
 10
5614.85
 20
-1644.83
 30
0
 10
5602.05
 20
-1635.52
 30
0
 10
5589.96
 20
-1625.16
 30
0
 10
5578.74
 20
-1613.89
 30
0
 10
5567.53
 20
-1602.62
 30
0
 10
5557.2
 20
-1590.44
 30
0
 10
5547.88
 20
-1577.49
 30
0
 10
5538.57
 20
-1564.55
 30
0
 10
5530.29
 20
-1550.84
 30
0
 10
5523.14
 20
-1536.57
 30
0
 10
5516
 20
-1522.31
 30
0
 10
5510
 20
-1507.47
 30
0
 10
5505.23
 20
-1492.32
 30
0
  0
SPLINE
  5
C29
330
A02
100
AcDbEntity
  8
Shape2DView001
100
AcDbSpline
210
0
220
0
230
1
 70
8
 71
3
 72
14
 73
10
 74
0
 40
0.461247
 40
0.461247
 40
0.461247
 40
0.461247
 40
0.480624
 40
0.480624
 40
0.480624
 40
0.5
 40
0.5
 40
0.5
 40
0.522113
 40
0.522113
 40
0.522113
 40
0.522113
 10
5502.27
 20
-1482.32
 30
0
 10
5499.04
 20
-1470.67
 30
0
 10
5496.53
 20
-1458.86
 30
0
 10
5494.74
 20
-1447.04
 30
0
 10
5492.95
 20
-1435.22
 30
0
 10
5491.89
 20
-1423.38
 30
0
 10
5491.54
 20
-1411.69
 30
0
 10
5491.1
 20
-1398.1
 30
0
 10
5491.59
 20
-1384.24
 30
0
 10
5493.08
 20
-1370.38
 30
0
  0
SPLINE
  5
C2A
330
A02
100
AcDbEntity
  8
Shape2DView001
100
AcDbSpline
210
0
220
0
230
1
 70
8
 71
3
 72
17
 73
13
 74
0
 40
0.527891
 40
0.527891
 40
0.527891
 40
0.527891
 40
0.550353
 40
0.550353
 40
0.550353
 40
0.572815
 40
0.572815
 40
0.572815
 40
0.595277
 40
0.595277
 40
0.595277
 40
0.617739
 40
0.617739
 40
0.617739
 40
0.617739
 10
5494.45
 20
-1359.51
 30
0
 10
5496.48
 20
-1345.43
 30
0
 10
5499.54
 20
-1331.39
 30
0
 10
5503.59
 20
-1317.61
 30
0
 10
5507.65
 20
-1303.83
 30
0
 10
5512.71
 20
-1290.3
 30
0
 10
5518.71
 20
-1277.2
 30
0
 10
5524.72
 20
-1264.1
 30
0
 10
5531.67
 20
-1251.44
 30
0
 10
5539.48
 20
-1239.35
 30
0
 10
5547.3
 20
-1227.26
 30
0
 10
5555.98
 20
-1215.75
 30
0
 10
5565.42
 20
-1204.94
 30
0
  0
SPLINE
  5
C2B
330
A02
100
AcDbEntity
  8
Shape2DView001
100
AcDbSpline
210
0
220
0
230
1
 70
8
 71
3
 72
8
 73
4
 74
0
 40
0.731261
 40
0.731261
 40
0.731261
 40
0.731261
 40
0.773728
 40
0.773728
 40
0.773728
 40
0.773728
 10
5751.42
 20
-1104.94
 30
0
 10
5777.92
 20
-1101.37
 30
0
 10
5804.88
 20
-1101.37
 30
0
 10
5831.39
 20
-1104.94
 30
0
  0
SPLINE
  5
C2C
330
A02
100
AcDbEntity
  8
Shape2DView001
100
AcDbSpline
210
0
220
0
230
1
 70
8
 71
3
 72
17
 73
13
 74
0
 40
0.887176
 40
0.887176
 40
0.887176
 40
0.887176
 40
0.910196
 40
0.910196
 40
0.910196
 40
0.933217
 40
0.933217
 40
0.933217
 40
0.956238
 40
0.956238
 40
0.956238
 40
0.979258
 40
0.979258
 40
0.979258
 40
0.979258
 10
6017.39
 20
-1204.94
 30
0
 10
6027.07
 20
-1216.03
 30
0
 10
6035.95
 20
-1227.85
 30
0
 10
6043.92
 20
-1240.28
 30
0
 10
6051.88
 20
-1252.7
 30
0
 10
6058.94
 20
-1265.72
 30
0
 10
6064.99
 20
-1279.19
 30
0
 10
6071.05
 20
-1292.65
 30
0
 10
6076.11
 20
-1306.55
 30
0
 10
6080.1
 20
-1320.69
 30
0
 10
6084.1
 20
-1334.83
 30
0
 10
6087.05
 20
-1349.21
 30
0
 10
6088.92
 20
-1363.59
 30
0
  0
SPLINE
  5
C2D
330
A02
100
AcDbEntity
  8
Shape2DView001
100
AcDbSpline
210
0
220
0
230
1
 70
8
 71
3
 72
8
 73
4
 74
0
 40
0.985165
 40
0.985165
 40
0.985165
 40
0.985165
 40
1
 40
1
 40
1
 40
1
 10
6090.15
 20
-1374.66
 30
0
 10
6091.01
 20
-1383.92
 30
0
 10
6091.42
 20
-1393.14
 30
0
 10
6091.41
 20
-1402.27
 30
0
  0
SPLINE
  5
C2E
330
A02
100
AcDbEntity
  8
Shape2DView001
100
AcDbSpline
210
0
220
0
230
1
 70
8
 71
3
 72
11
 73
7
 74
0
 40
0
 40
0
 40
0
 40
0
 40
0.0218906
 40
0.0218906
 40
0.0218906
 40
0.0437812
 40
0.0437812
 40
0.0437812
 40
0.0437812
 10
7052.29
 20
-1402.27
 30
0
 10
7052.31
 20
-1415.48
 30
0
 10
7051.43
 20
-1428.91
 30
0
 10
7049.62
 20
-1442.32
 30
0
 10
7047.81
 20
-1455.73
 30
0
 10
7045.07
 20
-1469.13
 30
0
 10
7041.41
 20
-1482.32
 30
0
  0
SPLINE
  5
C2F
330
A02
100
AcDbEntity
  8
Shape2DView001
100
AcDbSpline
210
0
220
0
230
1
 70
8
 71
3
 72
53
 73
49
 74
0
 40
0.0493352
 40
0.0493352
 40
0.0493352
 40
0.0493352
 40
0.0747319
 40
0.0747319
 40
0.0747319
 40
0.100129
 40
0.100129
 40
0.100129
 40
0.125526
 40
0.125526
 40
0.125526
 40
0.150922
 40
0.150922
 40
0.150922
 40
0.176319
 40
0.176319
 40
0.176319
 40
0.201716
 40
0.201716
 40
0.201716
 40
0.227113
 40
0.227113
 40
0.227113
 40
0.25251
 40
0.25251
 40
0.25251
 40
0.277906
 40
0.277906
 40
0.277906
 40
0.303303
 40
0.303303
 40
0.303303
 40
0.3287
 40
0.3287
 40
0.3287
 40
0.354097
 40
0.354097
 40
0.354097
 40
0.379493
 40
0.379493
 40
0.379493
 40
0.40489
 40
0.40489
 40
0.40489
 40
0.430287
 40
0.430287
 40
0.430287
 40
0.455684
 40
0.455684
 40
0.455684
 40
0.455684
 10
7038.45
 20
-1492.32
 30
0
 10
7033.67
 20
-1507.5
 30
0
 10
7027.67
 20
-1522.34
 30
0
 10
7020.53
 20
-1536.61
 30
0
 10
7013.38
 20
-1550.88
 30
0
 10
7005.09
 20
-1564.58
 30
0
 10
6995.79
 20
-1577.52
 30
0
 10
6986.48
 20
-1590.45
 30
0
 10
6976.15
 20
-1602.63
 30
0
 10
6964.94
 20
-1613.89
 30
0
 10
6953.74
 20
-1625.15
 30
0
 10
6941.66
 20
-1635.5
 30
0
 10
6928.87
 20
-1644.81
 30
0
 10
6916.08
 20
-1654.12
 30
0
 10
6902.57
 20
-1662.4
 30
0
 10
6888.53
 20
-1669.56
 30
0
 10
6874.48
 20
-1676.72
 30
0
 10
6859.9
 20
-1682.75
 30
0
 10
6844.95
 20
-1687.61
 30
0
 10
6830
 20
-1692.46
 30
0
 10
6814.69
 20
-1696.13
 30
0
 10
6799.2
 20
-1698.58
 30
0
 10
6783.7
 20
-1701.04
 30
0
 10
6768.03
 20
-1702.27
 30
0
 10
6752.35
 20
-1702.27
 30
0
 10
6736.67
 20
-1702.28
 30
0
 10
6720.99
 20
-1701.05
 30
0
 10
6705.49
 20
-1698.6
 30
0
 10
6689.99
 20
-1696.16
 30
0
 10
6674.67
 20
-1692.49
 30
0
 10
6659.71
 20
-1687.64
 30
0
 10
6644.76
 20
-1682.79
 30
0
 10
6630.16
 20
-1676.75
 30
0
 10
6616.1
 20
-1669.59
 30
0
 10
6602.05
 20
-1662.43
 30
0
 10
6588.53
 20
-1654.15
 30
0
 10
6575.73
 20
-1644.83
 30
0
 10
6562.93
 20
-1635.52
 30
0
 10
6550.84
 20
-1625.16
 30
0
 10
6539.62
 20
-1613.89
 30
0
 10
6528.41
 20
-1602.62
 30
0
 10
6518.08
 20
-1590.44
 30
0
 10
6508.76
 20
-1577.49
 30
0
 10
6499.45
 20
-1564.55
 30
0
 10
6491.17
 20
-1550.84
 30
0
 10
6484.02
 20
-1536.57
 30
0
 10
6476.88
 20
-1522.31
 30
0
 10
6470.88
 20
-1507.47
 30
0
 10
6466.11
 20
-1492.32
 30
0
  0
SPLINE
  5
C30
330
A02
100
AcDbEntity
  8
Shape2DView001
100
AcDbSpline
210
0
220
0
230
1
 70
8
 71
3
 72
14
 73
10
 74
0
 40
0.461247
 40
0.461247
 40
0.461247
 40
0.461247
 40
0.480624
 40
0.480624
 40
0.480624
 40
0.5
 40
0.5
 40
0.5
 40
0.522113
 40
0.522113
 40
0.522113
 40
0.522113
 10
6463.15
 20
-1482.32
 30
0
 10
6459.92
 20
-1470.67
 30
0
 10
6457.41
 20
-1458.86
 30
0
 10
6455.62
 20
-1447.04
 30
0
 10
6453.83
 20
-1435.22
 30
0
 10
6452.77
 20
-1423.38
 30
0
 10
6452.42
 20
-1411.69
 30
0
 10
6451.98
 20
-1398.1
 30
0
 10
6452.47
 20
-1384.24
 30
0
 10
6453.96
 20
-1370.38
 30
0
  0
SPLINE
  5
C31
330
A02
100
AcDbEntity
  8
Shape2DView001
100
AcDbSpline
210
0
220
0
230
1
 70
8
 71
3
 72
17
 73
13
 74
0
 40
0.527891
 40
0.527891
 40
0.527891
 40
0.527891
 40
0.550353
 40
0.550353
 40
0.550353
 40
0.572815
 40
0.572815
 40
0.572815
 40
0.595277
 40
0.595277
 40
0.595277
 40
0.617739
 40
0.617739
 40
0.617739
 40
0.617739
 10
6455.33
 20
-1359.51
 30
0
 10
6457.36
 20
-1345.43
 30
0
 10
6460.42
 20
-1331.39
 30
0
 10
6464.47
 20
-1317.61
 30
0
 10
6468.53
 20
-1303.83
 30
0
 10
6473.59
 20
-1290.3
 30
0
 10
6479.59
 20
-1277.2
 30
0
 10
6485.6
 20
-1264.1
 30
0
 10
6492.55
 20
-1251.44
 30
0
 10
6500.36
 20
-1239.35
 30
0
 10
6508.18
 20
-1227.26
 30
0
 10
6516.86
 20
-1215.75
 30
0
 10
6526.3
 20
-1204.94
 30
0
  0
SPLINE
  5
C32
330
A02
100
AcDbEntity
  8
Shape2DView001
100
AcDbSpline
210
0
220
0
230
1
 70
8
 71
3
 72
8
 73
4
 74
0
 40
0.731261
 40
0.731261
 40
0.731261
 40
0.731261
 40
0.773728
 40
0.773728
 40
0.773728
 40
0.773728
 10
6712.3
 20
-1104.94
 30
0
 10
6738.8
 20
-1101.37
 30
0
 10
6765.76
 20
-1101.37
 30
0
 10
6792.27
 20
-1104.94
 30
0
  0
SPLINE
  5
C33
330
A02
100
AcDbEntity
  8
Shape2DView001
100
AcDbSpline
210
0
220
0
230
1
 70
8
 71
3
 72
17
 73
13
 74
0
 40
0.887176
 40
0.887176
 40
0.887176
 40
0.887176
 40
0.910196
 40
0.910196
 40
0.910196
 40
0.933217
 40
0.933217
 40
0.933217
 40
0.956238
 40
0.956238
 40
0.956238
 40
0.979258
 40
0.979258
 40
0.979258
 40
0.979258
 10
6978.27
 20
-1204.94
 30
0
 10
6987.95
 20
-1216.03
 30
0
 10
6996.83
 20
-1227.85
 30
0
 10
7004.8
 20
-1240.28
 30
0
 10
7012.76
 20
-1252.7
 30
0
 10
7019.82
 20
-1265.72
 30
0
 10
7025.87
 20
-1279.19
 30
0
 10
7031.93
 20
-1292.65
 30
0
 10
7036.99
 20
-1306.55
 30
0
 10
7040.98
 20
-1320.69
 30
0
 10
7044.98
 20
-1334.83
 30
0
 10
7047.93
 20
-1349.21
 30
0
 10
7049.8
 20
-1363.59
 30
0
  0
SPLINE
  5
C34
330
A02
100
AcDbEntity
  8
Shape2DView001
100
AcDbSpline
210
0
220
0
230
1
 70
8
 71
3
 72
8
 73
4
 74
0
 40
0.985165
 40
0.985165
 40
0.985165
 40
0.985165
 40
1
 40
1
 40
1
 40
1
 10
7051.03
 20
-1374.66
 30
0
 10
7051.89
 20
-1383.92
 30
0
 10
7052.3
 20
-1393.14
 30
0
 10
7052.29
 20
-1402.27
 30
0
  0
ENDSEC
  0
SECTION
  2
OBJECTS
  0
DICTIONARY
  5
F000
330
0
100
AcDbDictionary
  3
ACAD_GROUP
350
F001
  0
DICTIONARY
  5
F001
330
F000
100
AcDbDictionary
  0
ENDSEC
  0
EOF